SplineFontDB: 3.2
FontName: SeriousShannsItalic
FullName: Serious Shanns Italic
FamilyName: Serious Shanns Italic
Weight: Book
Copyright: https://github.com/kaBeech/serious-shanns/blob/main/LICENSE
Version: 6.0.0
ItalicAngle: -12.7
UnderlinePosition: 0
UnderlineWidth: 0
Ascent: 800
Descent: 200
InvalidEm: 0
sfntRevision: 0x00003333
LayerCount: 2
Layer: 0 0 "Back" 1
Layer: 1 0 "Fore" 0
XUID: [1021 45 630387186 1984481]
StyleMap: 0x0040
FSType: 4
OS2Version: 3
OS2_WeightWidthSlopeOnly: 0
OS2_UseTypoMetrics: 0
CreationTime: 1532631502
ModificationTime: 315532800
PfmFamily: 81
TTFWeight: 400
TTFWidth: 5
LineGap: 0
VLineGap: 0
Panose: 0 0 0 0 0 0 0 0 0 0
OS2TypoAscent: 613
OS2TypoAOffset: 0
OS2TypoDescent: -188
OS2TypoDOffset: 0
OS2TypoLinegap: 98
OS2WinAscent: 778
OS2WinAOffset: 0
OS2WinDescent: 308
OS2WinDOffset: 0
HheadAscent: 796
HheadAOffset: 0
HheadDescent: -317
HheadDOffset: 0
OS2SubXSize: 317
OS2SubYSize: 293
OS2SubXOff: 0
OS2SubYOff: 37
OS2SupXSize: 317
OS2SupYSize: 293
OS2SupXOff: 0
OS2SupYOff: 171
OS2StrikeYSize: 0
OS2StrikeYPos: 132
OS2CapHeight: 576
OS2XHeight: 485
OS2Vendor: 'NONE'
OS2CodePages: 00000001.00000000
OS2UnicodeRanges: 00000001.00000000.00000000.00000000
MarkAttachClasses: 1
DEI: 91125
LangName: 1033 "" "" "Normal" "" "" "Version 0.2.0"
Encoding: UnicodeBmp
Compacted: 1
UnicodeInterp: none
NameList: AGL For New Fonts
DisplaySize: -48
AntiAlias: 1
FitToEm: 0
WinInfo: 0 16 14
BeginPrivate: 8
BlueValues 32 [-40 -6 497 511 708 718 765 769]
OtherBlues 11 [-298 -287]
BlueScale 9 0.0291667
BlueShift 1 2
StdHW 4 [86]
StdVW 4 [58]
StemSnapH 19 [82 85 86 89 90 94]
StemSnapV 7 [58 68]
EndPrivate
BeginChars: 65537 123

StartChar: .notdef
Encoding: 65536 -1 0
Width: 590
GlyphClass: 1
Flags: W
HStem: -268 54<41 339> 695 54<251 549>
LayerCount: 2
Fore
SplineSet
-21 -268 m 1
 213 749 l 1
 612 749 l 1
 377 -268 l 1
 -21 -268 l 1
41 -214 m 1
 339 -214 l 1
 549 695 l 1
 251 695 l 1
 41 -214 l 1
EndSplineSet
Validated: 1
EndChar

StartChar: exclam
Encoding: 33 33 12
Width: 590
GlyphClass: 2
Flags: HMW
HStem: -24.001 152.997
VStem: 151.997 151
LayerCount: 2
Fore
SplineSet
439 738 m 0
 437.666992188 732 426.330078125 688.166015625 404.997070312 606.499023438 c 0
 383.6640625 524.83203125 367.6640625 458.33203125 356.997070312 406.999023438 c 0
 346.330078125 356.999023438 339.330078125 327.166015625 335.997070312 317.499023438 c 0
 332.6640625 307.83203125 328.6640625 292.33203125 323.997070312 270.999023438 c 0
 319.330078125 256.33203125 311.330078125 244.83203125 299.997070312 236.499023438 c 0
 289.50390625 228.783203125 278.439453125 224.92578125 266.802734375 224.92578125 c 0
 265.87109375 224.92578125 264.935546875 224.950195312 263.997070312 225 c 0
 251.330078125 225 241.997070312 229.333007812 235.997070312 238 c 0
 232.8203125 242.587890625 231.232421875 248.297851562 231.232421875 255.127929688 c 0
 231.232421875 261.200195312 232.487304688 268.157226562 234.997070312 276.000976562 c 0
 238.330078125 286.000976562 241.830078125 295.66796875 245.497070312 305.000976562 c 0
 249.1640625 314.333984375 251.997070312 322.166992188 253.997070312 328.5 c 0
 255.997070312 334.833007812 259.830078125 349.833007812 265.497070312 373.5 c 0
 271.1640625 397.166992188 277.6640625 427.666992188 284.997070312 465 c 0
 289.6640625 491 295.331054688 518.5 301.998046875 547.5 c 0
 308.665039062 576.5 314.498046875 600.666992188 319.498046875 620 c 0
 324.498046875 639.333007812 330.165039062 661.333007812 336.498046875 686 c 0
 342.831054688 710.666992188 346.998046875 727 348.998046875 735 c 0
 353.665039062 753 361.33203125 766.666992188 371.999023438 776 c 0
 382.666015625 785.333007812 394.333007812 790 407 790 c 0
 407.953125 790.047851562 408.88671875 790.071289062 409.801757812 790.071289062 c 0
 421.696289062 790.071289062 430.428710938 786.047851562 436 778 c 0
 439.599609375 772.799804688 441.400390625 765.919921875 441.400390625 757.360351562 c 0
 441.400390625 751.653320312 440.599609375 745.200195312 439 738 c 0
210.99609375 -24.0009765625 m 0
 207.661132812 -24.3818359375 204.456054688 -24.572265625 201.379882812 -24.572265625 c 0
 182.93359375 -24.572265625 169.140625 -17.7177734375 159.998046875 -4.0048828125 c 0
 152.88671875 6.662109375 149.331054688 18.810546875 149.331054688 32.4404296875 c 0
 149.331054688 39.2548828125 150.219726562 46.439453125 151.997070312 53.9951171875 c 0
 156.6640625 73.9951171875 168.6640625 91.328125 187.997070312 105.995117188 c 0
 207.330078125 120.662109375 226.997070312 128.329101562 246.997070312 128.99609375 c 0
 247.975585938 129.025390625 248.94140625 129.041015625 249.896484375 129.041015625 c 0
 270.408203125 129.041015625 285.44140625 122.192382812 294.997070312 108.497070312 c 0
 301.815429688 98.724609375 305.224609375 87.3251953125 305.224609375 74.298828125 c 0
 305.224609375 68.2197265625 304.482421875 61.7861328125 302.997070312 54.998046875 c 0
 298.330078125 33.6650390625 287.663085938 15.83203125 270.99609375 1.4990234375 c 0
 254.329101562 -12.833984375 234.329101562 -21.333984375 210.99609375 -24.0009765625 c 0
EndSplineSet
Validated: 524289
EndChar

StartChar: quotedbl
Encoding: 34 34 13
Width: 590
GlyphClass: 2
Flags: HMW
VStem: 142.996 306.002
LayerCount: 2
Fore
SplineSet
300 738 m 0
 294 710.666992188 283.165039062 665.830078125 267.498046875 603.497070312 c 0
 251.831054688 541.1640625 239.998046875 498.331054688 231.998046875 474.998046875 c 0
 227.331054688 461.665039062 219.6640625 451.665039062 208.997070312 444.998046875 c 0
 199.299804688 438.9375 189.87890625 435.907226562 180.733398438 435.907226562 c 0
 179.818359375 435.907226562 178.90625 435.9375 177.997070312 435.998046875 c 0
 165.330078125 436.665039062 155.163085938 440.83203125 147.49609375 448.499023438 c 0
 142.73046875 453.264648438 140.34765625 459.25390625 140.34765625 466.466796875 c 0
 140.34765625 470.857421875 141.23046875 475.701171875 142.99609375 480.999023438 c 0
 152.99609375 514.999023438 163.829101562 558.666015625 175.49609375 611.999023438 c 0
 187.163085938 665.33203125 196.330078125 709.33203125 202.997070312 743.999023438 c 0
 204.330078125 751.999023438 207.330078125 758.83203125 211.997070312 764.499023438 c 0
 216.6640625 770.166015625 221.997070312 774.333007812 227.997070312 777 c 0
 233.997070312 779.666992188 239.997070312 781.5 245.997070312 782.5 c 0
 251.997070312 783.5 257.997070312 783.666992188 263.997070312 783 c 0
 269.330078125 783 274.330078125 782.333007812 278.997070312 781 c 0
 283.6640625 779.666992188 287.831054688 777.5 291.498046875 774.5 c 0
 295.165039062 771.5 297.83203125 766.833007812 299.499023438 760.5 c 0
 301.166015625 754.166992188 301.333007812 746.666992188 300 738 c 0
448.998046875 737.99609375 m 0
 443.665039062 710.663085938 433.166992188 665.826171875 417.5 603.493164062 c 0
 401.833007812 541.16015625 389.666015625 498.327148438 380.999023438 474.994140625 c 0
 376.33203125 461.661132812 368.665039062 451.661132812 357.998046875 444.994140625 c 0
 348.30078125 438.93359375 338.879882812 435.903320312 329.734375 435.903320312 c 0
 328.819335938 435.903320312 327.907226562 435.93359375 326.998046875 435.994140625 c 0
 314.998046875 436.661132812 304.998046875 440.828125 296.998046875 448.495117188 c 0
 292.198242188 453.095703125 289.797851562 458.834960938 289.797851562 465.71484375 c 0
 289.797851562 470.301757812 290.865234375 475.395507812 292.998046875 480.995117188 c 0
 302.998046875 514.995117188 313.665039062 558.662109375 324.998046875 611.995117188 c 0
 336.331054688 665.328125 345.331054688 709.328125 351.998046875 743.995117188 c 0
 353.331054688 751.995117188 356.331054688 758.828125 360.998046875 764.495117188 c 0
 365.665039062 770.162109375 371.165039062 774.329101562 377.498046875 776.99609375 c 0
 383.831054688 779.663085938 389.831054688 781.49609375 395.498046875 782.49609375 c 0
 401.165039062 783.49609375 406.998046875 783.663085938 412.998046875 782.99609375 c 0
 418.998046875 782.99609375 424.165039062 782.329101562 428.498046875 780.99609375 c 0
 432.831054688 779.663085938 436.998046875 777.49609375 440.998046875 774.49609375 c 0
 444.998046875 771.49609375 447.831054688 766.829101562 449.498046875 760.49609375 c 0
 451.165039062 754.163085938 450.998046875 746.663085938 448.998046875 737.99609375 c 0
EndSplineSet
Validated: 524289
EndChar

StartChar: numbersign
Encoding: 35 35 14
Width: 590
GlyphClass: 2
Flags: HMW
HStem: 192 82<415.999 435 383 453.999> 445 84<282.993 422.998 316.998 389.993 316.998 515.999 316.998 481.999>
LayerCount: 2
Fore
SplineSet
114 42 m 0
 106 28 94.326171875 16.5 78.9931640625 7.5 c 0
 68.3779296875 1.26953125 58.880859375 -1.845703125 50.501953125 -1.845703125 c 0
 46.7783203125 -1.845703125 43.275390625 -1.23046875 39.9931640625 0 c 0
 29.326171875 2.6669921875 22.826171875 11.1669921875 20.4931640625 25.5 c 0
 19.998046875 28.5400390625 19.7509765625 31.6474609375 19.7509765625 34.822265625 c 0
 19.7509765625 46.6162109375 23.1650390625 59.341796875 29.994140625 72.9990234375 c 0
 39.3271484375 90.9990234375 56.994140625 129.666015625 82.994140625 188.999023438 c 1
 54.994140625 188.999023438 l 2
 39.6611328125 188.999023438 28.6611328125 192.33203125 21.994140625 198.999023438 c 0
 15.3271484375 205.666015625 13.3271484375 214.666015625 15.994140625 225.999023438 c 0
 17.994140625 237.999023438 23.6611328125 247.999023438 32.994140625 255.999023438 c 0
 42.3271484375 263.999023438 54.994140625 268.666015625 70.994140625 269.999023438 c 0
 75.6611328125 269.999023438 83.1611328125 270.166015625 93.494140625 270.499023438 c 0
 103.827148438 270.83203125 111.66015625 270.999023438 116.993164062 270.999023438 c 1
 188.993164062 443.999023438 l 1
 183.66015625 443.999023438 176.66015625 443.83203125 167.993164062 443.499023438 c 0
 159.326171875 443.166015625 153.326171875 442.999023438 149.993164062 442.999023438 c 0
 148.765625 442.9453125 147.567382812 442.918945312 146.3984375 442.918945312 c 0
 132.955078125 442.918945312 123.3203125 446.4453125 117.494140625 453.499023438 c 0
 111.161132812 461.166015625 109.328125 470.666015625 111.995117188 481.999023438 c 0
 113.995117188 493.999023438 119.828125 504.166015625 129.495117188 512.499023438 c 0
 139.162109375 520.83203125 152.329101562 525.33203125 168.99609375 525.999023438 c 0
 180.99609375 526.666015625 198.99609375 526.999023438 222.99609375 526.999023438 c 1
 264.329101562 627.666015625 285.329101562 679.666015625 285.99609375 682.999023438 c 0
 294.663085938 699.666015625 304.99609375 711.333007812 316.99609375 718 c 0
 324.99609375 722.4453125 332.700195312 724.666992188 340.108398438 724.666992188 c 0
 343.811523438 724.666992188 347.440429688 724.112304688 350.99609375 723.000976562 c 0
 363.663085938 720.333984375 372.330078125 713.666992188 376.997070312 703 c 0
 378.8125 698.8515625 379.719726562 694.19921875 379.719726562 689.041992188 c 0
 379.719726562 680.939453125 377.479492188 671.591796875 372.998046875 661 c 2
 316.998046875 529 l 1
 422.998046875 529 l 1
 480.998046875 675 l 2
 489.665039062 692.333007812 499.998046875 704.333007812 511.998046875 711 c 0
 519.998046875 715.4453125 527.850585938 717.666992188 535.5546875 717.666992188 c 0
 539.40625 717.666992188 543.220703125 717.112304688 546.998046875 716.000976562 c 0
 560.331054688 713.333984375 569.331054688 706.666992188 573.998046875 696 c 0
 575.631835938 692.266601562 576.448242188 688.125 576.448242188 683.57421875 c 0
 576.448242188 675.124023438 573.631835938 665.266601562 567.998046875 654 c 0
 554.665039062 626 537.665039062 585 516.998046875 531 c 1
 526.998046875 531 l 2
 541.665039062 531 553.165039062 526.5 561.498046875 517.5 c 0
 568.21875 510.2421875 571.579101562 502.658203125 571.579101562 494.75 c 0
 571.579101562 492.852539062 571.384765625 490.935546875 570.998046875 489 c 0
 568.331054688 477 562.331054688 466.833007812 552.998046875 458.5 c 0
 543.665039062 450.166992188 531.33203125 445.666992188 515.999023438 445 c 2
 481.999023438 445 l 1
 415.999023438 274 l 1
 453.999023438 274 l 2
 468.666015625 274 477.833007812 270.5 481.5 263.5 c 0
 485.166992188 256.5 486 247.333007812 484 236 c 0
 477.333007812 206.666992188 461 192 435 192 c 2
 383 192 l 1
 353 116 332 64.6669921875 320 38 c 0
 311.333007812 24 300 13.1669921875 286 5.5 c 0
 276.799804688 0.4619140625 268.17578125 -2.0576171875 260.127929688 -2.0576171875 c 0
 255.928710938 -2.0576171875 251.885742188 -1.37109375 248 0 c 0
 237.333007812 2.6669921875 230.5 10.5 227.5 23.5 c 0
 226.728515625 26.8427734375 226.342773438 30.3076171875 226.342773438 33.892578125 c 0
 226.342773438 44.25 229.561523438 55.619140625 236 68 c 0
 248.666992188 94.6669921875 266 135.666992188 288 191 c 1
 275.333007812 191 256.5 190.833007812 231.5 190.5 c 0
 206.5 190.166992188 188.333007812 190 177 190 c 1
 147 118 126 68.6669921875 114 42 c 0
282.993164062 445 m 1
 211.994140625 273.999023438 l 1
 237.327148438 274.666015625 273.66015625 274.999023438 320.993164062 274.999023438 c 1
 343.66015625 329.666015625 366.66015625 386.333007812 389.993164062 445 c 1
 282.993164062 445 l 1
EndSplineSet
Validated: 524289
EndChar

StartChar: dollar
Encoding: 36 36 15
Width: 590
GlyphClass: 2
Flags: HMW
HStem: -28.9932 84.9932<165.001 202 176.001 202> 642.998 79.002
VStem: 161.001 82.999 420.502 93.998
LayerCount: 2
Fore
SplineSet
244 -99 m 0
 239.333007812 -113.666992188 231.333984375 -124.993164062 220.000976562 -132.993164062 c 0
 208.66796875 -140.993164062 196.66796875 -144.993164062 184.000976562 -144.993164062 c 0
 172.66796875 -144.993164062 165.000976562 -140.493164062 161.000976562 -131.493164062 c 0
 159.401367188 -127.893554688 158.600585938 -123.6796875 158.600585938 -118.853515625 c 0
 158.600585938 -111.61328125 160.401367188 -102.993164062 164.000976562 -92.9931640625 c 0
 168.66796875 -76.9931640625 174.000976562 -55.66015625 180.000976562 -28.9931640625 c 1
 176.000976562 -28.9931640625 l 2
 154.000976562 -28.9931640625 134.000976562 -25.9931640625 116.000976562 -19.9931640625 c 0
 98.0009765625 -13.9931640625 83.0009765625 -5.9931640625 71.0009765625 4.0068359375 c 0
 59.0009765625 14.0068359375 49.333984375 24.673828125 42.0009765625 36.0068359375 c 0
 34.66796875 47.33984375 29.0009765625 59.6728515625 25.0009765625 73.005859375 c 0
 23.71875 79.9287109375 23.078125 86.3583984375 23.078125 92.2958984375 c 0
 23.078125 101.794921875 24.71875 110.03125 28.0009765625 117.005859375 c 0
 33.333984375 128.338867188 41.6669921875 136.671875 53 142.004882812 c 0
 61 145.337890625 67.5 147.670898438 72.5 149.00390625 c 0
 77.5 150.336914062 82.5 150.669921875 87.5 150.002929688 c 0
 92.5 149.3359375 97 146.668945312 101 142.001953125 c 0
 105 137.334960938 109 130.66796875 113 122.000976562 c 0
 121 101.333984375 131.5 85.1669921875 144.5 73.5 c 0
 157.5 61.8330078125 176 56 200 56 c 2
 202 56 l 1
 229.333007812 167.333007812 252.666015625 266.666015625 271.999023438 353.999023438 c 1
 268.666015625 353.999023438 263.499023438 354.666015625 256.499023438 355.999023438 c 0
 249.499023438 357.33203125 243.999023438 357.999023438 239.999023438 357.999023438 c 0
 218.666015625 360.666015625 199.999023438 366.999023438 183.999023438 376.999023438 c 0
 167.999023438 386.999023438 155.999023438 399.166015625 147.999023438 413.499023438 c 0
 139.999023438 427.83203125 134.666015625 442.83203125 131.999023438 458.499023438 c 0
 130.932617188 464.765625 130.3984375 471.05859375 130.3984375 477.37890625 c 0
 130.3984375 486.859375 131.598632812 496.399414062 133.999023438 505.999023438 c 0
 139.33203125 529.999023438 147.999023438 552.999023438 159.999023438 574.999023438 c 0
 171.999023438 596.999023438 187.166015625 617.499023438 205.499023438 636.499023438 c 0
 223.83203125 655.499023438 245.999023438 671.83203125 271.999023438 685.499023438 c 0
 297.999023438 699.166015625 325.999023438 708.666015625 355.999023438 713.999023438 c 1
 360.666015625 729.999023438 365.999023438 749.33203125 371.999023438 771.999023438 c 0
 381.33203125 808.666015625 397.999023438 826.999023438 421.999023438 826.999023438 c 0
 422.517578125 827.01171875 423.030273438 827.017578125 423.537109375 827.017578125 c 0
 444.2890625 827.017578125 454.666015625 816.641601562 454.666015625 795.888671875 c 0
 454.666015625 789.814453125 453.776367188 782.8515625 451.999023438 775 c 2
 438.999023438 722 l 1
 452.999023438 721.333007812 471.499023438 718 494.499023438 712 c 0
 517.499023438 706 534.33203125 700.333007812 544.999023438 695 c 0
 555.666015625 690.333007812 562.499023438 683 565.499023438 673 c 0
 566.672851562 669.086914062 567.259765625 665.071289062 567.259765625 660.954101562 c 0
 567.259765625 654.549804688 565.83984375 647.8984375 562.999023438 641 c 0
 560.33203125 633 556.499023438 626.833007812 551.499023438 622.5 c 0
 546.499023438 618.166992188 540.999023438 615.5 534.999023438 614.5 c 0
 528.999023438 613.5 523.33203125 613.333007812 517.999023438 614 c 0
 512.666015625 614.666992188 507.666015625 615.666992188 502.999023438 617 c 0
 497.666015625 618.333007812 491.166015625 621.166015625 483.499023438 625.499023438 c 0
 475.83203125 629.83203125 466.999023438 633.665039062 456.999023438 636.998046875 c 0
 446.999023438 640.331054688 434.666015625 642.331054688 419.999023438 642.998046875 c 1
 406.666015625 589.665039062 389.333007812 518.998046875 368 430.998046875 c 1
 395.333007812 426.998046875 419 419.831054688 439 409.498046875 c 0
 459 399.165039062 474.166992188 387.33203125 484.5 373.999023438 c 0
 494.833007812 360.666015625 502.5 345.333007812 507.5 328 c 0
 512.1875 311.749023438 514.53125 295.791992188 514.53125 280.126953125 c 0
 514.53125 266.818359375 512.955078125 247.967773438 507 225 c 0
 499.666992188 194.333007812 488.166992188 165.333007812 472.5 138 c 0
 456.833007812 110.666992188 438 87 416 67 c 0
 394 47 369.833007812 29.6669921875 343.5 15 c 0
 317.166992188 0.3330078125 289.666992188 -10.6669921875 261 -18 c 1
 251.666992188 -58 246 -85 244 -99 c 0
226.000976562 531.006835938 m 0
 224.66796875 524.911132812 224.000976562 519.034179688 224.000976562 513.374023438 c 0
 224.000976562 499.224609375 228.16796875 486.435546875 236.500976562 475.006835938 c 0
 248.16796875 459.006835938 266.66796875 447.673828125 292.000976562 441.006835938 c 1
 303.333984375 487.006835938 318.666992188 551.006835938 338 633.006835938 c 1
 309.333007812 624.33984375 284.833007812 611.33984375 264.5 594.006835938 c 0
 244.166992188 576.673828125 231.333984375 555.673828125 226.000976562 531.006835938 c 0
417.000976562 208.006835938 m 0
 419.372070312 219.267578125 420.557617188 229.73828125 420.557617188 239.418945312 c 0
 420.557617188 252.064453125 418.291015625 263.998046875 414.001953125 276.508789062 c 0
 410.001953125 288.17578125 402.168945312 299.008789062 390.501953125 309.008789062 c 0
 378.834960938 319.008789062 363.66796875 327.67578125 345.000976562 335.008789062 c 1
 337.66796875 305.67578125 327.000976562 261.508789062 313.000976562 202.508789062 c 0
 299.000976562 143.508789062 288.66796875 100.67578125 282.000976562 74.0087890625 c 1
 315.333984375 87.341796875 344.500976562 105.674804688 369.500976562 129.0078125 c 0
 394.500976562 152.340820312 410.333984375 178.673828125 417.000976562 208.006835938 c 0
EndSplineSet
Validated: 524289
EndChar

StartChar: percent
Encoding: 37 37 16
Width: 590
GlyphClass: 2
Flags: HMW
HStem: -28.001 76 170.999 74<399.667 412.667> 432 75<188 233.667> 632 73<257.333 261.333>
LayerCount: 2
Fore
SplineSet
199 432 m 0
 177 432 159.000976562 438.5 145.000976562 451.5 c 0
 131.000976562 464.5 122.16796875 480.833007812 118.500976562 500.5 c 0
 117.006835938 508.513671875 116.259765625 516.775390625 116.259765625 525.286132812 c 0
 116.259765625 537.665039062 117.83984375 550.569335938 121 564.000976562 c 0
 130.333007812 605.333984375 148.833007812 639.166992188 176.5 665.5 c 0
 204.166992188 691.833007812 237.666992188 705 277 705 c 0
 292.333007812 705 306 702.166992188 318 696.5 c 0
 330 690.833007812 340 682.333007812 348 671 c 0
 356 659.666992188 360.5 644.166992188 361.5 624.5 c 0
 361.620117188 622.139648438 361.6796875 619.734375 361.6796875 617.283203125 c 0
 361.6796875 599.307617188 358.453125 578.879882812 352 556 c 0
 340.666992188 515.333007812 322.666992188 484.5 298 463.5 c 0
 273.333007812 442.5 240.333007812 432 199 432 c 0
19.0009765625 19 m 0
 38.333984375 47.6669921875 83 107.833984375 153 199.500976562 c 0
 223 291.16796875 293.166992188 383.66796875 363.5 477.000976562 c 0
 433.833007812 570.333984375 482 637.000976562 508 677.000976562 c 0
 518 689.000976562 529.333007812 696.500976562 542 699.500976562 c 0
 545.931640625 700.431640625 549.702148438 700.897460938 553.3125 700.897460938 c 0
 561.333984375 700.897460938 568.563476562 698.598632812 575 694.000976562 c 0
 585 688.66796875 589.5 680.834960938 588.5 670.501953125 c 0
 587.5 660.168945312 581.333007812 647.668945312 570 633.001953125 c 0
 537.333007812 592.334960938 458.5 488.66796875 333.5 322.000976562 c 0
 208.5 155.333984375 125 42.6669921875 83 -16 c 0
 65.76953125 -39.630859375 49.6298828125 -51.4462890625 34.580078125 -51.4462890625 c 0
 29.25 -51.4462890625 24.0576171875 -49.9638671875 19.0009765625 -47 c 0
 8.0009765625 -40.666015625 2.5009765625 -32 2.5009765625 -21 c 0
 2.5009765625 -10 8.0009765625 3.333984375 19.0009765625 19 c 0
226 507 m 0
 241.333007812 507 254.333984375 512.33203125 265.000976562 522.999023438 c 0
 275.66796875 533.666015625 283.66796875 547.999023438 289.000976562 565.999023438 c 0
 291.842773438 576.736328125 293.264648438 586.126953125 293.264648438 594.171875 c 0
 293.264648438 603.109375 291.509765625 610.385742188 288.000976562 616 c 0
 281.333984375 626.666992188 269.666992188 632 253 632 c 0
 238.333007812 632 225.5 626.166992188 214.5 614.5 c 0
 203.5 602.833007812 195 587 189 567 c 0
 186.666015625 557.666015625 185.5 549.416015625 185.5 542.25 c 0
 185.5 535.083007812 186.666015625 529 189 524 c 0
 193.666992188 514 206 508.333007812 226 507 c 0
342.000976562 -28.0009765625 m 0
 320.000976562 -28.0009765625 302 -21.5009765625 288 -8.5009765625 c 0
 274 4.4990234375 265.166992188 20.83203125 261.5 40.4990234375 c 0
 260.005859375 48.5126953125 259.258789062 56.7744140625 259.258789062 65.28515625 c 0
 259.258789062 77.6640625 260.838867188 90.568359375 263.999023438 104 c 0
 273.33203125 145.333007812 291.83203125 179.166015625 319.499023438 205.499023438 c 0
 347.166015625 231.83203125 380.333007812 244.999023438 419 244.999023438 c 0
 434.333007812 244.999023438 448.166015625 242.33203125 460.499023438 236.999023438 c 0
 472.83203125 231.666015625 482.999023438 223.166015625 490.999023438 211.499023438 c 0
 498.999023438 199.83203125 503.499023438 184.165039062 504.499023438 164.498046875 c 0
 504.610351562 162.3125 504.666015625 160.088867188 504.666015625 157.825195312 c 0
 504.666015625 139.717773438 501.110351562 119.109375 493.999023438 95.998046875 c 0
 482.666015625 55.3310546875 464.833007812 24.3310546875 440.5 2.998046875 c 0
 416.904296875 -17.6884765625 385.317382812 -28.03125 345.737304688 -28.03125 c 0
 344.499023438 -28.03125 343.25390625 -28.021484375 342.000976562 -28.0009765625 c 0
369 47.9990234375 m 0
 369.838867188 47.9609375 370.669921875 47.94140625 371.49609375 47.94140625 c 0
 385.108398438 47.94140625 396.943359375 53.1279296875 407.000976562 63.4990234375 c 0
 417.66796875 74.4990234375 425.66796875 88.666015625 431.000976562 105.999023438 c 0
 433.752929688 116.522460938 435.12890625 125.768554688 435.12890625 133.736328125 c 0
 435.12890625 158.578125 421.752929688 170.999023438 395.000976562 170.999023438 c 0
 380.333984375 170.999023438 367.666992188 165.166015625 357 153.499023438 c 0
 346.333007812 141.83203125 338 126.33203125 332 106.999023438 c 0
 329.747070312 98.3095703125 328.620117188 90.513671875 328.620117188 83.6103515625 c 0
 328.620117188 76.2138671875 329.9140625 69.84375 332.5 64.4990234375 c 0
 337.5 54.166015625 349.666992188 48.666015625 369 47.9990234375 c 0
EndSplineSet
Validated: 524289
EndChar

StartChar: ampersand
Encoding: 38 38 17
Width: 590
GlyphClass: 2
Flags: HMW
HStem: -41.998 93.998<165.668 209.332> 645.001 79<390.334 390.667>
VStem: 383.003 89.9971 470 83.5<297 297>
LayerCount: 2
Fore
SplineSet
448 -35 m 0xe0
 441.482421875 -38.5849609375 435.083984375 -40.376953125 428.805664062 -40.376953125 c 0
 422.241210938 -40.376953125 415.806640625 -38.4169921875 409.501953125 -34.498046875 c 0
 397.168945312 -26.8310546875 388.3359375 -13.6640625 383.002929688 5.0029296875 c 0xe0
 382.3359375 8.3359375 380.8359375 18.3359375 378.502929688 35.0029296875 c 0
 376.169921875 51.669921875 374.002929688 63.669921875 372.002929688 71.0029296875 c 1
 370.002929688 68.3359375 365.002929688 62.6689453125 357.002929688 54.001953125 c 0
 349.002929688 45.3349609375 343.002929688 39.001953125 339.002929688 35.001953125 c 0
 335.002929688 31.001953125 328.502929688 25.001953125 319.502929688 17.001953125 c 0
 310.502929688 9.001953125 303.002929688 2.8349609375 297.002929688 -1.498046875 c 0
 291.002929688 -5.8310546875 283.169921875 -10.998046875 273.502929688 -16.998046875 c 0
 263.8359375 -22.998046875 254.668945312 -27.498046875 246.001953125 -30.498046875 c 0
 237.334960938 -33.498046875 227.501953125 -36.1650390625 216.501953125 -38.498046875 c 0
 205.501953125 -40.8310546875 194.334960938 -41.998046875 183.001953125 -41.998046875 c 0
 148.334960938 -41.998046875 118.66796875 -32.3310546875 94.0009765625 -12.998046875 c 0
 69.333984375 6.3349609375 52.6669921875 31.66796875 44 63.0009765625 c 0
 39.4931640625 79.2939453125 37.240234375 96.30859375 37.240234375 114.04296875 c 0
 37.240234375 130.415039062 39.16015625 147.400390625 43 165.000976562 c 0
 71.6669921875 291.000976562 140 376.66796875 248 422.000976562 c 1
 244.666992188 432.000976562 240.5 444.000976562 235.5 458.000976562 c 0
 230.5 472.000976562 227 481.833984375 225 487.500976562 c 0
 223 493.16796875 220.833007812 500.500976562 218.5 509.500976562 c 0
 216.166992188 518.500976562 215 526.333984375 215 533.000976562 c 0
 215 539.66796875 215.5 547.834960938 216.5 557.501953125 c 0
 217.5 567.168945312 219.333007812 577.668945312 222 589.001953125 c 0
 224.666992188 601.001953125 228.833984375 612.834960938 234.500976562 624.501953125 c 0
 240.16796875 636.168945312 248.000976562 648.168945312 258.000976562 660.501953125 c 0
 268.000976562 672.834960938 279.500976562 683.66796875 292.500976562 693.000976562 c 0
 305.500976562 702.333984375 321.500976562 709.833984375 340.500976562 715.500976562 c 0
 359.500976562 721.16796875 379.66796875 724.000976562 401.000976562 724.000976562 c 0
 419.000976562 724.000976562 436.000976562 721.000976562 452.000976562 715.000976562 c 0
 468.000976562 709.000976562 481.833984375 700.16796875 493.500976562 688.500976562 c 0
 505.16796875 676.833984375 513.000976562 661.500976562 517.000976562 642.500976562 c 0
 518.71484375 634.358398438 519.572265625 625.817382812 519.572265625 616.87890625 c 0
 519.572265625 604.9609375 518.048828125 592.333984375 515.000976562 579.000976562 c 0
 510.333984375 557.66796875 503.166992188 537.834960938 493.5 519.501953125 c 0
 483.833007812 501.168945312 473.833007812 485.8359375 463.5 473.502929688 c 0
 453.166992188 461.169921875 440.666992188 449.336914062 426 438.00390625 c 0
 411.333007812 426.670898438 398.333007812 417.670898438 387 411.00390625 c 0
 375.666992188 404.336914062 362.666992188 397.669921875 348 391.002929688 c 1
 354.666992188 370.3359375 366.666992188 339.668945312 384 299.001953125 c 0
 401.333007812 258.334960938 412.333007812 231.334960938 417 218.001953125 c 1
 423 227.334960938 430 238.16796875 438 250.500976562 c 0
 446 262.833984375 452.666992188 272.833984375 458 280.500976562 c 0
 463.333007812 288.16796875 467.333007812 293.66796875 470 297.000976562 c 0
 484.666992188 314.333984375 497.5 325.166992188 508.5 329.5 c 0
 512.833007812 331.20703125 517.139648438 332.060546875 521.420898438 332.060546875 c 0
 528.008789062 332.060546875 534.53515625 330.040039062 541 325.999023438 c 0
 549.4296875 321.181640625 553.645507812 312.694335938 553.645507812 300.534179688 c 0
 553.645507812 288.635742188 549.828125 271.743164062 534 248 c 0
 529.333007812 242 517 228.666992188 497 208 c 0
 477 187.333007812 459.666992188 168.333007812 445 151 c 1
 449 138.333007812 454.666992188 120.166015625 462 96.4990234375 c 0
 469.333007812 72.83203125 473.333007812 58.9990234375 474 54.9990234375 c 0
 476.509765625 47.4697265625 477.764648438 39.5712890625 477.764648438 31.302734375 c 0
 477.764648438 22.001953125 476.176757812 12.234375 473 1.9990234375 c 0
 467 -17.333984375 458.666992188 -29.6669921875 448 -35 c 0xe0
306.000976562 572.000976562 m 0
 304 563.665039062 303 554.913085938 303 545.744140625 c 0
 303 536.579101562 304 526.999023438 305.999023438 517.000976562 c 0
 309.999023438 497.000976562 316.33203125 479.333984375 324.999023438 464.000976562 c 1
 339.666015625 468.66796875 352.333007812 473.500976562 363 478.500976562 c 0
 373.666992188 483.500976562 384.166992188 490.000976562 394.5 498.000976562 c 0
 404.833007812 506.000976562 413.333007812 515.833984375 420 527.500976562 c 0
 426.666992188 539.16796875 431.666992188 553.000976562 435 569.000976562 c 0
 437.077148438 577.5390625 438.115234375 585.37890625 438.115234375 592.51953125 c 0
 438.115234375 606.006835938 434.41015625 617.000976562 427 625.500976562 c 0
 415.666992188 638.500976562 400.333984375 645.000976562 381.000976562 645.000976562 c 0
 342.333984375 645.000976562 317.333984375 620.66796875 306.000976562 572.000976562 c 0
137.999023438 174.000976562 m 0
 134.8515625 160.361328125 133.27734375 147.59765625 133.27734375 135.711914062 c 0
 133.27734375 117.389648438 137.017578125 101.15234375 144.498046875 87 c 0
 156.831054688 63.6669921875 176.998046875 52 204.998046875 52 c 0
 213.665039062 52 222.33203125 53 230.999023438 55 c 0
 239.666015625 57 247.333007812 59 254 61 c 0
 260.666992188 63 267.666992188 66.3330078125 275 71 c 0
 282.333007812 75.6669921875 288.166015625 79.5 292.499023438 82.5 c 0
 296.83203125 85.5 302.33203125 90.1669921875 308.999023438 96.5 c 0
 315.666015625 102.833007812 320.333007812 107.333007812 323 110 c 0
 325.666992188 112.666992188 330 117.5 336 124.5 c 0
 342 131.5 345.666992188 135.666992188 347 137 c 0
 342.333007812 163 337.666015625 183.333007812 332.999023438 198 c 0
 328.999023438 213.333007812 319.83203125 238.333007812 305.499023438 273 c 0
 291.166015625 307.666992188 280.999023438 333.333984375 274.999023438 350.000976562 c 1
 254.33203125 341.333984375 235.999023438 330.500976562 219.999023438 317.500976562 c 0
 203.999023438 304.500976562 190.666015625 290.16796875 179.999023438 274.500976562 c 0
 169.33203125 258.833984375 160.83203125 243.000976562 154.499023438 227.000976562 c 0
 148.166015625 211.000976562 142.666015625 193.333984375 137.999023438 174.000976562 c 0
EndSplineSet
Validated: 524289
EndChar

StartChar: quotesingle
Encoding: 39 39 18
Width: 590
GlyphClass: 2
Flags: HMW
HStem: 446.001 325.499
VStem: 220 152
LayerCount: 2
Fore
SplineSet
372 728 m 0
 366.666992188 701.333007812 357.001953125 660.16796875 343.001953125 604.500976562 c 0
 329.001953125 548.833984375 317.668945312 509.333984375 309.001953125 486.000976562 c 0
 304.334960938 472.000976562 296.66796875 461.66796875 286.000976562 455.000976562 c 0
 276.303710938 448.940429688 266.8828125 445.91015625 257.737304688 445.91015625 c 0
 256.822265625 445.91015625 255.91015625 445.940429688 255.000976562 446.000976562 c 0
 242.333984375 446.66796875 232.166992188 451.000976562 224.5 459.000976562 c 0
 219.734375 463.973632812 217.3515625 470.106445312 217.3515625 477.397460938 c 0
 217.3515625 481.8359375 218.234375 486.703125 220 492.000976562 c 0
 230 526.66796875 240 566.66796875 250 612.000976562 c 0
 260 657.333984375 268.333007812 697.666992188 275 733 c 0
 276.333007812 741 279.333007812 748 284 754 c 0
 288.666992188 760 294.166992188 764.166992188 300.5 766.5 c 0
 306.833007812 768.833007812 312.833007812 770.5 318.5 771.5 c 0
 324.166992188 772.5 330 772.666992188 336 772 c 0
 341.333007812 772 346.333007812 771.333007812 351 770 c 0
 355.666992188 768.666992188 360 766.5 364 763.5 c 0
 368 760.5 370.666992188 756 372 750 c 0
 373.333007812 744 373.333007812 736.666992188 372 728 c 0
EndSplineSet
Validated: 524289
EndChar

StartChar: parenleft
Encoding: 40 40 19
Width: 590
GlyphClass: 2
Flags: HMW
HStem: -130.998 83.998<229.331 276> 733.002 81<441 481.666>
LayerCount: 2
Fore
SplineSet
296 -93 m 0
 293.333007812 -103.666992188 287.165039062 -112.665039062 277.498046875 -119.998046875 c 0
 267.831054688 -127.331054688 258.6640625 -130.998046875 249.997070312 -130.998046875 c 0
 208.6640625 -130.998046875 174.831054688 -114.998046875 148.498046875 -82.998046875 c 0
 122.165039062 -50.998046875 104.998046875 -6.6650390625 96.998046875 50.001953125 c 0
 93.4423828125 75.1875 91.6650390625 102.083984375 91.6650390625 130.693359375 c 0
 91.6650390625 166.455078125 94.4423828125 204.890625 99.998046875 246.001953125 c 0
 106.665039062 294.668945312 122.33203125 358.001953125 146.999023438 436.001953125 c 0
 171.666015625 514.001953125 198.666015625 578.334960938 227.999023438 629.001953125 c 0
 241.33203125 651.001953125 256.999023438 672.834960938 274.999023438 694.501953125 c 0
 292.999023438 716.168945312 312.666015625 736.001953125 333.999023438 754.001953125 c 0
 355.33203125 772.001953125 377.999023438 786.501953125 401.999023438 797.501953125 c 0
 425.999023438 808.501953125 448.33203125 814.001953125 468.999023438 814.001953125 c 0
 489.481445312 814.001953125 499.72265625 805.068359375 499.72265625 787.200195312 c 0
 499.72265625 782.96875 499.147460938 778.236328125 497.999023438 773.001953125 c 0
 494.666015625 759.001953125 488.333007812 748.834960938 479 742.501953125 c 0
 469.666992188 736.168945312 459.666992188 733.001953125 449 733.001953125 c 0
 433 733.001953125 416.833007812 728.001953125 400.5 718.001953125 c 0
 384.166992188 708.001953125 368.666992188 694.334960938 354 677.001953125 c 0
 339.333007812 659.668945312 325.833007812 640.668945312 313.5 620.001953125 c 0
 301.166992188 599.334960938 289.666992188 577.001953125 279 553.001953125 c 0
 263 518.334960938 246.5 470.66796875 229.5 410.000976562 c 0
 212.5 349.333984375 201 300.000976562 195 262.000976562 c 0
 190.090820312 228.727539062 187.63671875 196.235351562 187.63671875 164.5234375 c 0
 187.63671875 157.477539062 187.7578125 150.469726562 188 143.500976562 c 0
 189.333007812 105.16796875 193.5 72.16796875 200.5 44.5009765625 c 0
 207.5 16.833984375 217.166992188 -5.3330078125 229.5 -22 c 0
 241.833007812 -38.6669921875 255.333007812 -47 270 -47 c 0
 282 -47 290.333007812 -50.3330078125 295 -57 c 0
 297.512695312 -60.58984375 298.76953125 -65.7255859375 298.76953125 -72.408203125 c 0
 298.76953125 -78.1357421875 297.846679688 -85 296 -93 c 0
EndSplineSet
Validated: 524289
EndChar

StartChar: parenright
Encoding: 41 41 20
Width: 590
GlyphClass: 2
Flags: HMW
HStem: -131.005 84<135.664 142.665> 732.998 81.002<317.333 349.666>
VStem: 409.999 86.001
LayerCount: 2
Fore
SplineSet
446 246 m 0
 422 172 392.997070312 106.662109375 358.997070312 49.9951171875 c 0
 324.997070312 -6.671875 287.330078125 -51.0048828125 245.997070312 -83.0048828125 c 0
 204.6640625 -115.004882812 163.331054688 -131.004882812 121.998046875 -131.004882812 c 0
 113.331054688 -131.004882812 105.6640625 -127.337890625 98.9970703125 -120.004882812 c 0
 92.330078125 -112.671875 90.330078125 -103.671875 92.9970703125 -93.0048828125 c 0
 96.9970703125 -75.671875 102.997070312 -63.671875 110.997070312 -57.0048828125 c 0
 118.997070312 -50.337890625 129.330078125 -47.0048828125 141.997070312 -47.0048828125 c 0
 156.6640625 -47.0048828125 173.831054688 -38.671875 193.498046875 -22.0048828125 c 0
 213.165039062 -5.337890625 232.998046875 16.8291015625 252.998046875 44.49609375 c 0
 272.998046875 72.1630859375 292.665039062 105.330078125 311.998046875 143.997070312 c 0
 331.331054688 182.6640625 346.998046875 221.997070312 358.998046875 261.997070312 c 0
 370.998046875 299.997070312 382.331054688 349.330078125 392.998046875 409.997070312 c 0
 403.665039062 470.6640625 409.33203125 518.331054688 409.999023438 552.998046875 c 0
 409.999023438 576.998046875 408.499023438 599.331054688 405.499023438 619.998046875 c 0
 402.499023438 640.665039062 397.83203125 659.665039062 391.499023438 676.998046875 c 0
 385.166015625 694.331054688 376.166015625 707.998046875 364.499023438 717.998046875 c 0
 352.83203125 727.998046875 338.999023438 732.998046875 322.999023438 732.998046875 c 0
 311.666015625 732.998046875 302.999023438 736.165039062 296.999023438 742.498046875 c 0
 292.844726562 746.8828125 290.768554688 753.104492188 290.768554688 761.1640625 c 0
 290.768554688 764.745117188 291.178710938 768.690429688 291.999023438 772.998046875 c 0
 293.999023438 781.665039062 296.999023438 788.83203125 300.999023438 794.499023438 c 0
 304.999023438 800.166015625 309.33203125 804.333007812 313.999023438 807 c 0
 318.666015625 809.666992188 322.999023438 811.5 326.999023438 812.5 c 0
 330.999023438 813.5 334.999023438 814 338.999023438 814 c 0
 360.33203125 814 380.33203125 808.5 398.999023438 797.5 c 0
 417.666015625 786.5 433.499023438 772 446.499023438 754 c 0
 459.499023438 736 470.33203125 716.166992188 478.999023438 694.5 c 0
 487.666015625 672.833007812 493.333007812 651 496 629 c 0
 498.038085938 611.791992188 499.056640625 593.0078125 499.056640625 572.647460938 c 0
 499.056640625 533.057617188 495.204101562 487.508789062 487.5 436 c 0
 475.833007812 358 462 294.666992188 446 246 c 0
EndSplineSet
Validated: 524289
EndChar

StartChar: asterisk
Encoding: 42 42 21
Width: 590
GlyphClass: 2
Flags: HMW
HStem: 292.998 103.999 305.999 77<352.998 396.998>
VStem: 201.997 86.001 301.998 86
LayerCount: 2
Fore
SplineSet
198 139 m 0x70
 194 131 188.498046875 124.999023438 181.498046875 120.999023438 c 0
 174.498046875 116.999023438 167.331054688 114.666015625 159.998046875 113.999023438 c 0
 152.665039062 113.33203125 145.998046875 113.83203125 139.998046875 115.499023438 c 0
 133.998046875 117.166015625 128.998046875 119.333007812 124.998046875 122 c 0
 120.331054688 125.333007812 116.6640625 130.166015625 113.997070312 136.499023438 c 0
 111.330078125 142.83203125 110.497070312 150.665039062 111.497070312 159.998046875 c 0
 112.497070312 169.331054688 116.6640625 178.998046875 123.997070312 188.998046875 c 2
 210.997070312 297.998046875 l 1
 158.997070312 294.665039062 120.997070312 292.998046875 96.9970703125 292.998046875 c 0
 82.330078125 292.998046875 71.9970703125 298.331054688 65.9970703125 308.998046875 c 0
 61.8427734375 316.3828125 59.7666015625 324.086914062 59.7666015625 332.110351562 c 0
 59.7666015625 335.676757812 60.1767578125 339.305664062 60.9970703125 342.998046875 c 0
 61.6640625 348.998046875 63.4970703125 355.165039062 66.4970703125 361.498046875 c 0
 69.4970703125 367.831054688 73.330078125 373.831054688 77.9970703125 379.498046875 c 0
 82.6640625 385.165039062 88.6640625 389.665039062 95.9970703125 392.998046875 c 0
 103.330078125 396.331054688 110.663085938 397.6640625 117.99609375 396.997070312 c 0xb0
 145.99609375 394.330078125 187.329101562 390.997070312 241.99609375 386.997070312 c 1
 226.663085938 435.6640625 213.330078125 472.997070312 201.997070312 498.997070312 c 0
 199.330078125 506.6640625 197.997070312 514.247070312 197.997070312 521.747070312 c 0
 197.997070312 529.247070312 199.330078125 536.663085938 201.997070312 543.997070312 c 0
 207.330078125 558.6640625 215.330078125 568.331054688 225.997070312 572.998046875 c 0
 232.6640625 576.998046875 240.1640625 579.165039062 248.497070312 579.498046875 c 0
 256.830078125 579.831054688 264.830078125 577.331054688 272.497070312 571.998046875 c 0
 280.1640625 566.665039062 285.331054688 558.665039062 287.998046875 547.998046875 c 0
 291.331054688 531.998046875 300.6640625 493.665039062 315.997070312 432.998046875 c 1
 351.330078125 478.331054688 378.663085938 516.331054688 397.99609375 546.998046875 c 0
 404.663085938 557.665039062 412.830078125 565.665039062 422.497070312 570.998046875 c 0
 432.1640625 576.331054688 440.831054688 578.831054688 448.498046875 578.498046875 c 0
 456.165039062 578.165039062 462.33203125 575.665039062 466.999023438 570.998046875 c 0
 472.33203125 567.665039062 476.165039062 562.33203125 478.498046875 554.999023438 c 0
 480.831054688 547.666015625 480.831054688 538.999023438 478.498046875 528.999023438 c 0
 476.165039062 518.999023438 470.998046875 509.33203125 462.998046875 499.999023438 c 0
 435.665039062 468.666015625 404.665039062 429.666015625 369.998046875 382.999023438 c 1
 423.998046875 382.999023438 463.331054688 386.666015625 487.998046875 393.999023438 c 0
 492.665039062 395.484375 496.977539062 396.2265625 500.935546875 396.2265625 c 0
 509.416992188 396.2265625 516.271484375 392.817382812 521.499023438 385.999023438 c 0
 527.580078125 378.068359375 530.620117188 369.717773438 530.620117188 360.948242188 c 0
 530.620117188 358.66015625 530.413085938 356.34375 529.999023438 353.999023438 c 0
 528.666015625 347.999023438 526.666015625 341.999023438 523.999023438 335.999023438 c 0
 521.33203125 329.999023438 517.83203125 323.999023438 513.499023438 317.999023438 c 0
 509.166015625 311.999023438 503.666015625 307.33203125 496.999023438 303.999023438 c 0
 490.33203125 300.666015625 483.665039062 299.999023438 476.998046875 301.999023438 c 0
 461.998046875 304.999023438 434.997070312 306.499023438 395.99609375 306.499023438 c 0
 382.997070312 306.499023438 368.6640625 306.33203125 352.998046875 305.999023438 c 1
 388.998046875 189.999023438 l 2
 390.512695312 183.029296875 391.270507812 176.438476562 391.270507812 170.2265625 c 0
 391.270507812 162.771484375 390.1796875 155.862304688 387.998046875 149.499023438 c 0
 383.998046875 137.83203125 377.331054688 129.33203125 367.998046875 123.999023438 c 0
 361.331054688 119.999023438 352.998046875 117.666015625 342.998046875 116.999023438 c 0
 332.998046875 116.33203125 323.831054688 118.33203125 315.498046875 122.999023438 c 0
 307.165039062 127.666015625 302.665039062 135.333007812 301.998046875 146 c 0
 300.665039062 172.666992188 293.33203125 211 279.999023438 261 c 1
 236.666015625 199.666992188 209.333007812 159 198 139 c 0x70
EndSplineSet
Validated: 524289
EndChar

StartChar: plus
Encoding: 43 43 22
Width: 590
GlyphClass: 2
Flags: HMW
HStem: 356.998 84.001<239.666 265.998>
LayerCount: 2
Fore
SplineSet
297 250 m 0
 293.666992188 234.666992188 287.999023438 223.831054688 279.999023438 217.498046875 c 0
 271.999023438 211.165039062 262.666015625 207.998046875 251.999023438 207.998046875 c 0
 230.448242188 207.998046875 219.671875 216.701171875 219.671875 234.108398438 c 0
 219.671875 238.778320312 220.448242188 244.075195312 221.999023438 249.998046875 c 2
 245.999023438 356.998046875 l 1
 233.33203125 356.998046875 216.499023438 356.831054688 195.499023438 356.498046875 c 0
 174.499023438 356.165039062 160.33203125 355.998046875 152.999023438 355.998046875 c 0
 137.666015625 355.998046875 127.166015625 360.165039062 121.499023438 368.498046875 c 0
 117.645507812 374.1640625 115.71875 380.678710938 115.71875 388.041015625 c 0
 115.71875 391.505859375 116.145507812 395.158203125 116.999023438 398.998046875 c 0
 118.999023438 411.665039062 124.666015625 422.33203125 133.999023438 430.999023438 c 0
 142.665039062 439.046875 154.206054688 443.0703125 168.620117188 443.0703125 c 0
 169.729492188 443.0703125 170.85546875 443.046875 171.999023438 442.999023438 c 0
 215.33203125 441.666015625 246.665039062 440.999023438 265.998046875 440.999023438 c 1
 273.998046875 474.33203125 281.331054688 510.33203125 287.998046875 548.999023438 c 0
 293.331054688 577.666015625 309.998046875 591.999023438 337.998046875 591.999023438 c 0
 350.665039062 592.666015625 360.33203125 589.999023438 366.999023438 583.999023438 c 0
 370.920898438 580.469726562 372.881835938 575.094726562 372.881835938 567.875 c 0
 372.881835938 562.8203125 371.920898438 556.862304688 369.999023438 549.999023438 c 0
 358.666015625 511.33203125 348.999023438 474.33203125 340.999023438 438.999023438 c 1
 442.999023438 438.999023438 l 2
 457.666015625 438.999023438 466.999023438 435.666015625 470.999023438 428.999023438 c 0
 474.999023438 422.33203125 476.33203125 413.33203125 474.999023438 401.999023438 c 0
 473.666015625 395.999023438 471.833007812 390.499023438 469.5 385.499023438 c 0
 467.166992188 380.499023438 464 375.666015625 460 370.999023438 c 0
 456 366.33203125 451 362.83203125 445 360.499023438 c 0
 439 358.166015625 432.333007812 357.333007812 425 358 c 0
 415.400390625 359.200195312 399.201171875 359.799804688 376.401367188 359.799804688 c 0
 361.201171875 359.799804688 343.067382812 359.533203125 322 359 c 1
 318 341 313.166992188 319.666992188 307.5 295 c 0
 301.833007812 270.333007812 298.333007812 255.333007812 297 250 c 0
EndSplineSet
Validated: 524289
EndChar

StartChar: comma
Encoding: 44 44 23
Width: 590
GlyphClass: 2
Flags: HMW
VStem: 166.501 254.999
LayerCount: 2
Fore
SplineSet
420 96 m 0
 406 63.3330078125 381.001953125 12.9990234375 345.001953125 -55.0009765625 c 0
 309.001953125 -123.000976562 283.668945312 -165.000976562 269.001953125 -181.000976562 c 0
 255.668945312 -195.000976562 240.668945312 -205.000976562 224.001953125 -211.000976562 c 0
 214.001953125 -214.600585938 205.44140625 -216.401367188 198.321289062 -216.401367188 c 0
 193.57421875 -216.401367188 189.467773438 -215.600585938 186.000976562 -214.000976562 c 0
 180.000976562 -212.000976562 175.000976562 -208.000976562 171.000976562 -202.000976562 c 0
 167.000976562 -196.000976562 165.500976562 -188.66796875 166.500976562 -180.000976562 c 0
 167.500976562 -171.333984375 172.000976562 -162.333984375 180.000976562 -153.000976562 c 0
 197.333984375 -133.000976562 225.166992188 -89.0009765625 263.5 -21.0009765625 c 0
 301.833007812 46.9990234375 326.666015625 94.33203125 337.999023438 120.999023438 c 0
 341.999023438 130.33203125 348.166015625 137.665039062 356.499023438 142.998046875 c 0
 364.83203125 148.331054688 372.83203125 150.998046875 380.499023438 150.998046875 c 0
 388.166015625 150.998046875 395.333007812 150.331054688 402 148.998046875 c 0
 410.666992188 145.665039062 417.166992188 139.33203125 421.5 129.999023438 c 0
 423.442382812 125.815429688 424.413085938 121.229492188 424.413085938 116.2421875 c 0
 424.413085938 110.103515625 422.942382812 103.356445312 420 96 c 0
EndSplineSet
Validated: 524289
EndChar

StartChar: hyphen
Encoding: 45 45 24
Width: 590
GlyphClass: 2
Flags: HMW
HStem: 243 87<186.333 192.001> 251 82<387.001 417.335>
VStem: 151.001 290.001
LayerCount: 2
Fore
SplineSet
200 330 m 0xa0
 235.333007812 330 277.501953125 330.5 326.501953125 331.5 c 0
 375.501953125 332.5 403.334960938 333 410.001953125 333 c 0
 424.668945312 333 434.001953125 329.5 438.001953125 322.5 c 0
 442.001953125 315.5 443.001953125 306.333007812 441.001953125 295 c 0
 434.334960938 265.666992188 417.66796875 251 391.000976562 251 c 0x60
 383.000976562 251 351.500976562 249.666992188 296.500976562 247 c 0
 241.500976562 244.333007812 203.000976562 243 181.000976562 243 c 0
 159.66796875 243 149.000976562 252.172851562 149.000976562 270.51953125 c 0
 149.000976562 275.106445312 149.66796875 280.266601562 151.000976562 286 c 0
 156.333984375 315.333007812 172.666992188 330 200 330 c 0xa0
EndSplineSet
Validated: 524289
EndChar

StartChar: period
Encoding: 46 46 25
Width: 590
GlyphClass: 2
Flags: HMW
HStem: -14 153.998
VStem: 220.001 151
LayerCount: 2
Fore
SplineSet
279 -14 m 0
 275.723632812 -14.3740234375 272.572265625 -14.5615234375 269.546875 -14.5615234375 c 0
 251.018554688 -14.5615234375 237.170898438 -7.5439453125 228.001953125 6.49609375 c 0
 220.890625 17.384765625 217.334960938 29.5341796875 217.334960938 42.94140625 c 0
 217.334960938 49.6455078125 218.223632812 56.6630859375 220.000976562 63.99609375 c 0
 224.66796875 84.6630859375 236.66796875 102.330078125 256.000976562 116.997070312 c 0
 275.333984375 131.6640625 295.000976562 139.331054688 315.000976562 139.998046875 c 0
 315.979492188 140.02734375 316.946289062 140.04296875 317.901367188 140.04296875 c 0
 338.426757812 140.04296875 353.626953125 133.194335938 363.500976562 119.499023438 c 0
 370.31640625 110.044921875 373.724609375 98.923828125 373.724609375 86.1337890625 c 0
 373.724609375 79.533203125 372.81640625 72.48828125 371.000976562 64.9990234375 c 0
 366.333984375 43.666015625 355.666992188 25.8330078125 339 11.5 c 0
 322.333007812 -2.8330078125 302.333007812 -11.3330078125 279 -14 c 0
EndSplineSet
Validated: 524289
EndChar

StartChar: slash
Encoding: 47 47 26
Width: 590
GlyphClass: 2
Flags: HMW
VStem: -21 95
LayerCount: 2
Fore
SplineSet
596 676 m 0
 572 642 507.501953125 558.498046875 402.501953125 425.498046875 c 0
 297.501953125 292.498046875 233.334960938 209.998046875 210.001953125 177.998046875 c 0
 195.334960938 157.331054688 171.16796875 122.331054688 137.500976562 72.998046875 c 0
 103.833984375 23.6650390625 82.6669921875 -6.3349609375 74 -17.001953125 c 0
 60 -35.6689453125 44.5 -48.6689453125 27.5 -56.001953125 c 0
 19 -59.66796875 11.375 -61.501953125 4.625 -61.501953125 c 0
 -2.125 -61.501953125 -8 -59.66796875 -13 -56.001953125 c 0
 -19 -52.001953125 -22 -44.0654296875 -22 -32.1904296875 c 0
 -22 -28.232421875 -21.6669921875 -23.8359375 -21 -19.0029296875 c 0
 -18.3330078125 0.330078125 -10.3330078125 17.9970703125 3 33.9970703125 c 0
 131 193.997070312 241.333007812 336.330078125 334 460.997070312 c 0
 392 537.6640625 454.666992188 624.331054688 522 720.998046875 c 0
 529.333007812 731.665039062 538 739.83203125 548 745.499023438 c 0
 558 751.166015625 567 753.833007812 575 753.5 c 0
 583 753.166992188 590.666992188 751.333984375 598 748.000976562 c 0
 608 742.000976562 613 732.66796875 613 720.000976562 c 0
 613 707.333984375 607.333007812 692.666992188 596 676 c 0
EndSplineSet
Validated: 524289
EndChar

StartChar: zero
Encoding: 48 48 27
Width: 590
GlyphClass: 2
Flags: HMW
HStem: -24 83.999<191.001 202.333> 636.999 81.001<377.333 378.667>
LayerCount: 2
Fore
SplineSet
193 -24 m 0
 164.333007812 -24 138.833984375 -18.333984375 116.500976562 -7.0009765625 c 0
 94.16796875 4.33203125 76.66796875 19.9990234375 64.0009765625 39.9990234375 c 0
 51.333984375 59.9990234375 43.5009765625 84.9990234375 40.5009765625 114.999023438 c 0
 39.771484375 122.295898438 39.40625 129.770507812 39.40625 137.422851562 c 0
 39.40625 161.23046875 42.9384765625 186.755859375 50.0009765625 213.999023438 c 0
 51.333984375 220.666015625 54.833984375 237.166015625 60.5009765625 263.499023438 c 0
 66.16796875 289.83203125 70.8349609375 310.83203125 74.501953125 326.499023438 c 0
 78.1689453125 342.166015625 83.6689453125 363.833007812 91.001953125 391.5 c 0
 98.3349609375 419.166992188 105.334960938 443 112.001953125 463 c 0
 118.668945312 483 127.001953125 504.5 137.001953125 527.5 c 0
 147.001953125 550.5 157.001953125 570.666992188 167.001953125 588 c 0
 192.334960938 630 225.16796875 662.166992188 265.500976562 684.5 c 0
 305.833984375 706.833007812 351.666992188 718 403 718 c 0
 428.333007812 718 450.833007812 713.333007812 470.5 704 c 0
 490.166992188 694.666992188 506.833984375 681 520.500976562 663 c 0
 534.16796875 645 543.334960938 621.666992188 548.001953125 593 c 0
 550.1796875 579.62109375 551.26953125 565.298828125 551.26953125 550.032226562 c 0
 551.26953125 532.586914062 549.846679688 513.91015625 547.002929688 494 c 0
 541.669921875 460.666992188 534.336914062 422.833984375 525.00390625 380.500976562 c 0
 515.670898438 338.16796875 504.670898438 295.500976562 492.00390625 252.500976562 c 0
 479.336914062 209.500976562 467.669921875 176.66796875 457.002929688 154.000976562 c 0
 446.3359375 131.333984375 435.668945312 111.333984375 425.001953125 94.0009765625 c 0
 414.334960938 76.66796875 403.66796875 61.66796875 393.000976562 49.0009765625 c 0
 382.333984375 36.333984375 370.833984375 25.6669921875 358.500976562 17 c 0
 346.16796875 8.3330078125 334.16796875 1.3330078125 322.500976562 -4 c 0
 310.833984375 -9.3330078125 297.833984375 -13.5 283.500976562 -16.5 c 0
 269.16796875 -19.5 255.16796875 -21.5 241.500976562 -22.5 c 0
 227.833984375 -23.5 211.666992188 -24 193 -24 c 0
144.000976562 229.999023438 m 0
 143.333984375 227.33203125 142.500976562 223.333007812 141.500976562 218 c 0
 140.500976562 212.666992188 139.66796875 209 139.000976562 207 c 1
 250.333984375 329 354.333984375 454.333007812 451.000976562 583 c 1
 443.66796875 600.333007812 433.000976562 613.666015625 419.000976562 622.999023438 c 0
 405.000976562 632.33203125 388.333984375 636.999023438 369.000976562 636.999023438 c 0
 334.333984375 636.999023438 305.000976562 626.666015625 281.000976562 605.999023438 c 0
 257.000976562 585.33203125 235.000976562 551.999023438 215.000976562 505.999023438 c 0
 207.000976562 489.33203125 199.500976562 469.83203125 192.500976562 447.499023438 c 0
 185.500976562 425.166015625 178.500976562 398.166015625 171.500976562 366.499023438 c 0
 164.500976562 334.83203125 159.833984375 312.499023438 157.500976562 299.499023438 c 0
 155.16796875 286.499023438 150.66796875 263.33203125 144.000976562 229.999023438 c 0
373.000976562 168 m 0
 377.000976562 176 384.66796875 197.999023438 396.000976562 233.999023438 c 0
 407.333984375 269.999023438 419.000976562 311.166015625 431.000976562 357.499023438 c 0
 443.000976562 403.83203125 452.333984375 448.33203125 459.000976562 490.999023438 c 1
 358.333984375 344.33203125 251.333984375 221.33203125 138.000976562 121.999023438 c 1
 145.333984375 80.666015625 170.000976562 59.9990234375 212.000976562 59.9990234375 c 0
 228.66796875 59.9990234375 244.000976562 61.4990234375 258.000976562 64.4990234375 c 0
 272.000976562 67.4990234375 285.833984375 72.83203125 299.500976562 80.4990234375 c 0
 313.16796875 88.166015625 326.000976562 99.3330078125 338.000976562 114 c 0
 350.000976562 128.666992188 361.66796875 146.666992188 373.000976562 168 c 0
EndSplineSet
Validated: 524289
EndChar

StartChar: one
Encoding: 49 49 28
Width: 590
GlyphClass: 2
Flags: HMW
HStem: -9 85.5 -5 89<113.666 114.331>
LayerCount: 2
Fore
SplineSet
522 38 m 0x80
 519.333007812 24.6669921875 513.497070312 13.5 504.497070312 4.5 c 0
 495.497070312 -4.5 481.6640625 -9 462.997070312 -9 c 0x80
 454.997070312 -9 399.997070312 -8.3330078125 297.997070312 -7 c 0
 195.997070312 -5.6669921875 129.6640625 -5 98.9970703125 -5 c 0
 84.9970703125 -5 75.830078125 -1 71.4970703125 7 c 0
 68.814453125 11.9521484375 67.4736328125 17.7978515625 67.4736328125 24.5380859375 c 0
 67.4736328125 28.6865234375 67.9814453125 33.173828125 68.998046875 38 c 0
 71.6650390625 51.3330078125 77.33203125 62.3330078125 85.9990234375 71 c 0
 94.666015625 79.6669921875 106.333007812 84 121 84 c 0x40
 149 84 196.666992188 83.6669921875 264 83 c 1
 270 109.666992188 274.666992188 131 278 147 c 0
 278.666992188 152.333007812 282.5 170 289.5 200 c 0
 296.5 230 301.666992188 251.666992188 305 265 c 0
 308.333007812 278.333007812 314.833007812 303 324.5 339 c 0
 334.166992188 375 341.166992188 401.833007812 345.5 419.5 c 0
 349.833007812 437.166992188 357.166015625 465.166992188 367.499023438 503.5 c 0
 377.83203125 541.833007812 385.665039062 570 390.998046875 588 c 1
 335.665039062 546.666992188 296.33203125 522 272.999023438 514 c 0
 268.896484375 512.359375 264.952148438 511.5390625 261.165039062 511.5390625 c 0
 252.64453125 511.5390625 244.921875 515.692382812 237.999023438 524 c 0
 230.499023438 533 226.749023438 542 226.749023438 551 c 0
 226.749023438 554 227.166015625 557 227.999023438 560 c 0
 229.999023438 570.666992188 234.33203125 580.166992188 240.999023438 588.5 c 0
 247.666015625 596.833007812 257.666015625 605.333007812 270.999023438 614 c 0
 292.33203125 628.666992188 314.83203125 644.833984375 338.499023438 662.500976562 c 0
 362.166015625 680.16796875 379.499023438 693.000976562 390.499023438 701.000976562 c 0
 401.499023438 709.000976562 412.166015625 715.833984375 422.499023438 721.500976562 c 0
 432.83203125 727.16796875 441.665039062 730.000976562 448.998046875 730.000976562 c 0
 462.331054688 730.000976562 474.498046875 724.000976562 485.498046875 712.000976562 c 0
 494.805664062 701.846679688 499.459960938 693.125 499.459960938 685.834960938 c 0
 499.459960938 683.2109375 499.459960938 683.2109375 455.498046875 518.500976562 c 0
 430.498046875 424.833984375 416.331054688 370.000976562 412.998046875 354.000976562 c 0
 397.665039062 287.333984375 384.998046875 231.666992188 374.998046875 187 c 0
 368.998046875 162.333007812 361.665039062 126.333007812 352.998046875 79 c 1
 370.998046875 79 389.831054688 78.6669921875 409.498046875 78 c 0
 429.165039062 77.3330078125 445.33203125 76.8330078125 457.999023438 76.5 c 0
 470.666015625 76.1669921875 479.333007812 76 484 76 c 0
 501.333007812 76 512.5 72.5 517.5 65.5 c 0
 522.5 58.5 524 49.3330078125 522 38 c 0x80
EndSplineSet
Validated: 524289
EndChar

StartChar: two
Encoding: 50 50 29
Width: 590
GlyphClass: 2
Flags: HMW
HStem: -18.0049 84.0049 -12 89<403 439.501> 637.997 83.999<387.334 400.336>
LayerCount: 2
Fore
SplineSet
416 -12 m 0x60
 390 -12 357.501953125 -12.6728515625 318.501953125 -14.005859375 c 0
 279.501953125 -15.3388671875 244.834960938 -16.671875 214.501953125 -18.0048828125 c 0
 184.168945312 -19.337890625 153.501953125 -20.0048828125 122.501953125 -20.0048828125 c 0
 91.501953125 -20.0048828125 67.3349609375 -18.671875 50.001953125 -16.0048828125 c 0
 36.6689453125 -14.671875 28.8359375 -5.671875 26.5029296875 10.9951171875 c 0
 25.9765625 14.7587890625 25.712890625 18.8955078125 25.712890625 23.4072265625 c 0
 25.712890625 38.8740234375 28.8095703125 58.7373046875 35.0029296875 82.9951171875 c 0
 41.669921875 111.662109375 54.169921875 141.829101562 72.5029296875 173.49609375 c 0
 90.8359375 205.163085938 114.668945312 235.49609375 144.001953125 264.49609375 c 0
 173.334960938 293.49609375 205.001953125 316.99609375 239.001953125 334.99609375 c 0
 315.001953125 374.99609375 364.334960938 402.99609375 387.001953125 418.99609375 c 0
 417.001953125 440.329101562 438.334960938 462.99609375 451.001953125 486.99609375 c 0
 457.668945312 500.99609375 463.3359375 518.329101562 468.002929688 538.99609375 c 0
 470.78515625 551.053710938 472.176757812 561.962890625 472.176757812 571.72265625 c 0
 472.176757812 590.021484375 467.28515625 604.279296875 457.502929688 614.497070312 c 0
 442.502929688 630.1640625 417.669921875 637.997070312 383.002929688 637.997070312 c 0
 359.002929688 637.997070312 334.002929688 629.997070312 308.002929688 613.997070312 c 0
 282.002929688 597.997070312 260.669921875 580.330078125 244.002929688 560.997070312 c 0
 236.002929688 552.330078125 229.169921875 545.497070312 223.502929688 540.497070312 c 0
 217.8359375 535.497070312 212.168945312 532.6640625 206.501953125 531.997070312 c 0
 200.834960938 531.330078125 195.834960938 531.663085938 191.501953125 532.99609375 c 0
 187.168945312 534.329101562 182.001953125 536.662109375 176.001953125 539.995117188 c 0
 166.668945312 545.995117188 162.001953125 554.662109375 162.001953125 565.995117188 c 0
 162.001953125 577.328125 168.001953125 591.995117188 180.001953125 609.995117188 c 0
 189.334960938 622.662109375 201.501953125 635.329101562 216.501953125 647.99609375 c 0
 231.501953125 660.663085938 248.501953125 672.663085938 267.501953125 683.99609375 c 0
 286.501953125 695.329101562 307.668945312 704.49609375 331.001953125 711.49609375 c 0
 354.334960938 718.49609375 376.66796875 721.99609375 398.000976562 721.99609375 c 0
 465.333984375 721.99609375 512.500976562 705.329101562 539.500976562 671.99609375 c 0
 556.721679688 650.736328125 565.331054688 622.697265625 565.331054688 587.877929688 c 0
 565.331054688 568.103515625 562.5546875 546.143554688 557.000976562 521.99609375 c 0
 544.333984375 466.663085938 521.000976562 422.330078125 487.000976562 388.997070312 c 0
 461.66796875 364.330078125 420.66796875 336.997070312 364.000976562 306.997070312 c 0
 350.000976562 298.997070312 325.66796875 286.6640625 291.000976562 269.997070312 c 0
 261.000976562 254.6640625 234.500976562 235.831054688 211.500976562 213.498046875 c 0
 188.500976562 191.165039062 170.333984375 168.33203125 157.000976562 144.999023438 c 0
 143.66796875 121.666015625 133.000976562 96.3330078125 125.000976562 69 c 1
 159.000976562 67 192.000976562 66 224.000976562 66 c 0xa0
 256.000976562 66 281.16796875 66.5 299.500976562 67.5 c 0
 317.833984375 68.5 339.000976562 70 363.000976562 72 c 2
 411.000976562 76 l 2
 411.66796875 76 414.66796875 76.1669921875 420.000976562 76.5 c 0
 425.333984375 76.8330078125 428.833984375 77 430.500976562 77 c 2
 439.500976562 77 l 2
 443.833984375 77 447.000976562 76.3330078125 449.000976562 75 c 0
 451.000976562 73.6669921875 453.16796875 72 455.500976562 70 c 0
 457.833984375 68 459.500976562 65.3330078125 460.500976562 62 c 0
 461.500976562 58.6669921875 461.66796875 54.6669921875 461.000976562 50 c 0
 460.333984375 42 458.166992188 33.5 454.5 24.5 c 0
 450.833007812 15.5 445.5 7.1669921875 438.5 -0.5 c 0
 431.5 -8.1669921875 424 -12 416 -12 c 0x60
EndSplineSet
Validated: 524289
EndChar

StartChar: three
Encoding: 51 51 30
Width: 590
GlyphClass: 2
Flags: HMW
HStem: -23.9941 84<221.666 245.333> 318.006 100<250.666 257.333> 638.006 83.998<361.001 375.999>
VStem: 392.5 100
LayerCount: 2
Fore
SplineSet
485 199 m 0
 469.666992188 130.333007812 437.666992188 76.005859375 389 36.005859375 c 0
 340.333007812 -3.994140625 280.666015625 -23.994140625 209.999023438 -23.994140625 c 0
 187.999023438 -23.994140625 167.166015625 -20.494140625 147.499023438 -13.494140625 c 0
 127.83203125 -6.494140625 110.999023438 2.505859375 96.9990234375 13.505859375 c 0
 82.9990234375 24.505859375 71.33203125 36.505859375 61.9990234375 49.505859375 c 0
 52.666015625 62.505859375 46.666015625 75.3388671875 43.9990234375 88.005859375 c 0
 42.666015625 94.138671875 41.9990234375 100.059570312 41.9990234375 105.765625 c 0
 41.9990234375 114.326171875 43.4990234375 122.405273438 46.4990234375 130.005859375 c 0
 51.4990234375 142.672851562 59.666015625 151.672851562 70.9990234375 157.005859375 c 0
 80.654296875 161.603515625 89.2783203125 163.90234375 96.8720703125 163.90234375 c 0
 100.290039062 163.90234375 103.499023438 163.436523438 106.499023438 162.505859375 c 0
 116.166015625 159.505859375 124.333007812 151.005859375 131 137.005859375 c 0
 140.333007812 117.005859375 153.666015625 99.1728515625 170.999023438 83.505859375 c 0
 188.33203125 67.8388671875 209.33203125 60.005859375 233.999023438 60.005859375 c 0
 270.666015625 60.005859375 303.666015625 71.3388671875 332.999023438 94.005859375 c 0
 362.33203125 116.672851562 380.999023438 146.005859375 388.999023438 182.005859375 c 0
 392.110351562 196.673828125 393.666015625 210.0078125 393.666015625 222.008789062 c 0
 393.666015625 228.0078125 393.27734375 233.672851562 392.5 239.005859375 c 0
 390.166992188 255.005859375 383.666992188 269.005859375 373 281.005859375 c 0
 362.333007812 293.005859375 345.833007812 302.172851562 323.5 308.505859375 c 0
 301.166992188 314.838867188 273.666992188 318.005859375 241 318.005859375 c 0
 228.333007812 318.005859375 218.666015625 323.505859375 211.999023438 334.505859375 c 0
 207.553710938 341.83984375 205.33203125 349.692382812 205.33203125 358.0625 c 0
 205.33203125 362.248046875 205.88671875 366.561523438 206.998046875 371.005859375 c 0
 210.331054688 385.005859375 216.331054688 396.338867188 224.998046875 405.005859375 c 0
 233.665039062 413.672851562 244.33203125 418.005859375 256.999023438 418.005859375 c 0
 308.999023438 418.005859375 352.499023438 429.172851562 387.499023438 451.505859375 c 0
 422.499023438 473.838867188 444.33203125 506.338867188 452.999023438 549.005859375 c 0
 455.55859375 558.60546875 456.838867188 567.420898438 456.838867188 575.450195312 c 0
 456.838867188 592.513671875 451.05859375 606.032226562 439.499023438 616.005859375 c 0
 422.499023438 630.672851562 394.999023438 638.005859375 356.999023438 638.005859375 c 0
 349.666015625 638.005859375 342.499023438 637.172851562 335.499023438 635.505859375 c 0
 328.499023438 633.838867188 322.499023438 632.171875 317.499023438 630.504882812 c 0
 312.499023438 628.837890625 306.999023438 626.004882812 300.999023438 622.004882812 c 0
 294.999023438 618.004882812 290.166015625 614.671875 286.499023438 612.004882812 c 0
 282.83203125 609.337890625 277.999023438 605.004882812 271.999023438 599.004882812 c 2
 259.499023438 586.504882812 l 2
 257.166015625 584.171875 252.999023438 579.338867188 246.999023438 572.005859375 c 0
 233.666015625 557.338867188 221.499023438 548.671875 210.499023438 546.004882812 c 0
 207.356445312 545.243164062 204.25390625 544.862304688 201.192382812 544.862304688 c 0
 193.5390625 544.862304688 186.141601562 547.243164062 178.999023438 552.004882812 c 0
 170.288085938 556.982421875 165.93359375 565.0078125 165.93359375 576.083007812 c 0
 165.93359375 588.150390625 170.974609375 603.212890625 183.000976562 622.00390625 c 0
 192.333984375 635.336914062 203.000976562 647.50390625 215.000976562 658.50390625 c 0
 227.000976562 669.50390625 240.66796875 680.00390625 256.000976562 690.00390625 c 0
 271.333984375 700.00390625 289.000976562 707.836914062 309.000976562 713.50390625 c 0
 329.000976562 719.170898438 350.000976562 722.00390625 372.000976562 722.00390625 c 0
 443.333984375 722.00390625 493.333984375 706.00390625 522.000976562 674.00390625 c 0
 540.399414062 653.466796875 549.59765625 626.614257812 549.59765625 593.4453125 c 0
 549.59765625 574.932617188 546.732421875 554.452148438 541.000976562 532.00390625 c 0
 537.000976562 512.670898438 530.833984375 495.170898438 522.500976562 479.50390625 c 0
 514.16796875 463.836914062 504.66796875 450.50390625 494.000976562 439.50390625 c 0
 483.333984375 428.50390625 471.166992188 418.836914062 457.5 410.50390625 c 0
 443.833007812 402.170898438 430.5 395.670898438 417.5 391.00390625 c 0
 404.5 386.336914062 390.666992188 382.669921875 376 380.002929688 c 1
 400 374.002929688 420 366.669921875 436 358.002929688 c 0
 452 349.3359375 465 338.168945312 475 324.501953125 c 0
 485 310.834960938 490.833007812 293.66796875 492.5 273.000976562 c 0
 492.833007812 268.8671875 493 264.573242188 493 260.119140625 c 0
 493 242.305664062 490.333007812 221.932617188 485 199 c 0
EndSplineSet
Validated: 524289
EndChar

StartChar: four
Encoding: 52 52 31
Width: 590
GlyphClass: 2
Flags: HMW
HStem: -23.001 21G<340.334 353.001> 223.999 79.999
LayerCount: 2
Fore
SplineSet
401 55 m 0
 400.333007812 33.6669921875 394.500976562 15.33203125 383.500976562 -0.0009765625 c 0
 372.500976562 -15.333984375 360.000976562 -23.0009765625 346.000976562 -23.0009765625 c 0
 334.66796875 -23.0009765625 324.66796875 -18.16796875 316.000976562 -8.5009765625 c 0
 308.489257812 -0.123046875 304.733398438 8.380859375 304.733398438 17.0087890625 c 0
 304.733398438 23.4921875 310.611328125 48.0009765625 313.499023438 59.9990234375 c 0
 317.83203125 77.9990234375 323.999023438 103.83203125 331.999023438 137.499023438 c 0
 339.999023438 171.166015625 346.666015625 199.999023438 351.999023438 223.999023438 c 1
 338.74609375 224.15625 325.954101562 224.234375 313.623046875 224.234375 c 0
 221.12890625 224.234375 154.587890625 219.822265625 113.999023438 210.999023438 c 0
 103.999023438 208.999023438 95.166015625 209.33203125 87.4990234375 211.999023438 c 0
 79.83203125 214.666015625 74.4990234375 219.333007812 71.4990234375 226 c 0
 68.4990234375 232.666992188 66.666015625 240.333984375 65.9990234375 249.000976562 c 0
 65.33203125 257.66796875 66.1650390625 266.66796875 68.498046875 276.000976562 c 0
 70.8310546875 285.333984375 74.3310546875 294.333984375 78.998046875 303.000976562 c 0
 89.6650390625 321.66796875 113.498046875 352.16796875 150.498046875 394.500976562 c 0
 187.498046875 436.833984375 234.665039062 489.166992188 291.998046875 551.5 c 0
 349.331054688 613.833007812 390.331054688 659 414.998046875 687 c 0
 426.331054688 699.666992188 437.831054688 709.166992188 449.498046875 715.5 c 0
 461.165039062 721.833007812 471.33203125 725 479.999023438 725 c 0
 482.301757812 725.2421875 484.543945312 725.36328125 486.725585938 725.36328125 c 0
 496.543945312 725.36328125 505.134765625 722.909179688 512.499023438 718 c 0
 520.877929688 712.4140625 525.068359375 703.072265625 525.068359375 689.973632812 c 0
 525.068359375 684.974609375 523.942382812 656.916992188 509 579 c 0
 499.666992188 530.333007812 491.333984375 489.166015625 484.000976562 455.499023438 c 0
 476.66796875 421.83203125 465.66796875 370.999023438 451.000976562 302.999023438 c 1
 461.66796875 302.33203125 473.66796875 301.999023438 487.000976562 301.999023438 c 0
 501.66796875 301.999023438 511.000976562 298.499023438 515.000976562 291.499023438 c 0
 519.000976562 284.499023438 520.000976562 275.33203125 518.000976562 263.999023438 c 0
 511.333984375 234.666015625 494.666992188 219.999023438 468 219.999023438 c 0
 455.333007812 219.999023438 444 220.33203125 434 220.999023438 c 1
 412 123.666015625 401 68.3330078125 401 55 c 0
432.000976562 601.998046875 m 1
 310.000976562 472.665039062 224.666992188 372.331054688 176 300.998046875 c 1
 211.239257812 303.37890625 254.302734375 304.569335938 305.190429688 304.569335938 c 0
 325.541992188 304.569335938 347.145507812 304.37890625 370 303.998046875 c 1
 398.666992188 428.665039062 419.333984375 527.998046875 432.000976562 601.998046875 c 1
EndSplineSet
Validated: 524289
EndChar

StartChar: five
Encoding: 53 53 32
Width: 590
GlyphClass: 2
Flags: HMW
HStem: -18.001 83.998<201.998 208.331> 419.997 89.0029<326.332 389> 619 88.998<526.667 558.001> 630 79.998
LayerCount: 2
Fore
SplineSet
500 296 m 0xd0
 488.666992188 246.666992188 472.6640625 202.166015625 451.997070312 162.499023438 c 0
 431.330078125 122.83203125 407.497070312 89.83203125 380.497070312 63.4990234375 c 0
 353.497070312 37.166015625 323.830078125 16.9990234375 291.497070312 2.9990234375 c 0
 259.1640625 -11.0009765625 225.6640625 -18.0009765625 190.997070312 -18.0009765625 c 0
 163.6640625 -18.0009765625 139.1640625 -15.0009765625 117.497070312 -9.0009765625 c 0
 95.830078125 -3.0009765625 78.4970703125 5.33203125 65.4970703125 15.9990234375 c 0
 52.4970703125 26.666015625 42.1640625 37.8330078125 34.4970703125 49.5 c 0
 26.830078125 61.1669921875 20.9970703125 73.333984375 16.9970703125 86.0009765625 c 0
 15.6640625 93.201171875 14.9970703125 99.8681640625 14.9970703125 106.000976562 c 0
 14.9970703125 115.201171875 16.4970703125 123.201171875 19.4970703125 130.000976562 c 0
 24.4970703125 141.333984375 33.330078125 150.000976562 45.9970703125 156.000976562 c 0
 53.9970703125 159.333984375 60.1640625 161.666992188 64.4970703125 163 c 0
 68.830078125 164.333007812 73.830078125 164.666015625 79.4970703125 163.999023438 c 0
 85.1640625 163.33203125 89.8310546875 160.665039062 93.498046875 155.998046875 c 0
 97.1650390625 151.331054688 100.665039062 144.6640625 103.998046875 135.997070312 c 0
 121.331054688 89.9970703125 153.998046875 66.6640625 201.998046875 65.9970703125 c 0
 248.665039062 65.9970703125 290.165039062 85.830078125 326.498046875 125.497070312 c 0
 362.831054688 165.1640625 388.6640625 218.331054688 403.997070312 284.998046875 c 0
 408.211914062 303.6640625 410.319335938 320.59765625 410.319335938 335.796875 c 0
 410.319335938 354.252929688 407.211914062 370.153320312 400.997070312 383.497070312 c 0
 389.6640625 407.830078125 366.331054688 419.997070312 330.998046875 419.997070312 c 0
 321.665039062 419.997070312 312.498046875 419.497070312 303.498046875 418.497070312 c 0
 294.498046875 417.497070312 286.831054688 416.1640625 280.498046875 414.497070312 c 0
 274.165039062 412.830078125 266.998046875 410.330078125 258.998046875 406.997070312 c 0
 250.998046875 403.6640625 244.998046875 400.997070312 240.998046875 398.997070312 c 0
 236.998046875 396.997070312 231.331054688 393.330078125 223.998046875 387.997070312 c 0
 216.665039062 382.6640625 211.83203125 378.997070312 209.499023438 376.997070312 c 0
 207.166015625 374.997070312 202.166015625 370.830078125 194.499023438 364.497070312 c 0
 186.83203125 358.1640625 181.999023438 354.331054688 179.999023438 352.998046875 c 0
 173.999023438 348.331054688 167.166015625 344.331054688 159.499023438 340.998046875 c 0
 151.83203125 337.665039062 143.499023438 335.498046875 134.499023438 334.498046875 c 0
 125.499023438 333.498046875 117.33203125 334.998046875 109.999023438 338.998046875 c 0
 100.666015625 343.665039062 95.166015625 353.998046875 93.4990234375 369.998046875 c 0
 93.060546875 374.208984375 92.8408203125 378.673828125 92.8408203125 383.392578125 c 0
 92.8408203125 396.603515625 94.560546875 411.805664062 97.9990234375 428.998046875 c 0
 102.666015625 452.331054688 107.999023438 474.831054688 113.999023438 496.498046875 c 0
 119.999023438 518.165039062 126.666015625 541.498046875 133.999023438 566.498046875 c 0
 141.33203125 591.498046875 145.999023438 608.665039062 147.999023438 617.998046875 c 1
 144.666015625 626.665039062 143.666015625 636.498046875 144.999023438 647.498046875 c 0
 146.33203125 658.498046875 149.33203125 668.665039062 153.999023438 677.998046875 c 0
 158.666015625 687.331054688 164.833007812 695.331054688 172.5 701.998046875 c 0
 180.166992188 708.665039062 188.333984375 711.998046875 197.000976562 711.998046875 c 0
 220.333984375 711.998046875 274.500976562 711.331054688 359.500976562 709.998046875 c 0xd0
 444.500976562 708.665039062 509.333984375 707.998046875 554.000976562 707.998046875 c 0
 562.000976562 707.998046875 567.66796875 704.331054688 571.000976562 696.998046875 c 0
 574.333984375 689.665039062 575.666992188 681.33203125 575 671.999023438 c 0
 574.333007812 662.666015625 572.666015625 653.999023438 569.999023438 645.999023438 c 0
 568.666015625 641.33203125 566.833007812 637.33203125 564.5 633.999023438 c 0
 562.166992188 630.666015625 559.333984375 628.166015625 556.000976562 626.499023438 c 0
 552.66796875 624.83203125 549.834960938 623.33203125 547.501953125 621.999023438 c 0
 545.168945312 620.666015625 541.668945312 619.833007812 537.001953125 619.5 c 0
 532.334960938 619.166992188 529.16796875 619 527.500976562 619 c 0xe0
 525.833984375 619 522.333984375 619.333007812 517.000976562 620 c 0
 511.66796875 620.666992188 508.66796875 621 508.000976562 621 c 0
 499.333984375 621 484.166992188 622 462.5 624 c 0
 440.833007812 626 421.333007812 627.5 404 628.5 c 0
 386.666992188 629.5 362.5 630 331.5 630 c 0
 300.5 630 268 629 234 627 c 1
 232 620.333007812 226.833007812 601 218.5 569 c 0
 210.166992188 537 204.166992188 513.833007812 200.5 499.5 c 0
 196.833007812 485.166992188 192.333007812 464.666992188 187 438 c 1
 209 458.666992188 236.333007812 475.666992188 269 489 c 0
 301.666992188 502.333007812 337 509 375 509 c 0
 403 509 426.666992188 503.5 446 492.5 c 0
 465.333007812 481.5 480 466.333007812 490 447 c 0
 500 427.666992188 505.833007812 405.166992188 507.5 379.5 c 0
 507.833007812 374.366210938 508 369.145507812 508 363.837890625 c 0
 508 342.611328125 505.333007812 319.999023438 500 296 c 0xd0
EndSplineSet
Validated: 524289
EndChar

StartChar: six
Encoding: 54 54 33
Width: 590
GlyphClass: 2
Flags: HMW
HStem: -21.9971 84.0049<236.665 240.333> 393.004 87.9961<318.333 393.333> 657 80.002
VStem: 58.999 82.9971 426.499 95
LayerCount: 2
Fore
SplineSet
510 246 m 0
 501.333007812 208.666992188 487.33203125 173.502929688 467.999023438 140.502929688 c 0
 448.666015625 107.502929688 426.499023438 79.169921875 401.499023438 55.5029296875 c 0
 376.499023438 31.8359375 348.499023438 13.0029296875 317.499023438 -0.9970703125 c 0
 286.499023438 -14.9970703125 255.666015625 -21.9970703125 224.999023438 -21.9970703125 c 0
 186.999023438 -21.9970703125 155.499023438 -14.1640625 130.499023438 1.5029296875 c 0
 105.499023438 17.169921875 87.166015625 39.8369140625 75.4990234375 69.50390625 c 0
 64.462890625 97.56640625 58.9453125 130.848632812 58.9453125 169.349609375 c 0
 58.9453125 171.55078125 58.962890625 173.768554688 58.9990234375 176.00390625 c 0
 59.666015625 217.336914062 66.3330078125 263.669921875 79 315.002929688 c 0
 93 372.3359375 110.333007812 424.002929688 131 470.002929688 c 0
 151.666992188 516.002929688 174.5 554.669921875 199.5 586.002929688 c 0
 224.5 617.3359375 252.333007812 643.8359375 283 665.502929688 c 0
 313.666992188 687.169921875 345.333984375 703.669921875 378.000976562 715.002929688 c 0
 410.66796875 726.3359375 446.000976562 733.668945312 484.000976562 737.001953125 c 0
 486.793945312 737.255859375 489.484375 737.3828125 492.071289062 737.3828125 c 0
 503.072265625 737.3828125 512.21484375 735.088867188 519.500976562 730.500976562 c 0
 527.879882812 725.224609375 532.0703125 716.915039062 532.0703125 705.571289062 c 0
 532.0703125 701.477539062 532.0703125 691.969726562 515 676.5 c 0
 504.333007812 666.833007812 493.666015625 660.333007812 482.999023438 657 c 0
 475.666015625 655 464.499023438 652.333007812 449.499023438 649 c 0
 434.499023438 645.666992188 421.83203125 642.5 411.499023438 639.5 c 0
 401.166015625 636.5 388.499023438 632 373.499023438 626 c 0
 358.499023438 620 342.999023438 611.333007812 326.999023438 600 c 0
 310.999023438 588.666992188 294.666015625 575 277.999023438 559 c 0
 260.666015625 541.666992188 242.833007812 518 224.5 488 c 0
 206.166992188 458 192.666992188 431.333007812 184 408 c 1
 209.333007812 432.666992188 238.666015625 451 271.999023438 463 c 0
 305.33203125 475 340.999023438 481 378.999023438 481 c 0
 407.666015625 481 432.166015625 476.666992188 452.499023438 468 c 0
 472.83203125 459.333007812 488.999023438 445.666015625 500.999023438 426.999023438 c 0
 512.999023438 408.33203125 519.83203125 383.83203125 521.499023438 353.499023438 c 0
 521.751953125 348.90234375 521.877929688 344.178710938 521.877929688 339.330078125 c 0
 521.877929688 312.178710938 517.918945312 281.069335938 510 246 c 0
143.999023438 230.002929688 m 0
 142.498046875 218.997070312 141.74609375 207.899414062 141.74609375 196.708007812 c 0
 141.74609375 192.984375 141.830078125 189.250976562 141.99609375 185.506835938 c 0
 142.663085938 170.506835938 145.330078125 155.33984375 149.997070312 140.006835938 c 0
 154.6640625 124.673828125 160.831054688 111.340820312 168.498046875 100.0078125 c 0
 176.165039062 88.6748046875 186.665039062 79.5078125 199.998046875 72.5078125 c 0
 213.331054688 65.5078125 228.331054688 62.0078125 244.998046875 62.0078125 c 0
 267.665039062 62.0078125 291.33203125 70.6748046875 315.999023438 88.0078125 c 0
 340.666015625 105.340820312 361.999023438 127.173828125 379.999023438 153.506835938 c 0
 397.999023438 179.83984375 409.999023438 206.672851562 415.999023438 234.005859375 c 0
 423.013671875 263.977539062 426.520507812 289.375 426.520507812 310.196289062 c 0
 426.520507812 333.04296875 422.297851562 350.248046875 413.999023438 362.00390625 c 0
 405.999023438 373.336914062 395.666015625 381.336914062 382.999023438 386.00390625 c 0
 370.33203125 390.670898438 353.999023438 393.00390625 333.999023438 393.00390625 c 0
 302.666015625 393.00390625 271.499023438 384.336914062 240.499023438 367.00390625 c 0
 209.499023438 349.670898438 182.33203125 327.670898438 158.999023438 301.00390625 c 1
 151.666015625 272.336914062 146.666015625 248.669921875 143.999023438 230.002929688 c 0
EndSplineSet
Validated: 524289
EndChar

StartChar: seven
Encoding: 55 55 34
Width: 590
GlyphClass: 2
Flags: HMW
HStem: 622.497 90.5
LayerCount: 2
Fore
SplineSet
112 26 m 0
 100.666992188 8.6669921875 88.162109375 -4.3359375 74.4951171875 -13.0029296875 c 0
 64.0439453125 -19.630859375 54.275390625 -22.9443359375 45.189453125 -22.9443359375 c 0
 42.3935546875 -22.9443359375 39.662109375 -22.630859375 36.9951171875 -22.0029296875 c 0
 24.328125 -18.669921875 16.828125 -10.669921875 14.4951171875 1.9970703125 c 0
 14.0537109375 4.3935546875 13.8330078125 6.837890625 13.8330078125 9.3291015625 c 0
 13.8330078125 20.0087890625 17.88671875 31.564453125 25.9951171875 43.9970703125 c 0
 73.328125 112.6640625 122.995117188 180.997070312 174.995117188 248.997070312 c 0
 226.995117188 316.997070312 269.495117188 371.1640625 302.495117188 411.497070312 c 0
 335.495117188 451.830078125 366.495117188 490.997070312 395.495117188 528.997070312 c 0
 424.495117188 566.997070312 445.328125 597.997070312 457.995117188 621.997070312 c 1
 428.903320312 623.087890625 398.622070312 623.633789062 367.149414062 623.633789062 c 0
 340.924804688 623.633789062 313.874023438 623.254882812 285.99609375 622.497070312 c 0
 224.663085938 620.830078125 183.99609375 617.330078125 163.99609375 611.997070312 c 0
 155.99609375 609.997070312 149.49609375 610.330078125 144.49609375 612.997070312 c 0
 139.49609375 615.6640625 135.829101562 619.6640625 133.49609375 624.997070312 c 0
 131.163085938 630.330078125 129.830078125 635.997070312 129.497070312 641.997070312 c 0
 129.1640625 647.997070312 129.331054688 653.997070312 129.998046875 659.997070312 c 0
 132.665039062 671.997070312 137.665039062 681.497070312 144.998046875 688.497070312 c 0
 152.331054688 695.497070312 163.998046875 700.6640625 179.998046875 703.997070312 c 0
 203.998046875 708.6640625 236.331054688 711.6640625 276.998046875 712.997070312 c 0
 297.33203125 713.6640625 316.83203125 713.997070312 335.498046875 713.997070312 c 0
 354.165039062 713.997070312 371.998046875 713.663085938 388.998046875 712.997070312 c 0
 422.998046875 711.6640625 456.165039062 710.331054688 488.498046875 708.998046875 c 0
 520.831054688 707.665039062 538.331054688 706.998046875 540.998046875 706.998046875 c 0
 547.665039062 706.998046875 553.665039062 705.498046875 558.998046875 702.498046875 c 0
 564.331054688 699.498046875 568.998046875 694.665039062 572.998046875 687.998046875 c 0
 576.998046875 681.331054688 577.831054688 672.6640625 575.498046875 661.997070312 c 0
 573.165039062 651.330078125 567.33203125 638.997070312 557.999023438 624.997070312 c 0
 544.666015625 604.997070312 521.999023438 574.830078125 489.999023438 534.497070312 c 0
 457.999023438 494.1640625 424.83203125 452.831054688 390.499023438 410.498046875 c 0
 356.166015625 368.165039062 313.333007812 311.83203125 262 241.499023438 c 0
 210.666992188 171.166015625 160.666992188 99.3330078125 112 26 c 0
EndSplineSet
Validated: 524289
EndChar

StartChar: eight
Encoding: 56 56 35
Width: 590
GlyphClass: 2
Flags: HMW
HStem: -27.9922 85.9971<225.667 230.333> 646.004 72.001<378.333 383.333>
VStem: 423.5 90.501
LayerCount: 2
Fore
SplineSet
509 204 m 0
 504.333007812 182.666992188 496.83203125 161.338867188 486.499023438 140.005859375 c 0
 476.166015625 118.672851562 462.499023438 97.83984375 445.499023438 77.5068359375 c 0
 428.499023438 57.173828125 409.166015625 39.3408203125 387.499023438 24.0078125 c 0
 365.83203125 8.6748046875 339.999023438 -3.8251953125 309.999023438 -13.4921875 c 0
 279.999023438 -23.1591796875 247.666015625 -27.9921875 212.999023438 -27.9921875 c 0
 181.666015625 -27.9921875 154.499023438 -23.3251953125 131.499023438 -13.9921875 c 0
 108.499023438 -4.6591796875 90.83203125 7.173828125 78.4990234375 21.5068359375 c 0
 66.166015625 35.83984375 56.8330078125 53.0068359375 50.5 73.0068359375 c 0
 44.4833984375 92.0078125 41.474609375 111.159179688 41.474609375 130.4609375 c 0
 41.474609375 141.575195312 42.3037109375 165.397460938 49 196.005859375 c 0
 54.3330078125 218.672851562 65.3330078125 243.005859375 82 269.005859375 c 0
 98.6669921875 295.005859375 119.666992188 319.005859375 145 341.005859375 c 0
 170.333007812 363.005859375 196.333007812 378.338867188 223 387.005859375 c 1
 193.666992188 403.672851562 173 425.505859375 161 452.505859375 c 0
 153.286132812 469.86328125 149.428710938 487.426757812 149.428710938 505.197265625 c 0
 149.428710938 515.069335938 150.619140625 525.005859375 153 535.005859375 c 0
 155 543.005859375 157.5 551.505859375 160.5 560.505859375 c 0
 163.5 569.505859375 168.333007812 580.172851562 175 592.505859375 c 0
 181.666992188 604.838867188 189.166992188 616.671875 197.5 628.004882812 c 0
 205.833007812 639.337890625 216.333007812 650.504882812 229 661.504882812 c 0
 241.666992188 672.504882812 255.5 682.171875 270.5 690.504882812 c 0
 285.5 698.837890625 303.333007812 705.504882812 324 710.504882812 c 0
 344.666992188 715.504882812 366.666992188 718.004882812 390 718.004882812 c 0
 414 718.004882812 435.166992188 715.504882812 453.5 710.504882812 c 0
 471.833007812 705.504882812 486.833007812 698.837890625 498.5 690.504882812 c 0
 510.166992188 682.171875 519.666992188 672.504882812 527 661.504882812 c 0
 534.333007812 650.504882812 539.666015625 639.337890625 542.999023438 628.004882812 c 0
 546.33203125 616.671875 548.33203125 604.671875 548.999023438 592.004882812 c 0
 549.265625 586.938476562 549.399414062 582.112304688 549.399414062 577.525390625 c 0
 549.399414062 570.64453125 549.098632812 564.3046875 548.499023438 558.50390625 c 0
 547.499023438 548.836914062 545.999023438 539.669921875 543.999023438 531.002929688 c 0
 541.999023438 523.002929688 539.166015625 515.002929688 535.499023438 507.002929688 c 0
 531.83203125 499.002929688 527.83203125 492.002929688 523.499023438 486.002929688 c 0
 519.166015625 480.002929688 513.666015625 473.669921875 506.999023438 467.002929688 c 0
 500.33203125 460.3359375 494.33203125 454.668945312 488.999023438 450.001953125 c 0
 483.666015625 445.334960938 476.833007812 440.001953125 468.5 434.001953125 c 0
 460.166992188 428.001953125 453.5 423.501953125 448.5 420.501953125 c 0
 443.5 417.501953125 436.833007812 413.334960938 428.5 408.001953125 c 0
 420.166992188 402.668945312 414.333984375 399.001953125 411.000976562 397.001953125 c 1
 431.66796875 386.334960938 449.16796875 374.334960938 463.500976562 361.001953125 c 0
 477.833984375 347.668945312 488.500976562 334.501953125 495.500976562 321.501953125 c 0
 502.500976562 308.501953125 507.500976562 294.668945312 510.500976562 280.001953125 c 0
 512.955078125 268.001953125 514.182617188 257.006835938 514.182617188 247.014648438 c 0
 514.182617188 244.793945312 514.122070312 242.623046875 514.000976562 240.500976562 c 0
 513.333984375 228.833984375 511.666992188 216.666992188 509 204 c 0
240.999023438 538.004882812 m 0
 239.600585938 532.235351562 238.901367188 526.637695312 238.901367188 521.211914062 c 0
 238.901367188 505.94921875 244.434570312 492.046875 255.500976562 479.504882812 c 0
 270.500976562 462.504882812 298.000976562 445.337890625 338.000976562 428.004882812 c 1
 366.66796875 439.337890625 393.16796875 454.670898438 417.500976562 474.00390625 c 0
 441.833984375 493.336914062 455.666992188 511.336914062 459 528.00390625 c 0
 460.713867188 536.00390625 461.571289062 543.942382812 461.571289062 551.819335938 c 0
 461.571289062 562.323242188 460.047851562 572.717773438 457 583.00390625 c 0
 451.666992188 601.00390625 441.5 616.00390625 426.5 628.00390625 c 0
 411.5 640.00390625 393.666992188 646.00390625 373 646.00390625 c 0
 344.333007812 646.00390625 316.666015625 634.836914062 289.999023438 612.50390625 c 0
 263.33203125 590.170898438 246.999023438 565.337890625 240.999023438 538.004882812 c 0
237.000976562 58.0048828125 m 0
 255.000976562 58.0048828125 273.666992188 60.8330078125 293 66.5 c 0
 312.333007812 72.1669921875 330.5 80.333984375 347.5 91.0009765625 c 0
 364.5 101.66796875 379.5 115.66796875 392.5 133.000976562 c 0
 405.5 150.333984375 414.333007812 168.666992188 419 188 c 0
 420.750976562 195.001953125 423.549804688 208.245117188 423.549804688 221.444335938 c 0
 423.549804688 230.415039062 422.200195312 240.600585938 419.5 252.001953125 c 0
 416.5 264.668945312 411.333007812 276.3359375 404 287.002929688 c 0
 396.666992188 297.669921875 385.666992188 308.836914062 371 320.50390625 c 0
 356.333007812 332.170898438 338 342.670898438 316 352.00390625 c 1
 268 339.336914062 226.666992188 317.336914062 192 286.00390625 c 0
 157.333007812 254.670898438 135.666015625 221.337890625 126.999023438 186.004882812 c 0
 124.701171875 176.557617188 123.551757812 167.453125 123.551757812 158.690429688 c 0
 123.551757812 144.573242188 126.534179688 131.344726562 132.499023438 119.004882812 c 0
 142.166015625 99.0048828125 156.333007812 83.837890625 175 73.5048828125 c 0
 193.666992188 63.171875 214.333984375 58.0048828125 237.000976562 58.0048828125 c 0
EndSplineSet
Validated: 524289
EndChar

StartChar: nine
Encoding: 57 57 36
Width: 590
GlyphClass: 2
Flags: HMW
HStem: -22 79.9961<97 97> 234.998 89<223.333 294.667> 654.995 84.0049<362.667 366.331>
LayerCount: 2
Fore
SplineSet
97 -22 m 0
 94.2041015625 -22.25390625 91.5048828125 -22.380859375 88.90234375 -22.380859375 c 0
 77.853515625 -22.380859375 68.55078125 -20.0908203125 60.9970703125 -15.50390625 c 0
 52.830078125 -10.544921875 48.7470703125 -2.90625 48.7470703125 7.412109375 c 0
 48.7470703125 14.451171875 49.5458984375 24.6025390625 65.998046875 38.9970703125 c 0
 76.6650390625 48.330078125 87.33203125 54.6630859375 97.9990234375 57.99609375 c 0
 105.33203125 59.99609375 116.999023438 62.6630859375 132.999023438 65.99609375 c 0
 148.999023438 69.3291015625 163.499023438 72.8291015625 176.499023438 76.49609375 c 0
 189.499023438 80.1630859375 204.33203125 84.99609375 220.999023438 90.99609375 c 0
 237.666015625 96.99609375 254.166015625 105.329101562 270.499023438 115.99609375 c 0
 286.83203125 126.663085938 302.999023438 139.330078125 318.999023438 153.997070312 c 0
 338.999023438 173.330078125 357.999023438 195.830078125 375.999023438 221.497070312 c 0
 393.999023438 247.1640625 407.33203125 270.331054688 415.999023438 290.998046875 c 1
 393.999023438 269.665039062 368.666015625 254.998046875 339.999023438 246.998046875 c 0
 311.33203125 238.998046875 276.999023438 234.998046875 236.999023438 234.998046875 c 0
 209.666015625 234.998046875 185.166015625 241.831054688 163.499023438 255.498046875 c 0
 141.83203125 269.165039062 124.999023438 287.33203125 112.999023438 309.999023438 c 0
 100.999023438 332.666015625 93.33203125 358.833007812 89.9990234375 388.5 c 0
 88.8876953125 398.387695312 88.3330078125 408.33203125 88.3330078125 418.331054688 c 0
 88.3330078125 438.33203125 90.5546875 458.555664062 95 479.000976562 c 0
 103.666992188 516.333984375 117.5 551.166992188 136.5 583.5 c 0
 155.5 615.833007812 177.5 643.333007812 202.5 666 c 0
 227.5 688.666992188 255.333007812 706.5 286 719.5 c 0
 316.666992188 732.5 347.333984375 739 378.000976562 739 c 0
 454.000976562 739 503.500976562 708 526.500976562 646 c 0
 536.873046875 618.0390625 542.059570312 584.586914062 542.059570312 545.643554688 c 0
 542.059570312 498.234375 534.373046875 442.686523438 519.000976562 379 c 0
 506.333984375 325.666992188 489.166992188 277.5 467.5 234.5 c 0
 445.833007812 191.5 421.666015625 155 394.999023438 125 c 0
 368.33203125 95 338.499023438 69.3330078125 305.499023438 48 c 0
 272.499023438 26.6669921875 238.83203125 10.5 204.499023438 -0.5 c 0
 170.166015625 -11.5 134.333007812 -18.6669921875 97 -22 c 0
188.997070312 490.995117188 m 0
 183.267578125 466.268554688 180.403320312 444.237304688 180.403320312 424.8984375 c 0
 180.403320312 401.482421875 184.603515625 382.015625 193.000976562 366.498046875 c 0
 208.333984375 338.165039062 237.666992188 323.998046875 281 323.998046875 c 0
 308.333007812 323.998046875 336.666015625 330.665039062 365.999023438 343.998046875 c 0
 395.33203125 357.331054688 420.33203125 375.6640625 440.999023438 398.997070312 c 1
 446.33203125 418.330078125 452.33203125 447.663085938 458.999023438 486.99609375 c 0
 460.499023438 497.99609375 461.249023438 509.088867188 461.249023438 520.276367188 c 0
 461.249023438 524.005859375 461.166015625 527.74609375 460.999023438 531.49609375 c 0
 460.33203125 546.49609375 457.665039062 561.663085938 452.998046875 576.99609375 c 0
 448.331054688 592.329101562 442.1640625 605.662109375 434.497070312 616.995117188 c 0
 426.830078125 628.328125 416.330078125 637.495117188 402.997070312 644.495117188 c 0
 389.6640625 651.495117188 374.6640625 654.995117188 357.997070312 654.995117188 c 0
 334.6640625 654.995117188 311.1640625 646.995117188 287.497070312 630.995117188 c 0
 263.830078125 614.995117188 242.997070312 594.495117188 224.997070312 569.495117188 c 0
 206.997070312 544.495117188 194.997070312 518.328125 188.997070312 490.995117188 c 0
EndSplineSet
Validated: 524289
EndChar

StartChar: colon
Encoding: 58 58 37
Width: 590
GlyphClass: 2
Flags: HMW
VStem: 199.004 192.996
LayerCount: 2
Fore
SplineSet
392 417 m 0
 388.666992188 395 381.00390625 371.6640625 369.00390625 346.997070312 c 0
 363.00390625 333.6640625 354.00390625 323.497070312 342.00390625 316.497070312 c 0
 331.047851562 310.106445312 320.924804688 306.91015625 311.635742188 306.91015625 c 0
 310.750976562 306.91015625 309.874023438 306.939453125 309.00390625 306.997070312 c 0
 275.943359375 308.80078125 259.4140625 321.442382812 259.4140625 344.924804688 c 0
 259.4140625 347.486328125 259.610351562 350.177734375 260.00390625 352.997070312 c 0
 262.670898438 370.997070312 267.337890625 393.997070312 274.004882812 421.997070312 c 0
 276.004882812 430.6640625 280.004882812 437.831054688 286.004882812 443.498046875 c 0
 292.004882812 449.165039062 298.671875 453.33203125 306.004882812 455.999023438 c 0
 313.337890625 458.666015625 320.170898438 460.333007812 326.50390625 461 c 0
 332.836914062 461.666992188 339.336914062 462 346.00390625 462 c 0
 351.336914062 462 356.669921875 461.333007812 362.002929688 460 c 0
 367.3359375 458.666992188 372.668945312 456.5 378.001953125 453.5 c 0
 383.334960938 450.5 387.16796875 445.833007812 389.500976562 439.5 c 0
 391.833984375 433.166992188 392.666992188 425.666992188 392 417 c 0
331.00390625 149.997070312 m 0
 329.670898438 126.6640625 323.004882812 102.66015625 311.004882812 77.9931640625 c 0
 305.004882812 64.66015625 295.004882812 54.8271484375 281.004882812 48.494140625 c 0
 268.338867188 42.7646484375 257.037109375 39.8994140625 247.099609375 39.8994140625 c 0
 246.052734375 39.8994140625 245.021484375 39.931640625 244.004882812 39.9951171875 c 0
 231.337890625 40.662109375 220.170898438 44.8291015625 210.50390625 52.49609375 c 0
 202.494140625 58.8486328125 198.489257812 67.375 198.489257812 78.0751953125 c 0
 198.489257812 80.2890625 198.661132812 82.595703125 199.00390625 84.99609375 c 0
 201.670898438 98.99609375 203.337890625 107.829101562 204.004882812 111.49609375 c 0
 204.671875 115.163085938 206.504882812 121.99609375 209.504882812 131.99609375 c 0
 212.504882812 141.99609375 214.671875 149.663085938 216.004882812 154.99609375 c 0
 218.004882812 162.99609375 221.837890625 169.99609375 227.504882812 175.99609375 c 0
 233.171875 181.99609375 239.504882812 186.163085938 246.504882812 188.49609375 c 0
 253.504882812 190.829101562 260.171875 192.49609375 266.504882812 193.49609375 c 0
 272.837890625 194.49609375 279.004882812 194.99609375 285.004882812 194.99609375 c 0
 292.337890625 194.99609375 299.337890625 193.829101562 306.004882812 191.49609375 c 0
 312.671875 189.163085938 318.671875 184.330078125 324.004882812 176.997070312 c 0
 329.337890625 169.6640625 331.670898438 160.6640625 331.00390625 149.997070312 c 0
EndSplineSet
Validated: 524289
EndChar

StartChar: semicolon
Encoding: 59 59 38
Width: 590
GlyphClass: 2
Flags: HMW
VStem: 146.006 300.994
LayerCount: 2
Fore
SplineSet
447 375 m 0
 443.666992188 353 435.671875 329.666015625 423.004882812 304.999023438 c 0
 417.004882812 291.666015625 408.004882812 281.499023438 396.004882812 274.499023438 c 0
 385.048828125 268.108398438 375.204101562 264.912109375 366.470703125 264.912109375 c 0
 365.638671875 264.912109375 364.81640625 264.94140625 364.004882812 264.999023438 c 0
 356.004882812 265.666015625 348.171875 267.499023438 340.504882812 270.499023438 c 0
 332.837890625 273.499023438 326.170898438 278.666015625 320.50390625 285.999023438 c 0
 314.836914062 293.33203125 312.669921875 301.999023438 314.002929688 311.999023438 c 0
 316.669921875 329.999023438 322.002929688 352.999023438 330.002929688 380.999023438 c 0
 332.002929688 388.999023438 335.8359375 395.999023438 341.502929688 401.999023438 c 0
 347.169921875 407.999023438 353.669921875 412.166015625 361.002929688 414.499023438 c 0
 368.3359375 416.83203125 375.3359375 418.499023438 382.002929688 419.499023438 c 0
 388.669921875 420.499023438 394.669921875 420.666015625 400.002929688 419.999023438 c 0
 406.002929688 419.999023438 411.669921875 419.499023438 417.002929688 418.499023438 c 0
 422.3359375 417.499023438 427.668945312 415.33203125 433.001953125 411.999023438 c 0
 438.334960938 408.666015625 442.16796875 403.833007812 444.500976562 397.5 c 0
 446.833984375 391.166992188 447.666992188 383.666992188 447 375 c 0
359.004882812 73.9990234375 m 0
 352.337890625 52.666015625 312.005859375 -34.3349609375 238.005859375 -187.001953125 c 0
 231.338867188 -201.001953125 222.838867188 -211.168945312 212.505859375 -217.501953125 c 0
 203.157226562 -223.231445312 193.9453125 -226.096679688 184.869140625 -226.096679688 c 0
 183.913085938 -226.096679688 182.958984375 -226.064453125 182.005859375 -226.000976562 c 0
 169.338867188 -225.333984375 159.005859375 -221.000976562 151.005859375 -213.000976562 c 0
 145.953125 -207.948242188 143.426757812 -201.69921875 143.426757812 -194.252929688 c 0
 143.426757812 -189.909179688 144.286132812 -185.159179688 146.005859375 -180.000976562 c 0
 150.672851562 -164.000976562 166.172851562 -125.000976562 192.505859375 -63.0009765625 c 0
 218.838867188 -1.0009765625 239.338867188 46.33203125 254.005859375 78.9990234375 c 0
 258.672851562 88.9990234375 263.505859375 96.9990234375 268.505859375 102.999023438 c 0
 273.505859375 108.999023438 278.338867188 112.999023438 283.005859375 114.999023438 c 0
 287.672851562 116.999023438 292.672851562 118.33203125 298.005859375 118.999023438 c 0
 303.338867188 119.666015625 308.005859375 119.666015625 312.005859375 118.999023438 c 0
 318.005859375 118.999023438 324.005859375 118.166015625 330.005859375 116.499023438 c 0
 336.005859375 114.83203125 341.838867188 112.499023438 347.505859375 109.499023438 c 0
 353.172851562 106.499023438 357.172851562 101.999023438 359.505859375 95.9990234375 c 0
 361.838867188 89.9990234375 361.671875 82.666015625 359.004882812 73.9990234375 c 0
EndSplineSet
Validated: 524289
EndChar

StartChar: less
Encoding: 60 60 39
Width: 590
GlyphClass: 2
Flags: W
HStem: -12.3984 21G<356.175 361.908>
LayerCount: 2
Fore
SplineSet
412 14 m 0
 407.333007812 7.3330078125 401.500976562 1.66796875 394.500976562 -2.9990234375 c 0
 387.500976562 -7.666015625 378.500976562 -10.666015625 367.500976562 -11.9990234375 c 0
 365.301757812 -12.265625 363.0546875 -12.3984375 360.76171875 -12.3984375 c 0
 351.587890625 -12.3984375 341.66796875 -10.265625 331.000976562 -5.9990234375 c 0
 317.000976562 -0.666015625 300.66796875 11.0009765625 282.000976562 29.0009765625 c 0
 263.333984375 47.0009765625 243.666992188 68.5009765625 223 93.5009765625 c 0
 202.333007812 118.500976562 182 144.000976562 162 170.000976562 c 0
 142 196.000976562 120.833007812 222.833984375 98.5 250.500976562 c 0
 76.1669921875 278.16796875 56.6669921875 299.66796875 40 315.000976562 c 0
 33.3330078125 321.000976562 30 330.000976562 30 342.000976562 c 0
 30 354.000976562 32.8330078125 365.500976562 38.5 376.500976562 c 0
 44.1669921875 387.500976562 51.333984375 395.333984375 60.0009765625 400.000976562 c 0
 101.333984375 428.000976562 150.833984375 463.16796875 208.500976562 505.500976562 c 0
 266.16796875 547.833984375 318.66796875 586.166992188 366.000976562 620.5 c 0
 413.333984375 654.833007812 454.666992188 682 490 702 c 0
 501.333007812 708.666992188 511.333007812 712.166992188 520 712.5 c 0
 528.666992188 712.833007812 535.666992188 711.166015625 541 707.499023438 c 0
 546.333007812 703.83203125 550.5 699.33203125 553.5 693.999023438 c 0
 556.5 688.666015625 558.666992188 682.999023438 560 676.999023438 c 0
 560.592773438 674.48046875 560.888671875 671.953125 560.888671875 669.41796875 c 0
 560.888671875 660.545898438 557.259765625 651.573242188 550.000976562 642.499023438 c 0
 540.66796875 630.83203125 523.66796875 616.999023438 499.000976562 600.999023438 c 0
 458.333984375 574.999023438 395.666992188 532.33203125 311 472.999023438 c 0
 226.333007812 413.666015625 172.666015625 375.999023438 149.999023438 359.999023438 c 1
 169.33203125 339.999023438 190.499023438 315.83203125 213.499023438 287.499023438 c 0
 236.499023438 259.166015625 256.499023438 233.499023438 273.499023438 210.499023438 c 0
 290.499023438 187.499023438 309.33203125 163.999023438 329.999023438 139.999023438 c 0
 350.666015625 115.999023438 369.333007812 96.9990234375 386 82.9990234375 c 0
 402.666992188 68.9990234375 413 56.83203125 417 46.4990234375 c 0
 418.412109375 42.8525390625 419.1171875 39.142578125 419.1171875 35.3720703125 c 0
 419.1171875 28.45703125 416.745117188 21.3330078125 412 14 c 0
EndSplineSet
Validated: 524289
EndChar

StartChar: equal
Encoding: 61 61 40
Width: 590
GlyphClass: 2
Flags: HMW
HStem: 246.996 83<122.332 150.999> 442.999 85.001
LayerCount: 2
Fore
SplineSet
194 528 m 0
 229.333007812 526.666992188 265.499023438 525.99609375 302.499023438 525.99609375 c 0
 339.499023438 525.99609375 374.33203125 526.329101562 406.999023438 526.99609375 c 0
 439.666015625 527.663085938 459.333007812 527.99609375 466 527.99609375 c 0
 480.666992188 527.99609375 490 524.663085938 494 517.99609375 c 0
 498 511.329101562 499 502.329101562 497 490.99609375 c 0
 495.666992188 484.99609375 494 479.49609375 492 474.49609375 c 0
 490 469.49609375 487 464.663085938 483 459.99609375 c 0
 479 455.329101562 474 451.829101562 468 449.49609375 c 0
 462 447.163085938 455.333007812 446.330078125 448 446.997070312 c 0
 433.326171875 447.442382812 417.985351562 447.6640625 401.9765625 447.6640625 c 0
 393.984375 447.6640625 385.825195312 447.609375 377.5 447.498046875 c 0
 352.5 447.165039062 318.166992188 446.33203125 274.5 444.999023438 c 0
 230.833007812 443.666015625 199 442.999023438 179 442.999023438 c 0
 163.666992188 442.999023438 152.5 446.999023438 145.5 454.999023438 c 0
 138.5 462.999023438 136.333007812 472.666015625 139 483.999023438 c 0
 141 496.666015625 146.833007812 507.333007812 156.5 516 c 0
 165.4765625 524.047851562 176.89453125 528.071289062 190.756835938 528.071289062 c 0
 191.823242188 528.071289062 192.904296875 528.047851562 194 528 c 0
150.999023438 329.99609375 m 0
 167.25 329.7734375 184.430664062 329.662109375 202.541015625 329.662109375 c 0
 238.663085938 329.662109375 278.481445312 330.10546875 321.998046875 330.993164062 c 0
 387.331054688 332.326171875 420.331054688 332.993164062 420.998046875 332.993164062 c 0
 435.665039062 332.993164062 444.998046875 329.493164062 448.998046875 322.493164062 c 0
 452.998046875 315.493164062 453.998046875 306.326171875 451.998046875 294.993164062 c 0
 450.665039062 288.993164062 448.83203125 283.493164062 446.499023438 278.493164062 c 0
 444.166015625 273.493164062 441.166015625 268.66015625 437.499023438 263.993164062 c 0
 433.83203125 259.326171875 428.999023438 255.826171875 422.999023438 253.493164062 c 0
 416.999023438 251.16015625 410.33203125 250.327148438 402.999023438 250.994140625 c 0
 388.325195312 251.439453125 372.8359375 251.661132812 356.53125 251.661132812 c 0
 348.390625 251.661132812 340.045898438 251.606445312 331.499023438 251.495117188 c 0
 305.83203125 251.162109375 270.83203125 250.329101562 226.499023438 248.99609375 c 0
 182.166015625 247.663085938 149.999023438 246.99609375 129.999023438 246.99609375 c 0
 114.666015625 246.99609375 104.166015625 251.163085938 98.4990234375 259.49609375 c 0
 94.6455078125 265.162109375 92.71875 271.676757812 92.71875 279.0390625 c 0
 92.71875 282.50390625 93.1455078125 286.15625 93.9990234375 289.99609375 c 0
 95.9990234375 301.329101562 101.999023438 310.829101562 111.999023438 318.49609375 c 0
 121.999023438 326.163085938 134.999023438 329.99609375 150.999023438 329.99609375 c 0
EndSplineSet
Validated: 524289
EndChar

StartChar: greater
Encoding: 62 62 41
Width: 590
GlyphClass: 2
Flags: W
LayerCount: 2
Fore
SplineSet
101 5 m 0
 90.3330078125 -1 80.4990234375 -4.333984375 71.4990234375 -5.0009765625 c 0
 62.4990234375 -5.66796875 55.33203125 -4.16796875 49.9990234375 -0.5009765625 c 0
 44.666015625 3.166015625 40.4990234375 7.666015625 37.4990234375 12.9990234375 c 0
 34.4990234375 18.33203125 32.33203125 23.9990234375 30.9990234375 29.9990234375 c 0
 30.40625 32.517578125 30.1103515625 35.044921875 30.1103515625 37.580078125 c 0
 30.1103515625 46.4521484375 33.7392578125 55.4248046875 40.998046875 64.4990234375 c 0
 50.3310546875 76.166015625 67.6640625 89.9990234375 92.9970703125 105.999023438 c 0
 133.6640625 131.999023438 196.1640625 174.666015625 280.497070312 233.999023438 c 0
 364.830078125 293.33203125 418.663085938 330.999023438 441.99609375 346.999023438 c 1
 422.663085938 366.999023438 401.330078125 391.166015625 377.997070312 419.499023438 c 0
 354.6640625 447.83203125 334.331054688 473.499023438 316.998046875 496.499023438 c 0
 299.665039062 519.499023438 280.83203125 542.999023438 260.499023438 566.999023438 c 0
 240.166015625 590.999023438 221.666015625 609.999023438 204.999023438 623.999023438 c 0
 188.33203125 637.999023438 177.999023438 650.166015625 173.999023438 660.499023438 c 0
 172.586914062 664.145507812 171.881835938 667.85546875 171.881835938 671.625976562 c 0
 171.881835938 678.541015625 174.25390625 685.665039062 178.999023438 692.998046875 c 0
 183.666015625 699.665039062 189.499023438 705.33203125 196.499023438 709.999023438 c 0
 203.499023438 714.666015625 212.499023438 717.666015625 223.499023438 718.999023438 c 0
 225.698242188 719.265625 227.9453125 719.3984375 230.23828125 719.3984375 c 0
 239.412109375 719.3984375 249.33203125 717.265625 259.999023438 712.999023438 c 0
 273.999023438 707.666015625 290.499023438 696.166015625 309.499023438 678.499023438 c 0
 328.499023438 660.83203125 348.166015625 639.33203125 368.499023438 613.999023438 c 0
 388.83203125 588.666015625 408.999023438 562.999023438 428.999023438 536.999023438 c 0
 448.999023438 510.999023438 470.166015625 484.33203125 492.499023438 456.999023438 c 0
 514.83203125 429.666015625 534.665039062 407.999023438 551.998046875 391.999023438 c 0
 557.998046875 385.999023438 560.831054688 376.999023438 560.498046875 364.999023438 c 0
 560.165039062 352.999023438 557.33203125 341.499023438 551.999023438 330.499023438 c 0
 546.666015625 319.499023438 539.666015625 311.666015625 530.999023438 306.999023438 c 0
 489.666015625 278.999023438 440.166015625 243.83203125 382.499023438 201.499023438 c 0
 324.83203125 159.166015625 272.33203125 120.833007812 224.999023438 86.5 c 0
 177.666015625 52.1669921875 136.333007812 25 101 5 c 0
EndSplineSet
Validated: 524289
EndChar

StartChar: question
Encoding: 63 63 42
Width: 590
GlyphClass: 2
Flags: HMW
HStem: -14.0039 153.998 637.999 84.001<320.667 333.331>
VStem: 95.001 151 170.999 95.001
LayerCount: 2
Fore
SplineSet
266 262 m 0xd0
 259.333007812 244.666992188 250.499023438 231.330078125 239.499023438 221.997070312 c 0
 232.166015625 215.775390625 223.721679688 212.6640625 214.166992188 212.6640625 c 0
 209.388671875 212.6640625 204.333007812 213.442382812 198.999023438 214.998046875 c 0
 182.999023438 219.665039062 173.666015625 228.33203125 170.999023438 240.999023438 c 0
 170.4375 243.666015625 170.157226562 246.524414062 170.157226562 249.576171875 c 0
 170.157226562 261.016601562 174.104492188 275.157226562 181.999023438 291.999023438 c 0
 190.666015625 309.999023438 200.999023438 326.999023438 212.999023438 342.999023438 c 0
 224.999023438 358.999023438 237.166015625 372.666015625 249.499023438 383.999023438 c 0
 261.83203125 395.33203125 274.665039062 406.165039062 287.998046875 416.498046875 c 0
 301.331054688 426.831054688 313.998046875 436.498046875 325.998046875 445.498046875 c 0
 337.998046875 454.498046875 349.165039062 463.665039062 359.498046875 472.998046875 c 0
 369.831054688 482.331054688 378.6640625 492.498046875 385.997070312 503.498046875 c 0
 393.330078125 514.498046875 398.330078125 526.331054688 400.997070312 538.998046875 c 0
 403.779296875 551.055664062 405.170898438 561.96484375 405.170898438 571.724609375 c 0
 405.170898438 590.0234375 400.279296875 604.28125 390.497070312 614.499023438 c 0
 375.497070312 630.166015625 350.6640625 637.999023438 315.997070312 637.999023438 c 0
 307.330078125 637.999023438 297.997070312 635.83203125 287.997070312 631.499023438 c 0
 277.997070312 627.166015625 269.330078125 622.333007812 261.997070312 617 c 0
 254.6640625 611.666992188 246.1640625 604.5 236.497070312 595.5 c 0
 226.830078125 586.5 219.330078125 578.833007812 213.997070312 572.5 c 0
 208.6640625 566.166992188 202.331054688 558.666992188 194.998046875 550 c 0
 187.665039062 541.333007812 180.83203125 534.5 174.499023438 529.5 c 0
 168.166015625 524.5 162.333007812 521.833007812 157 521.5 c 0
 151.666992188 521.166992188 146.833984375 521.5 142.500976562 522.5 c 0
 138.16796875 523.5 132.66796875 525.666992188 126.000976562 529 c 0
 116.66796875 535 112.16796875 543.666992188 112.500976562 555 c 0
 112.833984375 566.333007812 119.000976562 581 131.000976562 599 c 0
 141.000976562 613 152.333984375 626.5 165.000976562 639.5 c 0
 177.66796875 652.5 192.66796875 665.5 210.000976562 678.5 c 0
 227.333984375 691.5 246.666992188 702 268 710 c 0
 289.333007812 718 310.333007812 722 331 722 c 0
 398.333007812 722 445.5 705.333007812 472.5 672 c 0
 489.720703125 650.740234375 498.330078125 622.701171875 498.330078125 587.881835938 c 0
 498.330078125 568.107421875 495.553710938 546.147460938 490 522 c 0
 486 504 479.5 487.666992188 470.5 473 c 0
 461.5 458.333007812 451.5 445.666015625 440.5 434.999023438 c 0
 429.5 424.33203125 417.5 414.33203125 404.5 404.999023438 c 0
 391.5 395.666015625 378.333007812 386.333007812 365 377 c 0
 351.666992188 367.666992188 338.833984375 358 326.500976562 348 c 0
 314.16796875 338 302.66796875 325.5 292.000976562 310.5 c 0
 281.333984375 295.5 272.666992188 279.333007812 266 262 c 0xd0
154.999023438 -14.00390625 m 0
 151.62890625 -14.3779296875 148.390625 -14.5654296875 145.284179688 -14.5654296875 c 0
 126.263671875 -14.5654296875 112.170898438 -7.5478515625 103.001953125 6.4921875 c 0
 95.890625 17.380859375 92.3349609375 29.5302734375 92.3349609375 42.9375 c 0
 92.3349609375 49.6416015625 93.2236328125 56.6591796875 95.0009765625 63.9921875 c 0
 99.66796875 84.6591796875 111.66796875 102.326171875 131.000976562 116.993164062 c 0
 150.333984375 131.66015625 170.000976562 139.327148438 190.000976562 139.994140625 c 0
 190.979492188 140.0234375 191.946289062 140.0390625 192.901367188 140.0390625 c 0
 213.426757812 140.0390625 228.626953125 133.190429688 238.500976562 119.495117188 c 0
 245.31640625 110.041015625 248.724609375 98.919921875 248.724609375 86.1298828125 c 0
 248.724609375 79.529296875 247.81640625 72.484375 246.000976562 64.9951171875 c 0xe0
 241.333984375 43.662109375 230.666992188 25.8291015625 214 11.49609375 c 0
 197.333007812 -2.8369140625 177.666015625 -11.3369140625 154.999023438 -14.00390625 c 0
EndSplineSet
Validated: 524289
EndChar

StartChar: at
Encoding: 64 64 43
Width: 590
GlyphClass: 2
Flags: HMW
HStem: -129 84.9961<174.673 223.004> 102.002 77.9951<375.673 418.671> 118.002 79.9941<256.671 265.006> 612.994 90.0078<388.337 392.006>
VStem: 24.5039 85.501 341.005 81 491.506 75.499
LayerCount: 2
Fore
SplineSet
422 5 m 0xde
 416.666992188 -4.3330078125 411.340820312 -12.5009765625 406.0078125 -19.5009765625 c 0
 400.674804688 -26.5009765625 394.0078125 -35.16796875 386.0078125 -45.5009765625 c 0
 378.0078125 -55.833984375 369.674804688 -64.6669921875 361.0078125 -72 c 0
 352.340820312 -79.3330078125 342.0078125 -86.8330078125 330.0078125 -94.5 c 0
 318.0078125 -102.166992188 305.340820312 -108.5 292.0078125 -113.5 c 0
 278.674804688 -118.5 263.174804688 -122.5 245.5078125 -125.5 c 0
 231.053710938 -127.954101562 216.264648438 -129.181640625 201.140625 -129.181640625 c 0
 197.779296875 -129.181640625 194.401367188 -129.12109375 191.006835938 -129 c 0
 158.33984375 -129 129.672851562 -120.333007812 105.005859375 -103 c 0
 80.3388671875 -85.6669921875 61.171875 -61.5 47.5048828125 -30.5 c 0
 33.837890625 0.5 26.1708984375 38.1669921875 24.50390625 82.5 c 0
 24.30078125 87.9072265625 24.19921875 93.3759765625 24.19921875 98.9072265625 c 0
 24.19921875 138.725585938 29.4677734375 181.756835938 40.00390625 228 c 0
 54.00390625 286.666992188 71.00390625 341.333984375 91.00390625 392.000976562 c 0
 111.00390625 442.66796875 133.170898438 486.834960938 157.50390625 524.501953125 c 0
 181.836914062 562.168945312 207.50390625 594.501953125 234.50390625 621.501953125 c 0
 261.50390625 648.501953125 289.336914062 668.834960938 318.00390625 682.501953125 c 0
 346.670898438 696.168945312 374.670898438 703.001953125 402.00390625 703.001953125 c 0
 422.670898438 703.001953125 441.170898438 701.168945312 457.50390625 697.501953125 c 0
 473.836914062 693.834960938 489.00390625 687.834960938 503.00390625 679.501953125 c 0
 517.00390625 671.168945312 528.336914062 660.001953125 537.00390625 646.001953125 c 0
 545.670898438 632.001953125 552.837890625 614.501953125 558.504882812 593.501953125 c 0
 564.171875 572.501953125 567.004882812 548.001953125 567.004882812 520.001953125 c 0
 567.004882812 492.001953125 564.337890625 459.001953125 559.004882812 421.001953125 c 0
 553.671875 383.001953125 545.671875 340.334960938 535.004882812 293.001953125 c 0
 529.671875 269.001953125 522.838867188 246.168945312 514.505859375 224.501953125 c 0
 506.172851562 202.834960938 496.33984375 182.501953125 485.006835938 163.501953125 c 0
 473.673828125 144.501953125 460.506835938 129.501953125 445.506835938 118.501953125 c 0
 430.506835938 107.501953125 414.673828125 102.001953125 398.006835938 102.001953125 c 0xde
 359.638671875 102.001953125 340.455078125 122.662109375 340.455078125 163.981445312 c 0
 340.455078125 170.764648438 340.971679688 178.104492188 342.005859375 186.001953125 c 1
 317.338867188 140.668945312 285.005859375 118.001953125 245.005859375 118.001953125 c 0
 208.338867188 118.001953125 182.671875 130.334960938 168.004882812 155.001953125 c 0
 159.938476562 168.568359375 155.904296875 186.068359375 155.904296875 207.5 c 0
 155.904296875 225.03515625 158.604492188 245.202148438 164.004882812 268.002929688 c 0
 170.004882812 293.3359375 178.004882812 316.668945312 188.004882812 338.001953125 c 0
 198.004882812 359.334960938 209.171875 377.501953125 221.504882812 392.501953125 c 0
 233.837890625 407.501953125 247.337890625 420.168945312 262.004882812 430.501953125 c 0
 276.671875 440.834960938 291.504882812 448.16796875 306.504882812 452.500976562 c 0
 319.50390625 456.255859375 332.502929688 458.133789062 345.501953125 458.133789062 c 0
 351.504882812 458 l 0
 366.504882812 457.333007812 380.671875 453.666015625 394.004882812 446.999023438 c 0
 407.337890625 440.999023438 417.004882812 432.999023438 423.004882812 422.999023438 c 0
 429.004882812 412.999023438 429.004882812 403.999023438 423.004882812 395.999023438 c 0
 419.671875 390.666015625 416.004882812 386.333007812 412.004882812 383 c 0
 408.004882812 379.666992188 403.671875 377.333984375 399.004882812 376.000976562 c 0
 394.337890625 374.66796875 390.170898438 373.66796875 386.50390625 373.000976562 c 0
 382.836914062 372.333984375 378.169921875 372.500976562 372.502929688 373.500976562 c 0
 366.8359375 374.500976562 362.502929688 375.333984375 359.502929688 376.000976562 c 0
 356.502929688 376.66796875 352.3359375 378.000976562 347.002929688 380.000976562 c 0
 339.669921875 381.333984375 331.836914062 381.666992188 323.50390625 381 c 0
 315.170898438 380.333007812 306.837890625 377.5 298.504882812 372.5 c 0
 290.171875 367.5 282.171875 361.166992188 274.504882812 353.5 c 0
 266.837890625 345.833007812 259.837890625 335.666015625 253.504882812 322.999023438 c 0
 247.171875 310.33203125 242.004882812 295.999023438 238.004882812 279.999023438 c 0
 236.004882812 271.33203125 234.671875 263.165039062 234.004882812 255.498046875 c 0
 233.337890625 247.831054688 233.170898438 239.1640625 233.50390625 229.497070312 c 0
 233.836914062 219.830078125 236.336914062 212.163085938 241.00390625 206.49609375 c 0
 245.670898438 200.829101562 252.337890625 197.99609375 261.004882812 197.99609375 c 0xbe
 280.337890625 197.99609375 296.004882812 206.163085938 308.004882812 222.49609375 c 0
 320.004882812 238.829101562 331.004882812 265.99609375 341.004882812 303.99609375 c 0
 343.671875 314.663085938 353.671875 323.330078125 371.004882812 329.997070312 c 0
 381.8125 334.2421875 391.278320312 336.365234375 399.404296875 336.365234375 c 0
 405.314453125 336.365234375 410.514648438 335.2421875 415.005859375 332.997070312 c 0
 422.338867188 329.6640625 424.671875 322.997070312 422.004882812 312.997070312 c 0
 410.004882812 277.6640625 402.671875 250.1640625 400.004882812 230.497070312 c 0
 398.671875 220.6640625 398.004882812 212.4140625 398.004882812 205.747070312 c 0
 398.004882812 199.080078125 398.671875 193.997070312 400.004882812 190.497070312 c 0
 402.671875 183.497070312 408.004882812 179.997070312 416.004882812 179.997070312 c 0
 421.337890625 179.997070312 426.837890625 184.330078125 432.504882812 192.997070312 c 0
 438.171875 201.6640625 443.338867188 212.997070312 448.005859375 226.997070312 c 0
 452.672851562 240.997070312 456.505859375 253.330078125 459.505859375 263.997070312 c 0
 462.505859375 274.6640625 465.005859375 284.997070312 467.005859375 294.997070312 c 0
 475.005859375 328.997070312 481.005859375 360.330078125 485.005859375 388.997070312 c 0
 489.005859375 417.6640625 491.172851562 442.1640625 491.505859375 462.497070312 c 0
 491.5390625 464.529296875 491.555664062 466.541015625 491.555664062 468.533203125 c 0
 491.555664062 486.474609375 490.206054688 502.794921875 487.505859375 517.49609375 c 0
 484.505859375 533.829101562 481.172851562 547.162109375 477.505859375 557.495117188 c 0
 473.838867188 567.828125 468.505859375 576.661132812 461.505859375 583.994140625 c 0
 454.505859375 591.327148438 448.172851562 596.827148438 442.505859375 600.494140625 c 0
 436.838867188 604.161132812 430.005859375 606.994140625 422.005859375 608.994140625 c 0
 414.005859375 610.994140625 408.005859375 612.161132812 404.005859375 612.494140625 c 0
 400.005859375 612.827148438 395.005859375 612.994140625 389.005859375 612.994140625 c 0
 364.338867188 612.994140625 339.171875 604.661132812 313.504882812 587.994140625 c 0
 287.837890625 571.327148438 263.504882812 548.16015625 240.504882812 518.493164062 c 0
 217.504882812 488.826171875 196.171875 451.993164062 176.504882812 407.993164062 c 0
 156.837890625 363.993164062 141.004882812 315.993164062 129.004882812 263.993164062 c 0
 118.337890625 218.66015625 112.004882812 177.827148438 110.004882812 141.494140625 c 0
 109.458984375 131.5859375 109.186523438 122.198242188 109.186523438 113.330078125 c 0
 109.186523438 89.6826171875 111.125976562 69.7373046875 115.004882812 53.4951171875 c 0
 120.337890625 31.162109375 128.170898438 12.3291015625 138.50390625 -3.00390625 c 0
 148.836914062 -18.3369140625 160.336914062 -29.00390625 173.00390625 -35.00390625 c 0
 185.670898438 -41.00390625 199.670898438 -44.00390625 215.00390625 -44.00390625 c 0
 231.00390625 -44.00390625 246.170898438 -42.3369140625 260.50390625 -39.00390625 c 0
 274.836914062 -35.6708984375 287.00390625 -31.6708984375 297.00390625 -27.00390625 c 0
 307.00390625 -22.3369140625 316.836914062 -16.00390625 326.50390625 -8.00390625 c 0
 336.170898438 -0.00390625 344.170898438 7.3291015625 350.50390625 13.99609375 c 0
 356.836914062 20.6630859375 364.00390625 29.330078125 372.00390625 39.9970703125 c 0
 375.336914062 44.6640625 378.169921875 48.3310546875 380.502929688 50.998046875 c 0
 382.8359375 53.6650390625 385.668945312 56.83203125 389.001953125 60.4990234375 c 0
 392.334960938 64.166015625 395.16796875 66.8330078125 397.500976562 68.5 c 0
 399.833984375 70.1669921875 402.500976562 71.6669921875 405.500976562 73 c 0
 408.500976562 74.3330078125 411.500976562 75 414.500976562 75 c 0
 417.500976562 75 420.333984375 74.3330078125 423.000976562 73 c 0
 427.66796875 71 431.16796875 68.5 433.500976562 65.5 c 0
 435.833984375 62.5 437.500976562 58.5 438.500976562 53.5 c 0
 439.500976562 48.5 438.66796875 41.8330078125 436.000976562 33.5 c 0
 433.333984375 25.1669921875 428.666992188 15.6669921875 422 5 c 0xde
EndSplineSet
Validated: 524289
EndChar

StartChar: A
Encoding: 65 65 44
Width: 590
GlyphClass: 2
Flags: HMW
HStem: 251 81.0059
VStem: 446 91.501
LayerCount: 2
Fore
SplineSet
127 41 m 2
 116.333007812 20.3330078125 104.333007812 6.671875 91 0.0048828125 c 0
 83.5927734375 -3.69921875 76.69921875 -5.55078125 70.3203125 -5.55078125 c 0
 65.2177734375 -5.55078125 60.4443359375 -4.3662109375 56 -1.99609375 c 0
 45.806640625 3.6279296875 40.708984375 13.330078125 40.708984375 27.109375 c 0
 40.708984375 39.4638671875 44.806640625 55.0947265625 53 74.00390625 c 0
 61.6669921875 95.3369140625 91.6669921875 147.336914062 143 230.00390625 c 1
 135.741210938 236.225585938 132.112304688 243.456054688 132.112304688 251.694335938 c 0
 132.112304688 254.048828125 132.408203125 256.485351562 133.000976562 259.00390625 c 0
 134.333984375 268.336914062 140.333984375 277.169921875 151.000976562 285.502929688 c 0
 161.66796875 293.8359375 174.000976562 300.3359375 188.000976562 305.002929688 c 1
 308.000976562 495.669921875 396.000976562 623.002929688 452.000976562 687.002929688 c 0
 464.000976562 700.3359375 474.333984375 710.002929688 483.000976562 716.002929688 c 0
 491.66796875 722.002929688 500.334960938 725.002929688 509.001953125 725.002929688 c 0
 511.18359375 725.245117188 513.3046875 725.366210938 515.365234375 725.366210938 c 0
 524.637695312 725.366210938 532.68359375 722.912109375 539.501953125 718.002929688 c 0
 546.685546875 712.830078125 550.27734375 704.4375 550.27734375 692.823242188 c 0
 550.27734375 690.965820312 550.185546875 689.025390625 550.001953125 687.002929688 c 0
 543.334960938 604.3359375 538.001953125 487.168945312 534.001953125 335.501953125 c 0
 532.501953125 278.625 531.751953125 230.819335938 531.751953125 192.083984375 c 0
 531.751953125 127.528320312 533.834960938 88.16796875 538.001953125 74.0009765625 c 0
 539.588867188 67.9697265625 540.3828125 62.203125 540.3828125 56.701171875 c 0
 540.3828125 50.6474609375 539.421875 44.9140625 537.500976562 39.5009765625 c 0
 533.833984375 29.16796875 528.666992188 20.5009765625 522 13.5009765625 c 0
 515.333007812 6.5009765625 508 1.333984375 500 -1.9990234375 c 0
 494.208984375 -4.4365234375 488.663085938 -5.65625 483.359375 -5.65625 c 0
 477.0625 -5.65625 471.109375 -3.9365234375 465.5 -0.4990234375 c 0
 455.166992188 5.833984375 448.666992188 19.6669921875 446 41 c 0
 444.93359375 49.2666015625 444.399414062 65.4267578125 444.399414062 89.4794921875 c 0
 444.399414062 125.559570312 445.599609375 179.399414062 448 251 c 1
 368 247.666992188 295.666992188 240.666992188 231 230 c 1
 127 41 l 2
463 602.005859375 m 1
 425.666992188 557.338867188 365 462.672851562 281 318.005859375 c 1
 345.666992188 326.005859375 402.666992188 330.672851562 452 332.005859375 c 1
 463 602.005859375 l 1
EndSplineSet
Validated: 524289
EndChar

StartChar: B
Encoding: 66 66 45
Width: 590
GlyphClass: 2
Flags: HMW
HStem: -22.9961 21G<80.336 86.669> 297.005 72<269.003 273.002> 630.005 78.998<353 367.336>
LayerCount: 2
Fore
SplineSet
199 -14 m 0
 188.333007812 -14.6669921875 176.502929688 -15.662109375 163.502929688 -16.9951171875 c 0
 150.502929688 -18.328125 139.8359375 -19.328125 131.502929688 -19.9951171875 c 0
 123.169921875 -20.662109375 114.669921875 -21.3291015625 106.002929688 -21.99609375 c 0
 97.3359375 -22.6630859375 89.8359375 -22.99609375 83.5029296875 -22.99609375 c 0
 77.169921875 -22.99609375 71.669921875 -22.3291015625 67.0029296875 -20.99609375 c 2
 63.0029296875 -20.99609375 l 2
 50.3359375 -20.99609375 41.1689453125 -16.49609375 35.501953125 -7.49609375 c 0
 32.39453125 -2.560546875 30.8408203125 3.427734375 30.8408203125 10.4677734375 c 0
 30.8408203125 16.265625 31.89453125 22.7783203125 34.001953125 30.00390625 c 0
 42.6689453125 58.00390625 55.6689453125 111.336914062 73.001953125 190.00390625 c 0
 90.3349609375 268.670898438 107.334960938 349.670898438 124.001953125 433.00390625 c 0
 133.334960938 477.670898438 139.66796875 507.670898438 143.000976562 523.00390625 c 0
 146.333984375 538.336914062 151.500976562 559.00390625 158.500976562 585.00390625 c 0
 165.500976562 611.00390625 170.333984375 629.00390625 173.000976562 639.00390625 c 0
 177.66796875 657.00390625 185.500976562 670.50390625 196.500976562 679.50390625 c 0
 207.500976562 688.50390625 219.333984375 693.00390625 232.000976562 693.00390625 c 2
 235.000976562 693.00390625 l 2
 245.66796875 696.336914062 256.834960938 699.169921875 268.501953125 701.502929688 c 0
 280.168945312 703.8359375 290.668945312 705.502929688 300.001953125 706.502929688 c 0
 309.334960938 707.502929688 319.16796875 708.169921875 329.500976562 708.502929688 c 0
 339.833984375 708.8359375 347.666992188 709.002929688 353 709.002929688 c 2
 371.5 709.002929688 l 1
 382 709.002929688 l 2
 424 709.002929688 459.5 700.669921875 488.5 684.002929688 c 0
 517.5 667.3359375 538 643.168945312 550 611.501953125 c 0
 556.75 593.689453125 560.125 574.2421875 560.125 553.16015625 c 0
 560.125 536.762695312 558.083007812 519.376953125 554 501.001953125 c 0
 545.333007812 462.334960938 529.333007812 429.16796875 506 401.500976562 c 0
 482.666992188 373.833984375 455 353.666992188 423 341 c 1
 442.333007812 333.666992188 460.5 322.833984375 477.5 308.500976562 c 0
 494.5 294.16796875 507.666992188 278.16796875 517 260.500976562 c 0
 523.876953125 247.483398438 527.315429688 235.098632812 527.315429688 223.34765625 c 0
 527.315429688 219.151367188 526.876953125 215.036132812 526 211.000976562 c 0
 520.666992188 185.66796875 509 160.500976562 491 135.500976562 c 0
 473 110.500976562 450.166992188 87.66796875 422.5 67.0009765625 c 0
 394.833007812 46.333984375 361.5 28.6669921875 322.5 14 c 0
 283.5 -0.6669921875 242.333007812 -10 199 -14 c 0
362.002929688 630.004882812 m 0
 328.669921875 630.004882812 295.001953125 625.671875 261.001953125 617.004882812 c 1
 257.668945312 604.337890625 252.3359375 584.004882812 245.002929688 556.004882812 c 0
 237.669921875 528.004882812 230.169921875 498.337890625 222.502929688 467.004882812 c 0
 214.8359375 435.671875 207.3359375 403.671875 200.002929688 371.004882812 c 1
 228.669921875 369.671875 256.002929688 369.004882812 282.002929688 369.004882812 c 0
 300.669921875 369.004882812 318.169921875 370.671875 334.502929688 374.004882812 c 0
 350.8359375 377.337890625 364.8359375 381.670898438 376.502929688 387.00390625 c 0
 388.169921875 392.336914062 399.002929688 398.836914062 409.002929688 406.50390625 c 0
 419.002929688 414.170898438 427.3359375 422.00390625 434.002929688 430.00390625 c 0
 440.669921875 438.00390625 446.502929688 446.836914062 451.502929688 456.50390625 c 0
 456.502929688 466.170898438 460.3359375 474.837890625 463.002929688 482.504882812 c 0
 465.669921875 490.171875 468.002929688 498.338867188 470.002929688 507.005859375 c 0
 472.2890625 516.91015625 473.431640625 526.379882812 473.431640625 535.4140625 c 0
 473.431640625 542.189453125 472.7890625 548.719726562 471.502929688 555.005859375 c 0
 468.502929688 569.672851562 463.169921875 581.505859375 455.502929688 590.505859375 c 0
 447.8359375 599.505859375 438.502929688 607.172851562 427.502929688 613.505859375 c 0
 416.502929688 619.838867188 405.502929688 624.171875 394.502929688 626.504882812 c 0
 383.502929688 628.837890625 372.669921875 630.004882812 362.002929688 630.004882812 c 0
273.001953125 297.004882812 m 1
 227.668945312 297.004882812 198 296.670898438 184 296.00390625 c 1
 162 188.670898438 146.666992188 112.337890625 138 67.0048828125 c 1
 144.666992188 67.0048828125 155.833984375 67.337890625 171.500976562 68.0048828125 c 0
 187.16796875 68.671875 199.334960938 69.0048828125 208.001953125 69.0048828125 c 0
 236.668945312 70.337890625 264.668945312 75.6708984375 292.001953125 85.00390625 c 0
 319.334960938 94.3369140625 342.334960938 105.50390625 361.001953125 118.50390625 c 0
 379.668945312 131.50390625 395.168945312 145.170898438 407.501953125 159.50390625 c 0
 419.834960938 173.836914062 427.66796875 187.00390625 431.000976562 199.00390625 c 0
 433.000976562 207.670898438 431.500976562 216.337890625 426.500976562 225.004882812 c 0
 421.500976562 233.671875 413.333984375 242.671875 402.000976562 252.004882812 c 0
 390.66796875 261.337890625 373.834960938 270.004882812 351.501953125 278.004882812 c 0
 329.168945312 286.004882812 303.001953125 292.337890625 273.001953125 297.004882812 c 1
EndSplineSet
Validated: 524289
EndChar

StartChar: C
Encoding: 67 67 46
Width: 590
GlyphClass: 2
Flags: HMW
HStem: -31.002 90.0029<146.333 200.999> 632.001 80.9961<431.333 433.333>
VStem: 470.999 77
LayerCount: 2
Fore
SplineSet
427 64 m 0
 361.01953125 0.607421875 274.954101562 -31.0908203125 168.803710938 -31.0908203125 c 0
 165.553710938 -31.0908203125 162.286132812 -31.0615234375 158.999023438 -31.001953125 c 0
 133.666015625 -31.001953125 110.833007812 -26.3349609375 90.5 -17.001953125 c 0
 70.1669921875 -7.6689453125 53.6669921875 4.6640625 41 19.9970703125 c 0
 28.3330078125 35.330078125 18.3330078125 53.1630859375 11 73.49609375 c 0
 3.6669921875 93.8291015625 -0.3330078125 115.49609375 -1 138.49609375 c 0
 -1.06640625 140.796875 -1.099609375 143.099609375 -1.099609375 145.403320312 c 0
 -1.099609375 166.1328125 1.6005859375 186.997070312 7 207.99609375 c 0
 18.3330078125 256.663085938 33.8330078125 303.663085938 53.5 348.99609375 c 0
 73.1669921875 394.329101562 95.1669921875 435.329101562 119.5 471.99609375 c 0
 143.833007812 508.663085938 170.166015625 542.330078125 198.499023438 572.997070312 c 0
 226.83203125 603.6640625 254.999023438 629.1640625 282.999023438 649.497070312 c 0
 310.999023438 669.830078125 338.83203125 685.497070312 366.499023438 696.497070312 c 0
 394.166015625 707.497070312 419.666015625 712.997070312 442.999023438 712.997070312 c 0
 465.666015625 712.997070312 485.999023438 710.330078125 503.999023438 704.997070312 c 1
 508.666015625 714.997070312 515.166015625 723.1640625 523.499023438 729.497070312 c 0
 531.83203125 735.830078125 540.665039062 739.330078125 549.998046875 739.997070312 c 0
 560.665039062 741.997070312 570.33203125 739.497070312 578.999023438 732.497070312 c 0
 587.666015625 725.497070312 591.999023438 715.330078125 591.999023438 701.997070312 c 0
 591.999023438 691.997070312 591.33203125 682.1640625 589.999023438 672.497070312 c 0
 588.666015625 662.830078125 587.166015625 653.330078125 585.499023438 643.997070312 c 0
 583.83203125 634.6640625 582.33203125 626.997070312 580.999023438 620.997070312 c 0
 579.666015625 614.997070312 577.999023438 607.997070312 575.999023438 599.997070312 c 0
 573.999023438 591.997070312 572.666015625 586.997070312 571.999023438 584.997070312 c 0
 568.666015625 570.997070312 560.666015625 556.830078125 547.999023438 542.497070312 c 0
 535.33203125 528.1640625 523.665039062 520.331054688 512.998046875 518.998046875 c 0
 510.67578125 518.611328125 508.403320312 518.416992188 506.180664062 518.416992188 c 0
 496.918945312 518.416992188 488.524414062 521.77734375 480.998046875 528.498046875 c 0
 473.739257812 534.979492188 470.110351562 543.174804688 470.110351562 553.083007812 c 0
 470.110351562 555.915039062 470.40625 558.88671875 470.999023438 561.998046875 c 0
 472.33203125 567.331054688 476.33203125 581.331054688 482.999023438 603.998046875 c 0
 482.33203125 604.665039062 479.83203125 606.83203125 475.499023438 610.499023438 c 0
 471.166015625 614.166015625 467.999023438 616.833007812 465.999023438 618.5 c 0
 463.999023438 620.166992188 460.83203125 622.333984375 456.499023438 625.000976562 c 0
 452.166015625 627.66796875 447.999023438 629.500976562 443.999023438 630.500976562 c 0
 439.999023438 631.500976562 435.666015625 632.000976562 430.999023438 632.000976562 c 0
 411.666015625 632.000976562 389.499023438 625.333984375 364.499023438 612.000976562 c 0
 339.499023438 598.66796875 313.999023438 579.66796875 287.999023438 555.000976562 c 0
 261.999023438 530.333984375 237.166015625 502.000976562 213.499023438 470.000976562 c 0
 189.83203125 438.000976562 168.33203125 401.833984375 148.999023438 361.500976562 c 0
 129.666015625 321.16796875 115.666015625 280.66796875 106.999023438 240.000976562 c 0
 102.958007812 222.22265625 100.9375 204.688476562 100.9375 187.399414062 c 0
 100.9375 176.163085938 101.791015625 165.030273438 103.498046875 154.000976562 c 0
 107.831054688 126.000976562 117.831054688 103.16796875 133.498046875 85.5009765625 c 0
 149.165039062 67.833984375 168.33203125 59.0009765625 190.999023438 59.0009765625 c 0
 210.999023438 59.0009765625 230.999023438 61.16796875 250.999023438 65.5009765625 c 0
 270.999023438 69.833984375 289.33203125 75.5009765625 305.999023438 82.5009765625 c 0
 322.666015625 89.5009765625 337.333007812 96.5009765625 350 103.500976562 c 0
 362.666992188 110.500976562 374.666992188 118.000976562 386 126.000976562 c 0
 395.333007812 132.000976562 403.333007812 136.66796875 410 140.000976562 c 0
 416.666992188 143.333984375 423.5 145.000976562 430.5 145.000976562 c 0
 437.5 145.000976562 443.333007812 142.66796875 448 138.000976562 c 0
 454.788085938 131.212890625 458.181640625 123.631835938 458.181640625 115.256835938 c 0
 458.181640625 100.600585938 447.788085938 83.515625 427 64 c 0
EndSplineSet
Validated: 524289
EndChar

StartChar: D
Encoding: 68 68 47
Width: 590
GlyphClass: 2
Flags: HMW
HStem: -31 85.998<280.997 292.667> 694.001 20G<218.665 228.998>
LayerCount: 2
Fore
SplineSet
280 -31 m 0
 249.333007812 -31 219.49609375 -29.5 190.49609375 -26.5 c 0
 161.49609375 -23.5 138.663085938 -20 121.99609375 -16 c 0
 105.329101562 -12 90.8291015625 -8.3330078125 78.49609375 -5 c 0
 66.1630859375 -1.6669921875 58.99609375 0 56.99609375 0 c 0
 44.3291015625 0 35.162109375 4.5 29.4951171875 13.5 c 0
 26.3876953125 18.435546875 24.833984375 24.423828125 24.833984375 31.4638671875 c 0
 24.833984375 37.26171875 25.8876953125 43.7744140625 27.9951171875 51 c 0
 37.328125 83 50.9951171875 139.833007812 68.9951171875 221.5 c 0
 86.9951171875 303.166992188 105.662109375 391.666992188 124.995117188 487 c 0
 132.995117188 524.333007812 138.328125 548.833007812 140.995117188 560.5 c 0
 143.662109375 572.166992188 148.329101562 590.333984375 154.99609375 615.000976562 c 0
 161.663085938 639.66796875 165.663085938 654.66796875 166.99609375 660.000976562 c 0
 171.663085938 678.000976562 179.330078125 691.500976562 189.997070312 700.500976562 c 0
 200.6640625 709.500976562 212.331054688 714.000976562 224.998046875 714.000976562 c 0
 232.998046875 714.000976562 242.998046875 713.333984375 254.998046875 712.000976562 c 0
 266.998046875 710.66796875 282.498046875 708.000976562 301.498046875 704.000976562 c 0
 320.498046875 700.000976562 339.498046875 694.500976562 358.498046875 687.500976562 c 0
 377.498046875 680.500976562 397.331054688 670.66796875 417.998046875 658.000976562 c 0
 438.665039062 645.333984375 457.665039062 630.666992188 474.998046875 614 c 0
 492.331054688 597.333007812 508.1640625 576.5 522.497070312 551.5 c 0
 536.830078125 526.5 547.830078125 499.166992188 555.497070312 469.5 c 0
 562.55078125 442.20703125 566.077148438 410.119140625 566.077148438 373.235351562 c 0
 566.077148438 370.026367188 566.05078125 366.78125 565.997070312 363.5 c 0
 565.330078125 322.5 559.330078125 278.333007812 547.997070312 231 c 0
 542.6640625 207.666992188 534.331054688 184 522.998046875 160 c 0
 511.665039062 136 497.33203125 112.5 479.999023438 89.5 c 0
 462.666015625 66.5 443.833007812 46 423.5 28 c 0
 403.166992188 10 380.5 -4.3330078125 355.5 -15 c 0
 330.5 -25.6669921875 305.333007812 -31 280 -31 c 0
183.99609375 348 m 0
 177.99609375 319.333007812 169.1640625 276.165039062 157.497070312 218.498046875 c 0
 145.830078125 160.831054688 137.330078125 117.331054688 131.997070312 87.998046875 c 1
 154.6640625 75.998046875 179.1640625 67.498046875 205.497070312 62.498046875 c 0
 231.830078125 57.498046875 262.997070312 54.998046875 298.997070312 54.998046875 c 0
 316.330078125 54.998046875 333.997070312 61.1650390625 351.997070312 73.498046875 c 0
 369.997070312 85.8310546875 386.330078125 101.831054688 400.997070312 121.498046875 c 0
 415.6640625 141.165039062 428.6640625 162.83203125 439.997070312 186.499023438 c 0
 451.330078125 210.166015625 459.663085938 233.333007812 464.99609375 256 c 0
 472.55859375 289.063476562 476.33984375 320.0625 476.33984375 348.99609375 c 0
 476.33984375 429.743164062 446.891601562 494.411132812 387.99609375 543 c 0
 359.329101562 566.333007812 315.99609375 590.333007812 257.99609375 615 c 1
 257.99609375 616 l 1
 256.99609375 616 l 1
 255.99609375 616 l 1
 254.99609375 617 l 1
 253.99609375 617 l 1
 252.99609375 618 l 1
 251.99609375 618 l 1
 250.99609375 618 l 1
 250.99609375 619 l 1
 249.99609375 619 l 1
 248.99609375 619 l 1
 247.99609375 620 l 1
 246.99609375 620 l 1
 245.99609375 620 l 1
 245.99609375 621 l 1
 223.99609375 534.333007812 203.329101562 443.333007812 183.99609375 348 c 0
EndSplineSet
Validated: 524289
EndChar

StartChar: E
Encoding: 69 69 48
Width: 590
GlyphClass: 2
Flags: HMW
HStem: -17.498 87.4961 -6 90.4971 312.001 85.999<144.001 185.672> 332.001 80.999<458.335 490.337> 614.501 82.5
LayerCount: 2
Fore
SplineSet
393 -6 m 0x48
 391.05859375 -5.87890625 388.565429688 -5.818359375 385.51953125 -5.818359375 c 0
 371.83203125 -5.818359375 346.994140625 -7.0439453125 311.002929688 -9.498046875 c 0
 267.002929688 -12.498046875 219.002929688 -15.1650390625 167.002929688 -17.498046875 c 0
 139.001953125 -18.75390625 114.48046875 -19.3828125 93.4384765625 -19.3828125 c 0
 75.404296875 -19.3828125 59.92578125 -18.9208984375 47.0029296875 -17.998046875 c 0
 33.0029296875 -17.3310546875 20.669921875 -9.8310546875 10.0029296875 4.501953125 c 0
 1.0205078125 16.5712890625 -3.470703125 30.8876953125 -3.470703125 47.44921875 c 0
 -3.470703125 50.5546875 -3.3125 53.73828125 -2.9970703125 57.001953125 c 0
 -0.9970703125 74.3349609375 5.169921875 105.501953125 15.5029296875 150.501953125 c 0
 25.8359375 195.501953125 37.1689453125 243.334960938 49.501953125 294.001953125 c 0
 61.8349609375 344.668945312 74.3349609375 401.668945312 87.001953125 465.001953125 c 0
 95.6689453125 505.001953125 101.501953125 531.501953125 104.501953125 544.501953125 c 0
 107.501953125 557.501953125 112.334960938 576.668945312 119.001953125 602.001953125 c 0
 125.668945312 627.334960938 130.001953125 643.001953125 132.001953125 649.001953125 c 0
 136.668945312 667.001953125 144.3359375 680.668945312 155.002929688 690.001953125 c 0
 165.669921875 699.334960938 177.336914062 704.001953125 190.00390625 704.001953125 c 0
 190.881835938 704.037109375 191.744140625 704.0546875 192.591796875 704.0546875 c 0
 207.849609375 704.0546875 218.319335938 698.370117188 224.00390625 687.001953125 c 1
 260.670898438 692.334960938 302.837890625 695.66796875 350.504882812 697.000976562 c 0
 374.337890625 697.66796875 396.754882812 698.000976562 417.754882812 698.000976562 c 0
 438.754882812 698.000976562 458.337890625 697.666992188 476.504882812 697.000976562 c 0
 512.837890625 695.66796875 541.337890625 693.66796875 562.004882812 691.000976562 c 0
 576.004882812 689.000976562 585.337890625 685.000976562 590.004882812 679.000976562 c 0
 594.671875 673.000976562 595.671875 664.66796875 593.004882812 654.000976562 c 0
 591.671875 648.000976562 589.838867188 642.333984375 587.505859375 637.000976562 c 0
 585.172851562 631.66796875 582.172851562 626.834960938 578.505859375 622.501953125 c 0
 574.838867188 618.168945312 570.005859375 614.668945312 564.005859375 612.001953125 c 0
 558.005859375 609.334960938 551.005859375 608.66796875 543.005859375 610.000976562 c 0
 500.76171875 613.439453125 457.974609375 615.159179688 414.645507812 615.159179688 c 0
 399.16796875 615.159179688 383.622070312 614.939453125 368.006835938 614.500976562 c 0
 308.673828125 612.833984375 257.006835938 608.666992188 213.006835938 602 c 1
 194.33984375 532.666992188 177.672851562 464.666992188 163.005859375 398 c 1xa8
 208.338867188 398 270.671875 400.5 350.004882812 405.5 c 0
 429.337890625 410.5 473.670898438 413 483.00390625 413 c 0
 497.670898438 413 507.170898438 409.666992188 511.50390625 403 c 0
 515.836914062 396.333007812 516.669921875 387 514.002929688 375 c 0
 507.484375 346.319335938 491.405273438 331.978515625 465.765625 331.978515625 c 0
 465.182617188 331.978515625 464.594726562 331.986328125 464.001953125 332.000976562 c 0x18
 452.668945312 332.000976562 404.168945312 328.66796875 318.501953125 322.000976562 c 0
 232.834960938 315.333984375 174.66796875 312.000976562 144.000976562 312.000976562 c 1
 140.66796875 297.333984375 136.334960938 278.166992188 131.001953125 254.5 c 0
 125.668945312 230.833007812 121.168945312 210.5 117.501953125 193.5 c 0
 113.834960938 176.5 110.16796875 159 106.500976562 141 c 0
 102.833984375 123 100.166992188 108.166992188 98.5 96.5 c 0
 96.8330078125 84.8330078125 96.3330078125 76.666015625 97 71.9990234375 c 1
 105.556640625 69.2763671875 125.513671875 67.9150390625 156.872070312 67.9150390625 c 0
 179.266601562 67.9150390625 207.4765625 68.609375 241.500976562 69.998046875 c 0xa8
 323.16796875 73.3310546875 376.000976562 77.6640625 400.000976562 82.9970703125 c 0
 409.333984375 84.330078125 417.166992188 84.830078125 423.5 84.4970703125 c 0
 429.833007812 84.1640625 435 82.8310546875 439 80.498046875 c 0
 443 78.1650390625 446 75.6650390625 448 72.998046875 c 0
 450 70.3310546875 451.333007812 66.8310546875 452 62.498046875 c 0
 452.666992188 58.1650390625 453 54.33203125 453 50.9990234375 c 0
 453 47.666015625 452.666992188 44.3330078125 452 41 c 0
 449.333007812 28.3330078125 442.833007812 17 432.5 7 c 0
 423.3828125 -1.8232421875 412.05859375 -6.2353515625 398.528320312 -6.2353515625 c 0
 396.724609375 -6.2353515625 394.881835938 -6.1572265625 393 -6 c 0x48
EndSplineSet
Validated: 524289
EndChar

StartChar: F
Encoding: 70 70 49
Width: 590
GlyphClass: 2
Flags: HMW
HStem: 316 86.002 619.002 86.999
LayerCount: 2
Fore
SplineSet
89 24 m 0
 84.3330078125 10 75.5 -1.166015625 62.5 -9.4990234375 c 0
 50.4638671875 -17.21484375 38.2841796875 -21.072265625 25.9619140625 -21.072265625 c 0
 24.9755859375 -21.072265625 23.98828125 -21.0478515625 23 -20.998046875 c 0
 10.3330078125 -20.998046875 1.166015625 -16.498046875 -4.5009765625 -7.498046875 c 0
 -7.6083984375 -2.5625 -9.162109375 3.42578125 -9.162109375 10.4658203125 c 0
 -9.162109375 16.263671875 -8.1083984375 22.7763671875 -6.0009765625 30.001953125 c 0
 2.666015625 59.3349609375 16.166015625 115.501953125 34.4990234375 198.501953125 c 0
 52.83203125 281.501953125 70.6650390625 367.001953125 87.998046875 455.001953125 c 0
 97.3310546875 499.668945312 103.831054688 529.668945312 107.498046875 545.001953125 c 0
 111.165039062 560.334960938 116.498046875 581.001953125 123.498046875 607.001953125 c 0
 130.498046875 633.001953125 135.331054688 650.668945312 137.998046875 660.001953125 c 0
 142.665039062 678.001953125 150.33203125 691.501953125 160.999023438 700.501953125 c 0
 171.666015625 709.501953125 183.333007812 714.001953125 196 714.001953125 c 0
 197.650390625 714.12890625 199.249023438 714.192382812 200.796875 714.192382812 c 0
 215.502929688 714.192382812 225.571289062 708.461914062 231 697.000976562 c 1
 293 701.66796875 355 704.66796875 417 706.000976562 c 0
 432.499023438 706.333984375 447.26953125 706.500976562 461.310546875 706.500976562 c 0
 503.436523438 706.500976562 538.999023438 705.000976562 568 702.000976562 c 0
 582 700.66796875 591.166992188 696.834960938 595.5 690.501953125 c 0
 599.833007812 684.168945312 601 675.3359375 599 664.002929688 c 0
 596.333007812 651.3359375 590.5 640.668945312 581.5 632.001953125 c 0
 572.5 623.334960938 560.333007812 619.001953125 545 619.001953125 c 0
 510.680664062 620.856445312 475.15234375 621.784179688 438.413085938 621.784179688 c 0
 369.528320312 621.784179688 296.390625 618.5234375 218.999023438 612.001953125 c 1
 216.33203125 600.668945312 211.665039062 582.501953125 204.998046875 557.501953125 c 0
 198.331054688 532.501953125 191.831054688 507.001953125 185.498046875 481.001953125 c 0
 179.165039062 455.001953125 172.998046875 428.668945312 166.998046875 402.001953125 c 1
 195.568359375 405.430664062 226.83203125 407.14453125 260.790039062 407.14453125 c 0
 266.451171875 407.14453125 272.1875 407.09765625 277.998046875 407.001953125 c 0
 318.665039062 406.334960938 354.998046875 404.501953125 386.998046875 401.501953125 c 0
 418.998046875 398.501953125 444.331054688 395.334960938 462.998046875 392.001953125 c 0
 476.998046875 389.334960938 486.165039062 385.001953125 490.498046875 379.001953125 c 0
 494.831054688 373.001953125 495.998046875 364.668945312 493.998046875 354.001953125 c 0
 492.665039062 348.001953125 490.83203125 342.501953125 488.499023438 337.501953125 c 0
 486.166015625 332.501953125 482.999023438 327.668945312 478.999023438 323.001953125 c 0
 474.999023438 318.334960938 470.166015625 314.834960938 464.499023438 312.501953125 c 0
 458.83203125 310.168945312 451.999023438 309.3359375 443.999023438 310.002929688 c 0
 425.999023438 313.3359375 400.33203125 316.168945312 366.999023438 318.501953125 c 0
 333.666015625 320.834960938 295.833007812 322.16796875 253.5 322.500976562 c 0
 250.680664062 322.5234375 247.892578125 322.534179688 245.13671875 322.534179688 c 0
 206.514648438 322.534179688 174.134765625 320.356445312 148 316 c 1
 112 139.333007812 92.3330078125 42 89 24 c 0
EndSplineSet
Validated: 524289
EndChar

StartChar: G
Encoding: 71 71 50
Width: 590
GlyphClass: 2
Flags: HMW
HStem: -30.9971 89.9971<148.333 199.333> 643.002 80.999<435.332 440.664>
LayerCount: 2
Fore
SplineSet
471 244 m 0
 466.333007812 230 458.666015625 213.669921875 447.999023438 195.002929688 c 0
 437.33203125 176.3359375 424.499023438 156.502929688 409.499023438 135.502929688 c 0
 394.499023438 114.502929688 377.33203125 94.169921875 357.999023438 74.5029296875 c 0
 338.666015625 54.8359375 318.666015625 37.0029296875 297.999023438 21.0029296875 c 0
 277.33203125 5.0029296875 254.83203125 -7.830078125 230.499023438 -17.4970703125 c 0
 207.736328125 -26.5400390625 185.994140625 -31.0615234375 165.2734375 -31.0615234375 c 0
 163.84375 -31.0615234375 162.418945312 -31.0400390625 160.999023438 -30.9970703125 c 0
 135.666015625 -30.9970703125 112.833007812 -26.330078125 92.5 -16.9970703125 c 0
 72.1669921875 -7.6640625 55.6669921875 4.6689453125 43 20.001953125 c 0
 30.3330078125 35.3349609375 20.3330078125 53.16796875 13 73.5009765625 c 0
 5.6669921875 93.833984375 1.6669921875 115.500976562 1 138.500976562 c 0
 0.92578125 141.057617188 0.888671875 143.616210938 0.888671875 146.177734375 c 0
 0.888671875 166.653320312 3.2587890625 187.26171875 7.9990234375 208.000976562 c 0
 19.33203125 257.333984375 35.1650390625 305.333984375 55.498046875 352.000976562 c 0
 75.8310546875 398.66796875 97.998046875 440.66796875 121.998046875 478.000976562 c 0
 145.998046875 515.333984375 172.331054688 549.500976562 200.998046875 580.500976562 c 0
 229.665039062 611.500976562 258.165039062 637.500976562 286.498046875 658.500976562 c 0
 314.831054688 679.500976562 342.831054688 695.66796875 370.498046875 707.000976562 c 0
 398.165039062 718.333984375 423.665039062 724.000976562 446.998046875 724.000976562 c 0
 472.998046875 724.000976562 500.498046875 717.500976562 529.498046875 704.500976562 c 0
 558.498046875 691.500976562 576.331054688 680.333984375 582.998046875 671.000976562 c 0
 587.874023438 664.295898438 590.3125 656.685546875 590.3125 648.169921875 c 0
 590.3125 638.056640625 586.874023438 626.666992188 579.998046875 614.000976562 c 0
 575.998046875 605.333984375 568.831054688 599.000976562 558.498046875 595.000976562 c 0
 548.165039062 591.000976562 538.665039062 591.000976562 529.998046875 595.000976562 c 0
 526.665039062 596.333984375 519.165039062 601.333984375 507.498046875 610.000976562 c 0
 495.831054688 618.66796875 483.6640625 626.334960938 470.997070312 633.001953125 c 0
 458.330078125 639.668945312 446.330078125 643.001953125 434.997070312 643.001953125 c 0
 415.6640625 643.001953125 393.331054688 636.168945312 367.998046875 622.501953125 c 0
 342.665039062 608.834960938 316.998046875 589.16796875 290.998046875 563.500976562 c 0
 264.998046875 537.833984375 239.998046875 508.666992188 215.998046875 476 c 0
 191.998046875 443.333007812 170.331054688 406.333007812 150.998046875 365 c 0
 131.665039062 323.666992188 117.33203125 282 107.999023438 240 c 0
 103.958007812 222.221679688 101.9375 204.6875 101.9375 187.3984375 c 0
 101.9375 176.162109375 102.791015625 165.029296875 104.498046875 154 c 0
 108.831054688 126 118.831054688 103.166992188 134.498046875 85.5 c 0
 150.165039062 67.8330078125 169.33203125 59 191.999023438 59 c 0
 206.666015625 59 223.166015625 64.1669921875 241.499023438 74.5 c 0
 259.83203125 84.8330078125 277.165039062 98 293.498046875 114 c 0
 309.831054688 130 325.831054688 148 341.498046875 168 c 0
 357.165039062 188 370.83203125 207.333007812 382.499023438 226 c 0
 394.166015625 244.666992188 403.666015625 262 410.999023438 278 c 1
 371.666015625 276 332.666015625 272.333007812 293.999023438 267 c 0
 255.33203125 261.666992188 227.999023438 254.666992188 211.999023438 246 c 0
 206.314453125 243.158203125 201.079101562 241.736328125 196.291992188 241.736328125 c 0
 190.973632812 241.736328125 186.209960938 243.491210938 181.999023438 247 c 0
 173.999023438 253.666992188 170.666015625 262.666992188 171.999023438 274 c 0
 173.999023438 299.333007812 190.33203125 319 220.999023438 333 c 0
 240.999023438 342.333007812 280.499023438 349.5 339.499023438 354.5 c 0
 381.641601562 358.071289062 417.237304688 359.857421875 446.28515625 359.857421875 c 0
 457.904296875 359.857421875 468.475585938 359.571289062 477.999023438 359 c 0
 493.33203125 358.333007812 503.33203125 355.5 507.999023438 350.5 c 0
 512.666015625 345.5 514.666015625 337.666992188 513.999023438 327 c 0
 511.33203125 302.333007812 501.33203125 287 483.999023438 281 c 0
 483.33203125 279 481.33203125 273.666992188 477.999023438 265 c 0
 474.666015625 256.333007812 472.333007812 249.333007812 471 244 c 0
EndSplineSet
Validated: 524289
EndChar

StartChar: H
Encoding: 72 72 51
Width: 590
GlyphClass: 2
Flags: HMW
HStem: 311.999 86.001<162.999 200.331>
LayerCount: 2
Fore
SplineSet
437 24 m 0
 432.333007812 10 423.66796875 -1.16796875 411.000976562 -9.5009765625 c 0
 399.272460938 -17.216796875 387.258789062 -21.07421875 374.959960938 -21.07421875 c 0
 373.975585938 -21.07421875 372.989257812 -21.0498046875 372.000976562 -21 c 0
 359.333984375 -21 350.166992188 -16.5 344.5 -7.5 c 0
 341.392578125 -2.564453125 339.838867188 3.423828125 339.838867188 10.4638671875 c 0
 339.838867188 16.26171875 340.892578125 22.7744140625 343 30 c 0
 370.333007812 122.666992188 397 226.666992188 423 342 c 1
 412.333007812 341.333007812 373.166015625 336.166015625 305.499023438 326.499023438 c 0
 237.83203125 316.83203125 190.33203125 311.999023438 162.999023438 311.999023438 c 0
 162.33203125 309.999023438 161.33203125 306.499023438 159.999023438 301.499023438 c 0
 158.666015625 296.499023438 157.666015625 292.999023438 156.999023438 290.999023438 c 0
 138.33203125 224.999023438 117.665039062 135.999023438 94.998046875 23.9990234375 c 0
 90.3310546875 9.9990234375 81.498046875 -1.16796875 68.498046875 -9.5009765625 c 0
 56.4619140625 -17.216796875 44.568359375 -21.07421875 32.8173828125 -21.07421875 c 0
 31.876953125 -21.07421875 30.9365234375 -21.0498046875 29.998046875 -21 c 0
 17.998046875 -21 8.8310546875 -16.5 2.498046875 -7.5 c 0
 -0.939453125 -2.6142578125 -2.6591796875 3.302734375 -2.6591796875 10.251953125 c 0
 -2.6591796875 16.1025390625 -1.439453125 22.685546875 0.998046875 30 c 0
 3.6650390625 39.3330078125 7.6650390625 54.3330078125 12.998046875 75 c 0
 18.3310546875 95.6669921875 24.998046875 123.333984375 32.998046875 158.000976562 c 0
 40.998046875 192.66796875 48.3310546875 224.000976562 54.998046875 252.000976562 c 0
 60.3310546875 274.66796875 68.498046875 307.16796875 79.498046875 349.500976562 c 0
 90.498046875 391.833984375 98.3310546875 423.166992188 102.998046875 443.5 c 2
 123.998046875 535 l 2
 129.998046875 565 133.998046875 584.166992188 135.998046875 592.5 c 0
 137.998046875 600.833007812 140.998046875 612.333007812 144.998046875 627 c 2
 153.998046875 660 l 2
 158.665039062 678 166.498046875 691.5 177.498046875 700.5 c 0
 188.498046875 709.5 200.331054688 714 212.998046875 714 c 0
 214.03515625 714.049804688 215.053710938 714.07421875 216.052734375 714.07421875 c 0
 228.53515625 714.07421875 238.016601562 710.216796875 244.498046875 702.500976562 c 0
 248.952148438 697.198242188 251.1796875 689.9375 251.1796875 680.719726562 c 0
 251.1796875 675.453125 250.452148438 669.546875 248.998046875 663.000976562 c 0
 247.665039062 656.333984375 243.498046875 642.000976562 236.498046875 620.000976562 c 0
 229.498046875 598.000976562 223.998046875 577.66796875 219.998046875 559.000976562 c 0
 215.998046875 541.66796875 210.165039062 515.16796875 202.498046875 479.500976562 c 0
 194.831054688 443.833984375 188.6640625 416.666992188 183.997070312 398 c 1
 216.6640625 398 250.6640625 400 285.997070312 404 c 0
 321.330078125 408 353.330078125 412 381.997070312 416 c 0
 410.6640625 420 430.6640625 422.666992188 441.997070312 424 c 1
 442.6640625 428.666992188 443.831054688 435.5 445.498046875 444.5 c 0
 447.165039062 453.5 448.665039062 460.333007812 449.998046875 465 c 0
 459.331054688 506.333007812 465.331054688 533.666015625 467.998046875 546.999023438 c 0
 470.665039062 560.33203125 475.665039062 580.999023438 482.998046875 608.999023438 c 0
 490.331054688 636.999023438 494.998046875 653.999023438 496.998046875 659.999023438 c 0
 501.665039062 677.999023438 509.33203125 691.499023438 519.999023438 700.499023438 c 0
 530.666015625 709.499023438 542.333007812 713.999023438 555 713.999023438 c 0
 556.037109375 714.048828125 557.055664062 714.073242188 558.0546875 714.073242188 c 0
 570.537109375 714.073242188 580.018554688 710.215820312 586.5 702.5 c 0
 590.954101562 697.197265625 593.181640625 689.936523438 593.181640625 680.71875 c 0
 593.181640625 675.452148438 592.454101562 669.545898438 591 663 c 0
 588.333007812 650.333007812 582 624.333007812 572 585 c 0
 562 545.666992188 553.5 511.166992188 546.5 481.5 c 0
 539.5 451.833007812 530 409 518 353 c 0
 508.666992188 306.333007812 494 245 474 169 c 0
 454 93 441.666992188 44.6669921875 437 24 c 0
EndSplineSet
Validated: 524289
EndChar

StartChar: I
Encoding: 73 73 52
Width: 590
GlyphClass: 2
Flags: HMW
HStem: -13.998 80.001 -6.49902 77.999 612.001 89.001 625.002 82.999<175.328 201.995 193.662 201.995 193.662 317.994>
LayerCount: 2
Fore
SplineSet
408 -11 m 0x60
 392.666992188 -8.3330078125 366.821289062 -6.83203125 330.48828125 -6.4990234375 c 0x60
 323.225585938 -6.4326171875 315.983398438 -6.3994140625 308.760742188 -6.3994140625 c 0
 279.850585938 -6.3994140625 251.259765625 -6.9326171875 222.989257812 -7.9990234375 c 0
 187.65625 -9.33203125 150.323242188 -10.6650390625 110.990234375 -11.998046875 c 0
 71.6572265625 -13.3310546875 44.32421875 -13.998046875 28.9912109375 -13.998046875 c 0
 12.9912109375 -13.998046875 1.82421875 -10.6650390625 -4.5087890625 -3.998046875 c 0
 -10.841796875 2.6689453125 -12.6748046875 11.3359375 -10.0078125 22.0029296875 c 0
 -8.0078125 34.0029296875 -2.3408203125 44.169921875 6.9921875 52.5029296875 c 0
 16.3251953125 60.8359375 28.9921875 65.3359375 44.9921875 66.0029296875 c 0
 71.6591796875 67.3359375 117.659179688 69.0029296875 182.9921875 71.0029296875 c 1
 215.659179688 185.002929688 245.326171875 305.669921875 271.993164062 433.002929688 c 0
 276.66015625 457.002929688 281.493164062 479.669921875 286.493164062 501.002929688 c 0
 291.493164062 522.3359375 294.993164062 537.668945312 296.993164062 547.001953125 c 0
 298.993164062 556.334960938 302.826171875 570.834960938 308.493164062 590.501953125 c 0
 314.16015625 610.168945312 317.327148438 621.668945312 317.994140625 625.001953125 c 1
 289.994140625 625.66796875 264.744140625 626.001953125 242.244140625 626.001953125 c 0
 219.744140625 626.001953125 199.994140625 625.66796875 182.994140625 625.001953125 c 0
 167.661132812 625.001953125 156.828125 628.668945312 150.495117188 636.001953125 c 0
 144.162109375 643.334960938 141.995117188 652.66796875 143.995117188 664.000976562 c 0
 145.995117188 676.000976562 151.995117188 686.333984375 161.995117188 695.000976562 c 0
 171.995117188 703.66796875 185.328125 708.000976562 201.995117188 708.000976562 c 0x90
 254.220703125 709.556640625 302.594726562 710.334960938 347.116210938 710.334960938 c 0
 436.1484375 710.334960938 509.775390625 707.223632812 567.995117188 701.001953125 c 0
 590.690429688 698.732421875 602.038085938 688.495117188 602.038085938 670.291015625 c 0
 602.038085938 667.104492188 601.690429688 663.674804688 600.995117188 660.000976562 c 0
 599.662109375 654.000976562 597.495117188 648.16796875 594.495117188 642.500976562 c 0
 591.495117188 636.833984375 587.828125 631.333984375 583.495117188 626.000976562 c 0
 579.162109375 620.66796875 573.662109375 616.500976562 566.995117188 613.500976562 c 0
 560.328125 610.500976562 552.995117188 610.000976562 544.995117188 612.000976562 c 0
 527.662109375 615.333984375 483.329101562 619.000976562 411.99609375 623.000976562 c 1
 410.663085938 617.66796875 406.830078125 602.66796875 400.497070312 578.000976562 c 0
 394.1640625 553.333984375 389.1640625 533.666992188 385.497070312 519 c 0
 381.830078125 504.333007812 376.997070312 483.333007812 370.997070312 456 c 0
 364.997070312 428.666992188 358.997070312 401.666992188 352.997070312 375 c 0
 342.997070312 327.666992188 328.830078125 268.666992188 310.497070312 198 c 0
 292.1640625 127.333007812 281.331054688 85.3330078125 277.998046875 72 c 1
 305.331054688 72 336.331054688 71.8330078125 370.998046875 71.5 c 0
 405.665039062 71.1669921875 424.33203125 71 426.999023438 71 c 0
 441.666015625 71 450.999023438 67.5 454.999023438 60.5 c 0
 458.999023438 53.5 459.999023438 44.3330078125 457.999023438 33 c 0
 456.666015625 27 454.999023438 21.5 452.999023438 16.5 c 0
 450.999023438 11.5 447.999023438 6.5 443.999023438 1.5 c 0
 439.999023438 -3.5 434.83203125 -7.1669921875 428.499023438 -9.5 c 0
 422.166015625 -11.8330078125 415.333007812 -12.3330078125 408 -11 c 0x60
EndSplineSet
Validated: 524289
EndChar

StartChar: J
Encoding: 74 74 53
Width: 590
GlyphClass: 2
Flags: HMW
HStem: -35.001 101.001<177.669 185.002> 625 82.999<160.336 186.002>
VStem: 4.0029 87.501 17.0029 77
LayerCount: 2
Fore
SplineSet
342 215 m 0xe0
 323.333007812 155 304.834960938 106.33203125 286.501953125 68.9990234375 c 0
 268.168945312 31.666015625 250.001953125 4.9990234375 232.001953125 -11.0009765625 c 0
 214.001953125 -27.0009765625 195.001953125 -35.0009765625 175.001953125 -35.0009765625 c 0
 153.668945312 -35.0009765625 134.001953125 -31.0009765625 116.001953125 -23.0009765625 c 0
 98.001953125 -15.0009765625 82.8349609375 -4.333984375 70.501953125 8.9990234375 c 0
 58.1689453125 22.33203125 47.3359375 36.83203125 38.0029296875 52.4990234375 c 0
 28.669921875 68.166015625 21.5029296875 83.8330078125 16.5029296875 99.5 c 0
 11.5029296875 115.166992188 8.0029296875 129.166992188 6.0029296875 141.5 c 0
 4.0029296875 153.833007812 3.3359375 163.666015625 4.0029296875 170.999023438 c 0xe0
 4.0029296875 176.999023438 5.3359375 184.166015625 8.0029296875 192.499023438 c 0
 10.669921875 200.83203125 13.669921875 208.665039062 17.0029296875 215.998046875 c 0
 20.3359375 223.331054688 25.5029296875 229.831054688 32.5029296875 235.498046875 c 0
 39.5029296875 241.165039062 48.0029296875 244.665039062 58.0029296875 245.998046875 c 0
 61.55859375 246.64453125 64.8701171875 246.967773438 67.9365234375 246.967773438 c 0
 77.5166015625 246.967773438 84.705078125 243.811523438 89.5029296875 237.499023438 c 0
 93.65234375 232.0390625 95.7265625 225.649414062 95.7265625 218.329101562 c 0
 95.7265625 214.4765625 95.15234375 210.3671875 94.0029296875 205.999023438 c 0xd0
 93.9501953125 205.706054688 91.4541015625 191.61328125 91.4541015625 176.352539062 c 0
 91.4541015625 166.751953125 92.8037109375 155.80078125 95.50390625 143.5 c 0
 98.50390625 129.833007812 103.170898438 117.333007812 109.50390625 106 c 0
 115.836914062 94.6669921875 125.669921875 85.1669921875 139.002929688 77.5 c 0
 152.3359375 69.8330078125 168.3359375 66 187.002929688 66 c 0
 209.002929688 66 235.3359375 124 266.002929688 240 c 0
 269.3359375 254.666992188 279.502929688 301.666992188 296.502929688 381 c 0
 313.502929688 460.333007812 332.002929688 541.333007812 352.002929688 624 c 1
 310.803710938 625.200195312 272.244140625 625.799804688 236.325195312 625.799804688 c 0
 212.377929688 625.799804688 189.603515625 625.533203125 168.002929688 625 c 0
 152.669921875 625 141.669921875 628.666992188 135.002929688 636 c 0
 128.3359375 643.333007812 126.3359375 652.666015625 129.002929688 663.999023438 c 0
 131.002929688 675.999023438 137.169921875 686.33203125 147.502929688 694.999023438 c 0
 157.8359375 703.666015625 170.668945312 707.999023438 186.001953125 707.999023438 c 0
 238.227539062 709.5546875 286.638671875 710.333007812 331.233398438 710.333007812 c 0
 420.415039062 710.333007812 494.336914062 707.221679688 553.001953125 701 c 0
 575.697265625 698.73046875 587.044921875 688.493164062 587.044921875 670.2890625 c 0
 587.044921875 667.102539062 586.697265625 663.672851562 586.001953125 659.999023438 c 0
 584.668945312 653.999023438 582.501953125 648.166015625 579.501953125 642.499023438 c 0
 576.501953125 636.83203125 572.668945312 631.33203125 568.001953125 625.999023438 c 0
 563.334960938 620.666015625 557.66796875 616.499023438 551.000976562 613.499023438 c 0
 544.333984375 610.499023438 537.333984375 609.999023438 530.000976562 611.999023438 c 0
 509.333984375 615.33203125 476.666992188 618.33203125 432 620.999023438 c 1
 427.333007812 601.666015625 421.166015625 572.333007812 413.499023438 533 c 0
 405.83203125 493.666992188 398.83203125 457.833984375 392.499023438 425.500976562 c 0
 386.166015625 393.16796875 378.333007812 357.16796875 369 317.500976562 c 0
 359.666992188 277.833984375 350.666992188 243.666992188 342 215 c 0xe0
EndSplineSet
Validated: 524289
EndChar

StartChar: K
Encoding: 75 75 54
Width: 590
GlyphClass: 2
Flags: W
HStem: -21.0752 21G<43.4688 50.123 407.313 417.822> 694.072 20G<216.557 223.298>
LayerCount: 2
Fore
SplineSet
107 24 m 0
 102.333007812 10 93.5 -1.1689453125 80.5 -9.501953125 c 0
 68.4638671875 -17.2177734375 56.2841796875 -21.0751953125 43.9619140625 -21.0751953125 c 0
 42.9755859375 -21.0751953125 41.98828125 -21.05078125 41 -21.0009765625 c 0
 28.3330078125 -21.0009765625 19.166015625 -16.5009765625 13.4990234375 -7.5009765625 c 0
 10.3916015625 -2.5654296875 8.837890625 3.4228515625 8.837890625 10.462890625 c 0
 8.837890625 16.2607421875 9.8916015625 22.7734375 11.9990234375 29.9990234375 c 0
 20.666015625 59.33203125 34.3330078125 115.499023438 53 198.499023438 c 0
 71.6669921875 281.499023438 89.6669921875 366.999023438 107 454.999023438 c 0
 115.666992188 497.666015625 121.666992188 526.499023438 125 541.499023438 c 0
 128.333007812 556.499023438 133.833007812 578.166015625 141.5 606.499023438 c 0
 149.166992188 634.83203125 154 652.665039062 156 659.998046875 c 0
 160.666992188 677.998046875 168.333984375 691.498046875 179.000976562 700.498046875 c 0
 189.66796875 709.498046875 201.334960938 713.998046875 214.001953125 713.998046875 c 0
 215.0390625 714.047851562 216.057617188 714.072265625 217.056640625 714.072265625 c 0
 229.5390625 714.072265625 239.020507812 710.21484375 245.501953125 702.499023438 c 0
 249.956054688 697.196289062 252.18359375 689.935546875 252.18359375 680.717773438 c 0
 252.18359375 675.451171875 251.456054688 669.544921875 250.001953125 662.999023438 c 0
 246.668945312 646.999023438 238.001953125 611.999023438 224.001953125 557.999023438 c 0
 210.001953125 503.999023438 198.668945312 459.33203125 190.001953125 423.999023438 c 1
 218.001953125 447.33203125 260.001953125 482.665039062 316.001953125 529.998046875 c 0
 372.001953125 577.331054688 416.334960938 614.831054688 449.001953125 642.498046875 c 0
 481.668945312 670.165039062 502.668945312 687.33203125 512.001953125 693.999023438 c 0
 522.668945312 702.666015625 532.3359375 708.499023438 541.002929688 711.499023438 c 0
 549.669921875 714.499023438 556.836914062 715.166015625 562.50390625 713.499023438 c 0
 568.170898438 711.83203125 573.00390625 708.33203125 577.00390625 702.999023438 c 0
 580.544921875 697.490234375 582.315429688 691.576171875 582.315429688 685.254882812 c 0
 582.315429688 670.155273438 572.211914062 652.736328125 552.00390625 632.999023438 c 0
 540.00390625 620.999023438 498.836914062 584.499023438 428.50390625 523.499023438 c 0
 358.170898438 462.499023438 296.00390625 409.33203125 242.00390625 363.999023438 c 1
 257.336914062 339.999023438 284.336914062 302.499023438 323.00390625 251.499023438 c 0
 361.670898438 200.499023438 395.170898438 155.666015625 423.50390625 116.999023438 c 0
 441.276367188 92.744140625 468.108398438 56.1259765625 468.108398438 40.0419921875 c 0
 468.108398438 28.9599609375 465.573242188 18.9462890625 460.502929688 9.9990234375 c 0
 454.8359375 -0.0009765625 447.668945312 -7.66796875 439.001953125 -13.0009765625 c 0
 429.997070312 -18.5986328125 421.658203125 -21.3974609375 413.985351562 -21.3974609375 c 0
 400.641601562 -21.3974609375 389.313476562 -12.931640625 380.000976562 4 c 0
 375.333984375 12.6669921875 358.500976562 35.6669921875 329.500976562 73 c 0
 300.500976562 110.333007812 269.16796875 151.5 235.500976562 196.5 c 0
 201.833984375 241.5 177.666992188 277.333007812 163 304 c 1
 158 284 l 2
 156 272.666992188 139 186 107 24 c 0
EndSplineSet
Validated: 524289
EndChar

StartChar: L
Encoding: 76 76 55
Width: 590
GlyphClass: 2
Flags: HMW
HStem: -9.00488 81.0029
LayerCount: 2
Fore
SplineSet
479 10 m 0
 435 1.3330078125 369.672851562 -5.0048828125 283.005859375 -9.0048828125 c 0
 196.338867188 -13.0048828125 133.005859375 -15.0048828125 93.005859375 -15.0048828125 c 0
 80.3388671875 -15.0048828125 71.171875 -10.5048828125 65.5048828125 -1.5048828125 c 0
 62.3974609375 3.4306640625 60.84375 9.4189453125 60.84375 16.458984375 c 0
 60.84375 22.2568359375 61.8974609375 28.76953125 64.0048828125 35.9951171875 c 0
 65.337890625 41.328125 77.6708984375 79.4951171875 101.00390625 150.495117188 c 0
 124.336914062 221.495117188 145.336914062 289.995117188 164.00390625 355.995117188 c 0
 172.670898438 385.995117188 185.670898438 440.995117188 203.00390625 520.995117188 c 0
 220.336914062 600.995117188 229.669921875 644.328125 231.002929688 650.995117188 c 0
 235.669921875 668.995117188 243.502929688 682.662109375 254.502929688 691.995117188 c 0
 265.502929688 701.328125 277.002929688 705.995117188 289.002929688 705.995117188 c 0
 290.040039062 706.044921875 291.059570312 706.069335938 292.060546875 706.069335938 c 0
 304.565429688 706.069335938 314.212890625 702.211914062 321.002929688 694.49609375 c 0
 325.484375 689.404296875 327.724609375 682.506835938 327.724609375 673.8046875 c 0
 327.724609375 668.265625 326.817382812 661.997070312 325.001953125 654.99609375 c 0
 320.334960938 635.663085938 313.66796875 609.330078125 305.000976562 575.997070312 c 0
 296.333984375 542.6640625 285.333984375 500.6640625 272.000976562 449.997070312 c 0
 258.66796875 399.330078125 247.334960938 355.330078125 238.001953125 317.997070312 c 0
 230.668945312 289.997070312 218.8359375 249.330078125 202.502929688 195.997070312 c 0
 186.169921875 142.6640625 174.669921875 101.331054688 168.002929688 71.998046875 c 1
 172.526367188 71.9404296875 177.119140625 71.9111328125 181.780273438 71.9111328125 c 0
 230.713867188 71.9111328125 287.288085938 75.107421875 351.502929688 81.498046875 c 0
 421.8359375 88.498046875 469.3359375 95.3310546875 494.002929688 101.998046875 c 0
 502.002929688 103.998046875 508.669921875 103.665039062 514.002929688 100.998046875 c 0
 519.3359375 98.3310546875 523.168945312 94.3310546875 525.501953125 88.998046875 c 0
 527.834960938 83.6650390625 529.16796875 77.83203125 529.500976562 71.4990234375 c 0
 529.833984375 65.166015625 529.666992188 59.3330078125 529 54 c 0
 526.333007812 42 521.333007812 32.3330078125 514 25 c 0
 506.666992188 17.6669921875 495 12.6669921875 479 10 c 0
EndSplineSet
Validated: 524289
EndChar

StartChar: M
Encoding: 77 77 56
Width: 590
GlyphClass: 2
Flags: HMW
HStem: -9.99414 21G<24.001 30.001>
VStem: 193.998 97.001 410.998 89.001
LayerCount: 2
Fore
SplineSet
84 59 m 0
 80 37.6669921875 72.0009765625 20.8388671875 60.0009765625 8.505859375 c 0
 48.0009765625 -3.8271484375 36.0009765625 -9.994140625 24.0009765625 -9.994140625 c 0
 9.1845703125 -9.544921875 1.7763671875 1.7900390625 1.7763671875 24.009765625 c 0
 1.7763671875 34.783203125 3.517578125 48.115234375 7.0009765625 64.0068359375 c 0
 9.0009765625 72.0068359375 13.16796875 85.673828125 19.5009765625 105.006835938 c 0
 25.833984375 124.33984375 34.0009765625 149.672851562 44.0009765625 181.005859375 c 0
 54.0009765625 212.338867188 62.66796875 239.671875 70.0009765625 263.004882812 c 0
 72.0009765625 271.004882812 75.66796875 283.337890625 81.0009765625 300.004882812 c 0
 95.66796875 349.337890625 107.500976562 387.837890625 116.500976562 415.504882812 c 0
 125.500976562 443.171875 136.66796875 477.671875 150.000976562 519.004882812 c 0
 163.333984375 560.337890625 174.666992188 592.837890625 184 616.504882812 c 0
 193.333007812 640.171875 201.333007812 656.671875 208 666.004882812 c 0
 217.333007812 680.004882812 229.333007812 690.171875 244 696.504882812 c 0
 256.116210938 701.736328125 267.095703125 704.352539062 276.936523438 704.352539062 c 0
 279.008789062 704.352539062 281.029296875 704.236328125 283 704.004882812 c 0
 311 704.004882812 325 691.671875 325 667.004882812 c 0
 325.060546875 664.336914062 325.090820312 661.510742188 325.090820312 658.526367188 c 0
 325.090820312 628.69140625 322.060546875 583.017578125 316 521.504882812 c 0
 309.333007812 453.837890625 300.666015625 376.670898438 289.999023438 290.00390625 c 0
 279.33203125 203.336914062 272.33203125 146.00390625 268.999023438 118.00390625 c 1
 296.999023438 212.00390625 323.666015625 296.670898438 348.999023438 372.00390625 c 0
 366.999023438 427.336914062 387.33203125 483.00390625 409.999023438 539.00390625 c 0
 432.666015625 595.00390625 450.999023438 637.670898438 464.999023438 667.00390625 c 0
 469.666015625 677.00390625 476.666015625 685.170898438 485.999023438 691.50390625 c 0
 495.33203125 697.836914062 504.33203125 701.669921875 512.999023438 703.002929688 c 0
 521.666015625 704.3359375 529.999023438 704.668945312 537.999023438 704.001953125 c 2
 541.999023438 704.001953125 l 1
 554.499023438 704.001953125 l 2
 557.499023438 704.001953125 561.666015625 703.168945312 566.999023438 701.501953125 c 0
 572.33203125 699.834960938 576.499023438 697.66796875 579.499023438 695.000976562 c 0
 582.499023438 692.333984375 584.999023438 688.166992188 586.999023438 682.5 c 0
 588.999023438 676.833007812 589.666015625 670 588.999023438 662 c 0
 586.999023438 642 571.666015625 544.333007812 542.999023438 369 c 0
 514.33203125 193.666992188 499.999023438 94.6669921875 499.999023438 72 c 0
 499.33203125 32 486.665039062 6.6669921875 461.998046875 -4 c 0
 455.903320312 -6.4375 450.19140625 -7.6572265625 444.862304688 -7.6572265625 c 0
 438.534179688 -7.6572265625 432.74609375 -5.9375 427.498046875 -2.5 c 0
 417.831054688 3.8330078125 412.331054688 17.666015625 410.998046875 38.9990234375 c 0
 410.899414062 40.6533203125 410.849609375 42.513671875 410.849609375 44.580078125 c 0
 410.849609375 98.29296875 444.232421875 291.099609375 510.997070312 623 c 1
 470.997070312 526.333007812 439.330078125 438.333007812 415.997070312 359 c 0
 392.6640625 283 368.331054688 210.833007812 342.998046875 142.5 c 0
 317.665039062 74.1669921875 300.33203125 32.333984375 290.999023438 17.0009765625 c 0
 280.33203125 1.0009765625 260.999023438 -6.9990234375 232.999023438 -6.9990234375 c 0
 220.33203125 -7.666015625 210.665039062 -5.666015625 203.998046875 -0.9990234375 c 0
 197.331054688 3.66796875 193.998046875 10.3349609375 193.998046875 19.001953125 c 0
 193.998046875 51.001953125 198.665039062 124.501953125 207.998046875 239.501953125 c 0
 217.331054688 354.501953125 226.998046875 464.668945312 236.998046875 570.001953125 c 1
 214.498046875 498.001953125 l 2
 206.165039062 471.334960938 199.165039062 448.16796875 193.498046875 428.500976562 c 0
 187.831054688 408.833984375 179.331054688 379.666992188 167.998046875 341 c 0
 156.665039062 302.333007812 147.998046875 273 141.998046875 253 c 0
 133.998046875 225 125.331054688 196.166992188 115.998046875 166.5 c 0
 106.665039062 136.833007812 99.33203125 113.5 93.9990234375 96.5 c 0
 88.666015625 79.5 85.3330078125 67 84 59 c 0
EndSplineSet
Validated: 524289
EndChar

StartChar: N
Encoding: 78 78 57
Width: 590
GlyphClass: 2
Flags: W
HStem: -12.0664 21G<20.9688 27.25>
LayerCount: 2
Fore
SplineSet
374 -14 m 0
 362 -14.6669921875 352.826171875 -12.5029296875 346.493164062 -7.5029296875 c 0
 340.16015625 -2.5029296875 336.327148438 4.330078125 334.994140625 12.9970703125 c 0
 332.327148438 26.330078125 324.16015625 55.6630859375 310.493164062 100.99609375 c 0
 296.826171875 146.329101562 282.826171875 193.49609375 268.493164062 242.49609375 c 0
 254.16015625 291.49609375 239.827148438 346.329101562 225.494140625 406.99609375 c 0
 211.161132812 467.663085938 201.994140625 519.330078125 197.994140625 561.997070312 c 1
 184.661132812 489.330078125 170.328125 421.663085938 154.995117188 358.99609375 c 0
 139.662109375 296.329101562 123.495117188 232.49609375 106.495117188 167.49609375 c 0
 89.4951171875 102.49609375 79.662109375 62.99609375 76.9951171875 48.99609375 c 0
 72.9951171875 27.6630859375 65.4951171875 11.99609375 54.4951171875 1.99609375 c 0
 44.1826171875 -7.37890625 33.138671875 -12.06640625 21.361328125 -12.06640625 c 0
 20.576171875 -12.06640625 19.787109375 -12.0458984375 18.9951171875 -12.00390625 c 0
 6.328125 -12.00390625 -1.0048828125 -6.3369140625 -3.0048828125 4.99609375 c 0
 -3.6044921875 8.396484375 -3.9052734375 12.2763671875 -3.9052734375 16.63671875 c 0
 -3.9052734375 26.8095703125 -2.271484375 39.5966796875 0.9951171875 54.99609375 c 0
 3.662109375 68.3291015625 16.3291015625 119.99609375 38.99609375 209.99609375 c 0
 61.6630859375 299.99609375 81.330078125 378.663085938 97.9970703125 445.99609375 c 0
 114.6640625 513.329101562 128.997070312 577.99609375 140.997070312 639.99609375 c 0
 142.997070312 653.329101562 146.997070312 664.662109375 152.997070312 673.995117188 c 0
 158.997070312 683.328125 165.997070312 690.161132812 173.997070312 694.494140625 c 0
 181.997070312 698.827148438 189.997070312 701.827148438 197.997070312 703.494140625 c 0
 205.997070312 705.161132812 213.6640625 705.328125 220.997070312 703.995117188 c 0
 248.330078125 703.995117188 262.663085938 691.662109375 263.99609375 666.995117188 c 0
 266.663085938 622.995117188 283.830078125 541.995117188 315.497070312 423.995117188 c 0
 347.1640625 305.995117188 374.997070312 210.662109375 398.997070312 137.995117188 c 1
 415.6640625 200.662109375 437.331054688 291.829101562 463.998046875 411.49609375 c 0
 490.665039062 531.163085938 505.998046875 609.99609375 509.998046875 647.99609375 c 0
 511.998046875 663.99609375 518.165039062 677.49609375 528.498046875 688.49609375 c 0
 538.831054688 699.49609375 549.998046875 704.99609375 561.998046875 704.99609375 c 0
 568.665039062 704.99609375 574.33203125 704.163085938 578.999023438 702.49609375 c 0
 583.666015625 700.829101562 587.166015625 698.829101562 589.499023438 696.49609375 c 0
 591.83203125 694.163085938 593.33203125 690.330078125 593.999023438 684.997070312 c 0
 594.666015625 679.6640625 594.833007812 674.831054688 594.5 670.498046875 c 0
 594.166992188 666.165039062 593.666992188 659.33203125 593 649.999023438 c 0
 592.333007812 639.33203125 581 585.83203125 559 489.499023438 c 0
 537 393.166015625 512.833007812 293.333007812 486.5 190 c 0
 460.166992188 86.6669921875 441.666992188 27 431 11 c 0
 421 -5.6669921875 402 -14 374 -14 c 0
EndSplineSet
Validated: 524289
EndChar

StartChar: O
Encoding: 79 79 58
Width: 590
GlyphClass: 2
Flags: HMW
HStem: -24 83.998<191.663 192.667> 636.997 81.001<380.665 392.331>
LayerCount: 2
Fore
SplineSet
180 -24 m 0
 142 -23.3330078125 110.663085938 -10.8349609375 85.99609375 13.498046875 c 0
 61.3291015625 37.8310546875 45.49609375 70.498046875 38.49609375 111.498046875 c 0
 35.9169921875 126.603515625 34.6279296875 142.228515625 34.6279296875 158.375 c 0
 34.6279296875 186.053710938 38.4169921875 215.260742188 45.99609375 245.998046875 c 0
 46.6630859375 249.331054688 47.99609375 254.998046875 49.99609375 262.998046875 c 0
 56.6630859375 292.998046875 62.330078125 316.998046875 66.9970703125 334.998046875 c 0
 71.6640625 352.998046875 78.4970703125 376.998046875 87.4970703125 406.998046875 c 0
 96.4970703125 436.998046875 106.6640625 465.498046875 117.997070312 492.498046875 c 0
 129.330078125 519.498046875 141.997070312 544.998046875 155.997070312 568.998046875 c 0
 181.997070312 612.331054688 217.830078125 647.998046875 263.497070312 675.998046875 c 0
 309.1640625 703.998046875 356.331054688 717.998046875 404.998046875 717.998046875 c 0
 429.665039062 717.998046875 452.33203125 712.831054688 472.999023438 702.498046875 c 0
 493.666015625 692.165039062 510.833007812 677.33203125 524.5 657.999023438 c 0
 538.166992188 638.666015625 547.5 613.999023438 552.5 583.999023438 c 0
 554.918945312 569.483398438 556.12890625 554.108398438 556.12890625 537.875976562 c 0
 556.12890625 520.560546875 554.752929688 502.267578125 552 482.999023438 c 0
 546.666992188 449.666015625 539.833984375 413.999023438 531.500976562 375.999023438 c 0
 523.16796875 337.999023438 513.16796875 299.499023438 501.500976562 260.499023438 c 0
 489.833984375 221.499023438 478.666992188 190.666015625 468 167.999023438 c 0
 453.333007812 136.666015625 437.333007812 109.666015625 420 86.9990234375 c 0
 402.666992188 64.33203125 385.166992188 45.83203125 367.5 31.4990234375 c 0
 349.833007812 17.166015625 330.666015625 5.8330078125 309.999023438 -2.5 c 0
 289.33203125 -10.8330078125 268.83203125 -16.5 248.499023438 -19.5 c 0
 228.166015625 -22.5 205.333007812 -24 180 -24 c 0
198.99609375 59.998046875 m 0
 215.663085938 59.998046875 232.330078125 62.1650390625 248.997070312 66.498046875 c 0
 265.6640625 70.8310546875 281.997070312 77.8310546875 297.997070312 87.498046875 c 0
 313.997070312 97.1650390625 329.497070312 109.998046875 344.497070312 125.998046875 c 0
 359.497070312 141.998046875 372.330078125 160.665039062 382.997070312 181.998046875 c 0
 386.997070312 190.665039062 394.1640625 210.665039062 404.497070312 241.998046875 c 0
 414.830078125 273.331054688 425.663085938 310.6640625 436.99609375 353.997070312 c 0
 448.329101562 397.330078125 457.329101562 439.997070312 463.99609375 481.997070312 c 0
 465.928710938 494.750976562 466.89453125 506.903320312 466.89453125 518.453125 c 0
 466.89453125 546.748046875 461.095703125 571.4296875 449.497070312 592.497070312 c 0
 433.1640625 622.1640625 408.6640625 636.997070312 375.997070312 636.997070312 c 0
 342.6640625 636.997070312 311.6640625 623.830078125 282.997070312 597.497070312 c 0
 254.330078125 571.1640625 229.330078125 534.331054688 207.997070312 486.998046875 c 0
 179.330078125 423.665039062 156.663085938 348.665039062 139.99609375 261.998046875 c 0
 135.99609375 240.665039062 133.163085938 220.998046875 131.49609375 202.998046875 c 0
 130.454101562 191.749023438 129.93359375 180.499023438 129.93359375 169.25 c 0
 129.93359375 162.499023438 130.12109375 155.749023438 130.49609375 148.998046875 c 0
 131.49609375 130.998046875 134.329101562 115.498046875 138.99609375 102.498046875 c 0
 143.663085938 89.498046875 151.163085938 79.1650390625 161.49609375 71.498046875 c 0
 171.829101562 63.8310546875 184.329101562 59.998046875 198.99609375 59.998046875 c 0
EndSplineSet
Validated: 524289
EndChar

StartChar: P
Encoding: 80 80 59
Width: 590
GlyphClass: 2
Flags: HMW
HStem: 230.001 82<260.998 269.998 260.998 286.664> 630.003 80.998<357.33 407.997>
LayerCount: 2
Fore
SplineSet
122 24 m 0
 119.333007812 10 111.49609375 -0.830078125 98.49609375 -8.4970703125 c 0
 86.5361328125 -15.55078125 74.435546875 -19.0771484375 62.1943359375 -19.0771484375 c 0
 61.12890625 -19.0771484375 60.0634765625 -19.05078125 58.99609375 -18.9970703125 c 0
 45.6630859375 -18.9970703125 35.830078125 -14.830078125 29.4970703125 -6.4970703125 c 0
 26.0595703125 -1.9736328125 24.33984375 3.6796875 24.33984375 10.462890625 c 0
 24.33984375 16.17578125 25.5595703125 22.6884765625 27.9970703125 30.0029296875 c 0
 30.6640625 40.669921875 34.6640625 56.5029296875 39.9970703125 77.5029296875 c 0
 45.330078125 98.5029296875 51.330078125 124.502929688 57.9970703125 155.502929688 c 0
 64.6640625 186.502929688 70.9970703125 216.502929688 76.9970703125 245.502929688 c 0
 82.9970703125 274.502929688 90.330078125 310.002929688 98.9970703125 352.002929688 c 0
 107.6640625 394.002929688 114.997070312 429.002929688 120.997070312 457.002929688 c 0
 130.330078125 500.3359375 143.997070312 557.668945312 161.997070312 629.001953125 c 1
 157.997070312 634.001953125 l 2
 155.330078125 642.001953125 155.663085938 650.168945312 158.99609375 658.501953125 c 0
 162.329101562 666.834960938 167.329101562 674.334960938 173.99609375 681.001953125 c 0
 180.663085938 687.668945312 187.330078125 691.668945312 193.997070312 693.001953125 c 0
 217.997070312 698.334960938 251.997070312 702.66796875 295.997070312 706.000976562 c 0
 339.997070312 709.333984375 370.330078125 711.000976562 386.997070312 711.000976562 c 0
 428.997070312 711.000976562 464.6640625 703.000976562 493.997070312 687.000976562 c 0
 523.330078125 671.000976562 543.997070312 646.833984375 555.997070312 614.500976562 c 0
 562.747070312 596.313476562 566.122070312 576.174804688 566.122070312 554.0859375 c 0
 566.122070312 536.904296875 564.080078125 518.54296875 559.997070312 499.000976562 c 0
 551.330078125 461.66796875 537.497070312 426.500976562 518.497070312 393.500976562 c 0
 499.497070312 360.500976562 477.497070312 332.000976562 452.497070312 308.000976562 c 0
 427.497070312 284.000976562 399.1640625 265.000976562 367.497070312 251.000976562 c 0
 335.830078125 237.000976562 303.330078125 230.000976562 269.997070312 230.000976562 c 0
 221.330078125 230.000976562 183.997070312 233.66796875 157.997070312 241.000976562 c 1
 152.6640625 213.000976562 147.831054688 186.16796875 143.498046875 160.500976562 c 0
 139.165039062 134.833984375 134.83203125 108.166992188 130.499023438 80.5 c 0
 126.166015625 52.8330078125 123.333007812 34 122 24 c 0
367.99609375 630.002929688 m 0
 346.663085938 630.002929688 306.99609375 627.333984375 248.99609375 622.000976562 c 1
 245.663085938 608.66796875 239.330078125 584.000976562 229.997070312 548.000976562 c 0
 220.6640625 512.000976562 211.331054688 475.000976562 201.998046875 437.000976562 c 0
 192.665039062 399.000976562 183.998046875 362.000976562 175.998046875 326.000976562 c 1
 197.248046875 316.625976562 223.477539062 311.938476562 254.6875 311.938476562 c 0
 256.768554688 311.938476562 258.872070312 311.958984375 260.998046875 312.000976562 c 0
 278.998046875 312.000976562 295.665039062 313.333984375 310.998046875 316.000976562 c 0
 326.331054688 318.66796875 339.998046875 322.334960938 351.998046875 327.001953125 c 0
 363.998046875 331.668945312 375.331054688 337.8359375 385.998046875 345.502929688 c 0
 396.665039062 353.169921875 405.665039062 360.836914062 412.998046875 368.50390625 c 0
 420.331054688 376.170898438 427.1640625 385.170898438 433.497070312 395.50390625 c 0
 439.830078125 405.836914062 444.997070312 415.169921875 448.997070312 423.502929688 c 0
 452.997070312 431.8359375 456.830078125 441.502929688 460.497070312 452.502929688 c 0
 464.1640625 463.502929688 466.997070312 472.502929688 468.997070312 479.502929688 c 0
 470.997070312 486.502929688 473.330078125 495.002929688 475.997070312 505.002929688 c 0
 478.397460938 516.203125 479.59765625 526.743164062 479.59765625 536.623046875 c 0
 479.59765625 543.209960938 479.063476562 549.502929688 477.997070312 555.502929688 c 0
 475.330078125 570.502929688 470.163085938 582.502929688 462.49609375 591.502929688 c 0
 454.829101562 600.502929688 445.49609375 608.002929688 434.49609375 614.002929688 c 0
 423.49609375 620.002929688 412.329101562 624.169921875 400.99609375 626.502929688 c 0
 389.663085938 628.8359375 378.663085938 630.002929688 367.99609375 630.002929688 c 0
EndSplineSet
Validated: 524289
EndChar

StartChar: Q
Encoding: 81 81 60
Width: 590
GlyphClass: 2
Flags: HMW
HStem: -23.9961 84.002<187.999 231.999> 637.005 80.9971<379.667 391.332>
LayerCount: 2
Fore
SplineSet
381 -206 m 0
 373.446289062 -210.443359375 366.041015625 -212.6640625 358.783203125 -212.6640625 c 0
 355.151367188 -212.6640625 351.556640625 -212.107421875 347.999023438 -210.99609375 c 0
 337.33203125 -207.663085938 328.999023438 -199.99609375 322.999023438 -187.99609375 c 0
 316.999023438 -175.99609375 307.499023438 -153.663085938 294.499023438 -120.99609375 c 0
 281.499023438 -88.3291015625 268.999023438 -54.99609375 256.999023438 -20.99609375 c 1
 243.666015625 -23.1298828125 229.267578125 -24.1962890625 213.802734375 -24.1962890625 c 0
 209.934570312 -24.1962890625 206 -24.1298828125 201.999023438 -23.99609375 c 0
 173.999023438 -23.99609375 149.666015625 -19.3291015625 128.999023438 -9.99609375 c 0
 108.33203125 -0.6630859375 91.33203125 12.3369140625 77.9990234375 29.00390625 c 0
 64.666015625 45.6708984375 54.4990234375 65.50390625 47.4990234375 88.50390625 c 0
 40.08984375 112.848632812 36.47265625 138.78515625 36.47265625 166.670898438 c 0
 36.47265625 191.768554688 39.314453125 218.212890625 44.9990234375 246.002929688 c 0
 70.33203125 375.3359375 106.999023438 481.668945312 154.999023438 565.001953125 c 0
 180.999023438 609.001953125 216.83203125 645.501953125 262.499023438 674.501953125 c 0
 308.166015625 703.501953125 355.333007812 718.001953125 404 718.001953125 c 0
 429.333007812 718.001953125 452 713.334960938 472 704.001953125 c 0
 492 694.668945312 508.833007812 681.001953125 522.5 663.001953125 c 0
 536.166992188 645.001953125 545.5 620.668945312 550.5 590.001953125 c 0
 552.918945312 575.163085938 554.12890625 559.154296875 554.12890625 541.974609375 c 0
 554.12890625 523.6484375 552.752929688 503.991210938 550 483.000976562 c 0
 544 437.000976562 532.666992188 380.833984375 516 314.500976562 c 0
 499.333007812 248.16796875 483.666015625 197.66796875 468.999023438 163.000976562 c 0
 438.999023438 91.0009765625 396.666015625 39.66796875 341.999023438 9.0009765625 c 1
 349.999023438 -10.33203125 358.666015625 -29.9990234375 367.999023438 -49.9990234375 c 0
 377.33203125 -69.9990234375 386.33203125 -88.666015625 394.999023438 -105.999023438 c 0
 403.666015625 -123.33203125 409.666015625 -134.999023438 412.999023438 -140.999023438 c 0
 415.666015625 -148.33203125 415.333007812 -156.33203125 412 -164.999023438 c 0
 408.666992188 -173.666015625 404 -181.833007812 398 -189.5 c 0
 392 -197.166992188 386.333007812 -202.666992188 381 -206 c 0
138.999023438 262.004882812 m 0
 134.958984375 238.974609375 132.938476562 217.353515625 132.938476562 197.139648438 c 0
 132.938476562 184 133.791992188 171.456054688 135.499023438 159.505859375 c 0
 139.83203125 129.172851562 149.33203125 105.005859375 163.999023438 87.005859375 c 0
 178.666015625 69.005859375 197.999023438 60.005859375 221.999023438 60.005859375 c 2
 231.999023438 60.005859375 l 1
 223.999023438 90.005859375 218.666015625 113.338867188 215.999023438 130.005859375 c 0
 215.220703125 136.561523438 214.83203125 142.802734375 214.83203125 148.729492188 c 0
 214.83203125 178.358398438 224.553710938 200.1171875 243.998046875 214.005859375 c 0
 250.665039062 218.672851562 257.33203125 221.505859375 263.999023438 222.505859375 c 0
 270.666015625 223.505859375 276.499023438 221.505859375 281.499023438 216.505859375 c 0
 286.499023438 211.505859375 289.33203125 204.005859375 289.999023438 194.005859375 c 0
 293.33203125 160.672851562 301.33203125 124.33984375 313.999023438 85.0068359375 c 1
 345.33203125 104.33984375 369.999023438 135.33984375 387.999023438 178.006835938 c 0
 391.999023438 188.006835938 398.499023438 208.173828125 407.499023438 238.506835938 c 0
 416.499023438 268.83984375 426.666015625 306.672851562 437.999023438 352.005859375 c 0
 449.33203125 397.338867188 457.665039062 440.671875 462.998046875 482.004882812 c 0
 464.634765625 494.9140625 465.452148438 507.103515625 465.452148438 518.575195312 c 0
 465.452148438 549.1640625 459.634765625 574.641601562 447.998046875 595.004882812 c 0
 431.998046875 623.004882812 407.665039062 637.004882812 374.998046875 637.004882812 c 0
 340.998046875 637.004882812 309.498046875 624.004882812 280.498046875 598.004882812 c 0
 251.498046875 572.004882812 226.665039062 535.671875 205.998046875 489.004882812 c 0
 174.665039062 419.671875 152.33203125 344.004882812 138.999023438 262.004882812 c 0
EndSplineSet
Validated: 524289
EndChar

StartChar: R
Encoding: 82 82 61
Width: 590
GlyphClass: 2
Flags: W
HStem: -19.0801 21G<60.7935 67.7402 415 427.445> 694.06 20G<217.051 223.953>
VStem: 478.897 88.5586<409.03 519.094>
LayerCount: 2
Fore
SplineSet
121 24 m 0
 118.333007812 10 110.66796875 -0.8330078125 98.0009765625 -8.5 c 0
 86.34765625 -15.5537109375 74.130859375 -19.080078125 61.349609375 -19.080078125 c 0
 60.2373046875 -19.080078125 59.12109375 -19.0537109375 58.0009765625 -19 c 0
 45.333984375 -19 35.6669921875 -14.8330078125 29 -6.5 c 0
 25.2958984375 -1.8701171875 23.4443359375 3.9423828125 23.4443359375 10.939453125 c 0
 23.4443359375 16.5361328125 24.62890625 22.8896484375 26.9990234375 30 c 0
 37.666015625 64.6669921875 45.8330078125 94.1669921875 51.5 118.5 c 0
 57.1669921875 142.833007812 70.333984375 202.666015625 91.0009765625 297.999023438 c 0
 93.66796875 310.666015625 100.66796875 337.833007812 112.000976562 379.5 c 0
 123.333984375 421.166992188 132.333984375 460.666992188 139.000976562 498 c 0
 143.66796875 520.666992188 149.16796875 551.333984375 155.500976562 590.000976562 c 0
 161.833984375 628.66796875 166.000976562 652.000976562 168.000976562 660.000976562 c 2
 169.000976562 666.000976562 l 2
 171.000976562 678.66796875 177.66796875 689.66796875 189.000976562 699.000976562 c 0
 199.040039062 709.040039062 210.555664062 714.059570312 223.546875 714.059570312 c 0
 224.359375 714.059570312 225.176757812 714.040039062 226.000976562 714.000976562 c 0
 238.000976562 714.000976562 247.333984375 711.333984375 254.000976562 706.000976562 c 1
 304.66796875 703.333984375 349.66796875 696.166992188 389.000976562 684.5 c 0
 428.333984375 672.833007812 460.000976562 658.333007812 484.000976562 641 c 0
 508.000976562 623.666992188 527.000976562 604 541.000976562 582 c 0
 555.000976562 560 563.333984375 538 566.000976562 516 c 0
 566.970703125 508 567.456054688 499.955078125 567.456054688 491.8671875 c 0
 567.456054688 477.712890625 565.970703125 463.423828125 563.000976562 449 c 0
 559.000976562 432.333007812 553.333984375 417 546.000976562 403 c 0
 538.66796875 389 530.16796875 376.833007812 520.500976562 366.5 c 0
 510.833984375 356.166992188 499.166992188 347 485.5 339 c 0
 471.833007812 331 457.666015625 324.166992188 442.999023438 318.5 c 0
 428.33203125 312.833007812 411.33203125 307.833007812 391.999023438 303.5 c 0
 372.666015625 299.166992188 353.833007812 295.833984375 335.5 293.500976562 c 0
 317.166992188 291.16796875 296.333984375 289.000976562 273.000976562 287.000976562 c 1
 327.66796875 252.333984375 373.500976562 211.833984375 410.500976562 165.500976562 c 0
 411.370117188 164.413085938 477.106445312 81.5439453125 477.106445312 43.2431640625 c 0
 477.106445312 32.6953125 474.571289062 22.9482421875 469.500976562 14.0009765625 c 0
 463.833984375 4.0009765625 456.333984375 -3.9990234375 447.000976562 -9.9990234375 c 0
 439.178710938 -15.3759765625 431.356445312 -18.0654296875 423.534179688 -18.0654296875 c 0
 415 -16.998046875 l 0
 404.333007812 -14.3310546875 396 -6.3310546875 390 7.001953125 c 0
 383.333007812 21.001953125 373.166015625 38.1689453125 359.499023438 58.501953125 c 0
 345.83203125 78.8349609375 328.999023438 101.501953125 308.999023438 126.501953125 c 0
 288.999023438 151.501953125 265.33203125 176.168945312 237.999023438 200.501953125 c 0
 210.666015625 224.834960938 183.333007812 244.334960938 156 259.001953125 c 1
 148.666992188 220.334960938 141.5 174.66796875 134.5 122.000976562 c 0
 127.5 69.333984375 123 36.6669921875 121 24 c 0
223.001953125 498 m 0
 221.668945312 490.666992188 219.172851562 480.833984375 215.505859375 468.500976562 c 0
 211.838867188 456.16796875 208.505859375 445.16796875 205.505859375 435.500976562 c 0
 202.505859375 425.833984375 198.338867188 412.500976562 193.005859375 395.500976562 c 0
 187.672851562 378.500976562 183.672851562 366.333984375 181.005859375 359.000976562 c 1
 188.244140625 357.4765625 197.658203125 356.71484375 209.25 356.71484375 c 0
 217.943359375 356.71484375 227.862304688 357.143554688 239.005859375 358.000976562 c 0
 264.338867188 359.333984375 286.171875 360.833984375 304.504882812 362.500976562 c 0
 322.837890625 364.16796875 341.004882812 366.500976562 359.004882812 369.500976562 c 0
 377.004882812 372.500976562 392.171875 376.000976562 404.504882812 380.000976562 c 0
 416.837890625 384.000976562 428.170898438 389.000976562 438.50390625 395.000976562 c 0
 448.836914062 401.000976562 457.169921875 408.16796875 463.502929688 416.500976562 c 0
 469.8359375 424.833984375 474.3359375 434.333984375 477.002929688 445.000976562 c 0
 478.266601562 450.895507812 478.897460938 456.724609375 478.897460938 462.486328125 c 0
 478.897460938 474.969726562 475.932617188 487.141601562 470.002929688 499.000976562 c 0
 461.3359375 516.333984375 448.668945312 531.666992188 432.001953125 545 c 0
 415.334960938 558.333007812 395.834960938 570.5 373.501953125 581.5 c 0
 351.168945312 592.5 329.501953125 601.333007812 308.501953125 608 c 0
 287.501953125 614.666992188 267.334960938 620 248.001953125 624 c 1
 238.001953125 575.333007812 229.668945312 533.333007812 223.001953125 498 c 0
EndSplineSet
Validated: 524289
EndChar

StartChar: S
Encoding: 83 83 62
Width: 590
GlyphClass: 2
Flags: HMW
HStem: -29 85<177.337 181.001> 632 76.002 645.001 79.001<426 426.001>
LayerCount: 2
Fore
SplineSet
3 66 m 0xa0
 1.71875 72.91796875 1.0791015625 79.3447265625 1.0791015625 85.2783203125 c 0
 1.0791015625 94.7841796875 2.7216796875 103.026367188 6.0048828125 110.00390625 c 0
 11.337890625 121.336914062 19.6708984375 130.00390625 31.00390625 136.00390625 c 0
 39.00390625 139.336914062 45.50390625 141.669921875 50.50390625 143.002929688 c 0
 55.50390625 144.3359375 60.50390625 144.668945312 65.50390625 144.001953125 c 0
 70.50390625 143.334960938 75.00390625 140.66796875 79.00390625 136.000976562 c 0
 83.00390625 131.333984375 87.00390625 124.666992188 91.00390625 116 c 0
 97.6708984375 98 109.50390625 83.5 126.50390625 72.5 c 0
 143.50390625 61.5 164.670898438 56 190.00390625 56 c 0
 204.670898438 56 220.670898438 58.1669921875 238.00390625 62.5 c 0
 255.336914062 66.8330078125 272.669921875 73.5 290.002929688 82.5 c 0
 307.3359375 91.5 323.668945312 102 339.001953125 114 c 0
 354.334960938 126 367.501953125 140.166992188 378.501953125 156.5 c 0
 389.501953125 172.833007812 397.001953125 190 401.001953125 208 c 0
 403.001953125 218 404.501953125 227 405.501953125 235 c 0
 406.501953125 243 406.334960938 251.666992188 405.001953125 261 c 0
 403.668945312 270.333007812 401.001953125 278.833007812 397.001953125 286.5 c 0
 393.001953125 294.166992188 386.501953125 301.833984375 377.501953125 309.500976562 c 0
 368.501953125 317.16796875 357.668945312 324.000976562 345.001953125 330.000976562 c 0
 332.334960938 336.000976562 316.16796875 341.500976562 296.500976562 346.500976562 c 0
 276.833984375 351.500976562 254.666992188 355.333984375 230 358.000976562 c 0
 208.666992188 360.66796875 190 367.000976562 174 377.000976562 c 0
 158 387.000976562 146 399.16796875 138 413.500976562 c 0
 130 427.833984375 124.833007812 442.833984375 122.5 458.500976562 c 0
 121.5390625 464.952148438 121.05859375 471.430664062 121.05859375 477.938476562 c 0
 121.05859375 487.235351562 122.0390625 496.588867188 124 506.000976562 c 0
 129.333007812 528.66796875 138 550.500976562 150 571.500976562 c 0
 162 592.500976562 177.666992188 612.333984375 197 631.000976562 c 0
 216.333007812 649.66796875 238 665.834960938 262 679.501953125 c 0
 286 693.168945312 313.666992188 704.001953125 345 712.001953125 c 0
 376.333007812 720.001953125 409 724.001953125 443 724.001953125 c 0xa0
 459.666992188 724.001953125 482.166992188 722.501953125 510.5 719.501953125 c 0
 538.833007812 716.501953125 558 712.668945312 568 708.001953125 c 0
 578.666992188 703.334960938 585.333984375 696.001953125 588.000976562 686.001953125 c 0
 589.067382812 682.001953125 589.6015625 677.895507812 589.6015625 673.681640625 c 0
 589.6015625 667.362304688 588.401367188 660.801757812 586.000976562 654.001953125 c 0
 583.333984375 646.001953125 579.333984375 639.668945312 574.000976562 635.001953125 c 0
 568.66796875 630.334960938 563.000976562 627.66796875 557.000976562 627.000976562 c 0
 551.000976562 626.333984375 545.500976562 626.166992188 540.500976562 626.5 c 0
 535.500976562 626.833007812 530.333984375 628 525.000976562 630 c 0
 524.333984375 630 522.333984375 630.666992188 519.000976562 632 c 0xc0
 509.000976562 634.666992188 501.000976562 636.833984375 495.000976562 638.500976562 c 0
 489.000976562 640.16796875 479.000976562 641.66796875 465.000976562 643.000976562 c 0
 451.000976562 644.333984375 435.000976562 645.000976562 417.000976562 645.000976562 c 0
 389.000976562 645.000976562 361.16796875 640.500976562 333.500976562 631.500976562 c 0
 305.833984375 622.500976562 281.833984375 609.000976562 261.500976562 591.000976562 c 0
 241.16796875 573.000976562 228.66796875 553.000976562 224.000976562 531.000976562 c 0
 222.413085938 524.118164062 221.618164062 517.516601562 221.618164062 511.194335938 c 0
 221.618164062 493.633789062 227.74609375 478.236328125 240.000976562 465.000976562 c 0
 256.66796875 447.000976562 284.000976562 437.333984375 322.000976562 436.000976562 c 0
 356.000976562 434.000976562 385.333984375 428.16796875 410.000976562 418.500976562 c 0
 434.66796875 408.833984375 453.500976562 397.166992188 466.500976562 383.5 c 0
 479.500976562 369.833007812 489.16796875 353.833007812 495.500976562 335.5 c 0
 501.833984375 317.166992188 505.000976562 299 505.000976562 281 c 0
 505.000976562 263 502.66796875 244.333007812 498.000976562 225 c 0
 490.66796875 194.333007812 479.000976562 165.5 463.000976562 138.5 c 0
 447.000976562 111.5 428.16796875 87.8330078125 406.500976562 67.5 c 0
 384.833984375 47.1669921875 360.833984375 29.6669921875 334.500976562 15 c 0
 308.16796875 0.3330078125 280.66796875 -10.6669921875 252.000976562 -18 c 0
 223.333984375 -25.3330078125 195.000976562 -29 167.000976562 -29 c 0
 123.66796875 -29 87.16796875 -19.8330078125 57.5009765625 -1.5 c 0
 27.833984375 16.8330078125 9.6669921875 39.3330078125 3 66 c 0xa0
EndSplineSet
Validated: 524289
EndChar

